SplineFontDB: 3.0
FontName: AbhayaLibreTamil-ExtraBold
FullName: AbhayaLibre ExtraBold
FamilyName: AbhayaLibre
Weight: ExtraBold
Copyright: Copyright (c) 2000, Modular Infotech, Pune, INDIA.
Version: 1.00
ItalicAngle: 0
UnderlinePosition: -282
UnderlineWidth: 20
Ascent: 700
Descent: 300
InvalidEm: 0
sfntRevision: 0x00010000
LayerCount: 2
Layer: 0 0 "Back" 1
Layer: 1 0 "Fore" 0
XUID: [1021 779 -1439063335 8111123]
FSType: 0
OS2Version: 4
OS2_WeightWidthSlopeOnly: 0
OS2_UseTypoMetrics: 1
CreationTime: 1442707200
ModificationTime: 1444148483
PfmFamily: 17
TTFWeight: 800
TTFWidth: 5
LineGap: 147
VLineGap: 0
Panose: 2 0 8 0 0 0 0 0 0 0
OS2TypoAscent: 700
OS2TypoAOffset: 0
OS2TypoDescent: -300
OS2TypoDOffset: 0
OS2TypoLinegap: 147
OS2WinAscent: 845
OS2WinAOffset: 0
OS2WinDescent: 302
OS2WinDOffset: 0
HheadAscent: 700
HheadAOffset: 0
HheadDescent: -300
HheadDOffset: 0
OS2SubXSize: 700
OS2SubYSize: 650
OS2SubXOff: 0
OS2SubYOff: 200
OS2SupXSize: 700
OS2SupYSize: 650
OS2SupXOff: 0
OS2SupYOff: 500
OS2StrikeYSize: 50
OS2StrikeYPos: 250
OS2CapHeight: 604
OS2XHeight: 409
OS2Vendor: 'MODI'
OS2CodePages: 00000003.00000000
OS2UnicodeRanges: 80108003.00000000.00000000.00000000
Lookup: 4 0 0 "'akhn' Akhand in Tamil lookup 0" { "'akhn' Akhand in Tamil lookup 0 subtable"  } ['akhn' ('taml' <'dflt' > ) ]
Lookup: 4 0 0 "'abvs' Above Base Substitutions in Tamil lookup 1" { "'abvs' Above Base Substitutions in Tamil lookup 1 subtable"  } ['abvs' ('taml' <'dflt' > ) ]
Lookup: 4 0 0 "'abvs' Above Base Substitutions in Tamil lookup 2" { "'abvs' Above Base Substitutions in Tamil lookup 2 subtable"  } ['abvs' ('taml' <'dflt' > ) ]
Lookup: 4 0 0 "'blws' Below Base Substitutions in Tamil lookup 3" { "'blws' Below Base Substitutions in Tamil lookup 3 subtable"  } ['blws' ('taml' <'dflt' > ) ]
Lookup: 4 0 0 "'haln' Halant Forms in Tamil lookup 4" { "'haln' Halant Forms in Tamil lookup 4 subtable"  } ['haln' ('taml' <'dflt' > ) ]

StartChar: .notdef
Encoding: 256 -1 0
Width: 800
GlyphClass: 2
Flags: HW
LayerCount: 2
Back
Fore
SplineSet
100 0 m 1
 100 700 l 1
 700 700 l 1
 700 0 l 1
 100 0 l 1
 100 0 l 1
150 50 m 1
 650 50 l 1
 650 650 l 1
 150 650 l 1
 150 50 l 1
 150 50 l 1
EndSplineSet
EndChar

StartChar: uni0B83
Encoding: 259 2947 4
Width: 720
GlyphClass: 2
Flags: HW
LayerCount: 2
Back
Fore
SplineSet
323 136 m 1
 323 93.3333333333 309 59.3333333333 281 34 c 0
 253 8 216 -5 170 -5 c 256
 124 -5 87 8 59 34 c 0
 31 59.3333333333 17 93.3333333333 17 136 c 0
 17 179.333333333 31 214 59 240 c 256
 87 266 124 279 170 279 c 256
 216 279 253 266 281 240 c 256
 309 214 323 179.333333333 323 136 c 1
 323 136 l 1
193 136 m 1
 193 162 186 184 172 202 c 256
 158 220 141.333333333 229 122 229 c 256
 102.666666667 229 86.3333333333 220 73 202 c 0
 59 184 52 162 52 136 c 0
 52 110.666666667 59 89.3333333333 73 72 c 0
 86.3333333333 54 102.666666667 45 122 45 c 256
 141.333333333 45 158 54 172 72 c 0
 186 89.3333333333 193 110.666666667 193 136 c 1
 193 136 l 1
703 136 m 1
 703 93.3333333333 689 59.3333333333 661 34 c 0
 633 8 596 -5 550 -5 c 256
 504 -5 467 8 439 34 c 0
 411 59.3333333333 397 93.3333333333 397 136 c 0
 397 179.333333333 411 214 439 240 c 256
 467 266 504 279 550 279 c 256
 596 279 633 266 661 240 c 256
 689 214 703 179.333333333 703 136 c 1
 703 136 l 1
573 136 m 1
 573 162 566 184 552 202 c 256
 538 220 521.333333333 229 502 229 c 256
 482.666666667 229 466.333333333 220 453 202 c 0
 439 184 432 162 432 136 c 0
 432 110.666666667 439 89.3333333333 453 72 c 0
 466.333333333 54 482.666666667 45 502 45 c 256
 521.333333333 45 538 54 552 72 c 0
 566 89.3333333333 573 110.666666667 573 136 c 1
 573 136 l 1
518 541 m 1
 518 498.333333333 504 464.333333333 476 439 c 0
 448 413 411 400 365 400 c 256
 319 400 282 413 254 439 c 0
 226 464.333333333 212 498.333333333 212 541 c 0
 212 584.333333333 226 619 254 645 c 256
 282 671 319 684 365 684 c 256
 411 684 448 671 476 645 c 256
 504 619 518 584.333333333 518 541 c 1
 518 541 l 1
388 541 m 1
 388 567 381 589 367 607 c 256
 353 625 336.333333333 634 317 634 c 256
 297.666666667 634 281.333333333 625 268 607 c 0
 254 589 247 567 247 541 c 0
 247 515.666666667 254 494.333333333 268 477 c 0
 281.333333333 459 297.666666667 450 317 450 c 256
 336.333333333 450 353 459 367 477 c 0
 381 494.333333333 388 515.666666667 388 541 c 1
 388 541 l 1
EndSplineSet
EndChar

StartChar: uni0B85
Encoding: 260 2949 5
Width: 951
GlyphClass: 2
Flags: HW
LayerCount: 2
Back
Fore
SplineSet
8 32 m 1
 8 46 13.3333333333 58 24 68 c 256
 34.6666666667 78 47.3333333333 83 62 83 c 2
 572 83 l 1
 592 120.333333333 602 164.333333333 602 215 c 0
 602 259.666666667 589.666666667 298 565 330 c 0
 540.333333333 361.333333333 510.333333333 377 475 377 c 1
 493.666666667 366.333333333 508.333333333 351.666666667 519 333 c 256
 529.666666667 314.333333333 535 294 535 272 c 0
 535 238 520.666666667 208.666666667 492 184 c 0
 462.666666667 160 427.666666667 148 387 148 c 256
 346.333333333 148 311.333333333 160.333333333 282 185 c 0
 253.333333333 209 239 238.333333333 239 273 c 0
 239 315 257 348.666666667 293 374 c 256
 329 399.333333333 376.666666667 412 436 412 c 0
 518 412 587.666666667 392.666666667 645 354 c 0
 703 315.333333333 732 268.666666667 732 214 c 0
 732 155.333333333 724.666666667 111.666666667 710 83 c 1
 776 83 l 1
 776 400 l 1
 906 400 l 1
 906 -134 l 1
 776 -134 l 1
 776 48 l 1
 702 48 l 1
 672 -4 620.333333333 -45 547 -75 c 256
 473.666666667 -105 388.666666667 -120 292 -120 c 0
 213.333333333 -120 146.333333333 -105 91 -75 c 0
 35.6666666667 -45.6666666667 8 -10 8 32 c 1
 8 32 l 1
405 270 m 1
 405 294 398.333333333 314.666666667 385 332 c 256
 371.666666667 349.333333333 355.666666667 358 337 358 c 0
 319.666666667 358 304.666666667 349.333333333 292 332 c 0
 280 314.666666667 274 294 274 270 c 0
 274 248.666666667 280 230.666666667 292 216 c 0
 304.666666667 200.666666667 319.666666667 193 337 193 c 0
 355.666666667 193 371.666666667 200.666666667 385 216 c 0
 398.333333333 230.666666667 405 248.666666667 405 270 c 1
 405 270 l 1
544 48 m 1
 64 48 l 2
 58 48 53 46 49 42 c 256
 45 38 43 33.3333333333 43 28 c 0
 43 -3.33333333333 65 -30 109 -52 c 256
 153 -74 206.333333333 -85 269 -85 c 0
 327.666666667 -85 381.333333333 -73.3333333333 430 -50 c 0
 479.333333333 -26 517.333333333 6.66666666667 544 48 c 1
 544 48 l 1
EndSplineSet
EndChar

StartChar: uni0B86
Encoding: 261 2950 6
Width: 1120
GlyphClass: 2
Flags: HW
LayerCount: 2
Back
Fore
SplineSet
1120 -48 m 1
 1120 -123.333333333 1082.33333333 -184 1007 -230 c 0
 931.666666667 -275.333333333 831.333333333 -298 706 -298 c 0
 628 -298 561.333333333 -287.666666667 506 -267 c 256
 450.666666667 -246.333333333 423 -221.666666667 423 -193 c 0
 423 -178.333333333 431.333333333 -166 448 -156 c 0
 464 -146 483.666666667 -141 507 -141 c 2
 638 -141 l 1
 638 -176 l 1
 505 -176 l 2
 492.333333333 -176 481.333333333 -177.666666667 472 -181 c 0
 462.666666667 -185 458 -189.333333333 458 -194 c 0
 458 -214.666666667 482.333333333 -231.666666667 531 -245 c 0
 577 -257 635.333333333 -263 706 -263 c 0
 792 -263 860.666666667 -243.666666667 912 -205 c 0
 964 -167 990 -116 990 -52 c 0
 990 -29.3333333333 985 -10 975 6 c 256
 965 22 952.666666667 30 938 30 c 0
 929.333333333 30 921.666666667 26 915 18 c 0
 909 10.6666666667 906 1.33333333333 906 -10 c 2
 906 -183 l 1
 776 -183 l 1
 776 48 l 1
 702 48 l 1
 672 -4 620.333333333 -45 547 -75 c 256
 473.666666667 -105 388.666666667 -120 292 -120 c 0
 213.333333333 -120 146.333333333 -105 91 -75 c 0
 35.6666666667 -45.6666666667 8 -10 8 32 c 0
 8 46 13.3333333333 58 24 68 c 256
 34.6666666667 78 47.3333333333 83 62 83 c 2
 571 83 l 1
 591.666666667 121.666666667 602 165.666666667 602 215 c 0
 602 259.666666667 589.666666667 298 565 330 c 0
 540.333333333 361.333333333 510.333333333 377 475 377 c 1
 493.666666667 366.333333333 508.333333333 351.666666667 519 333 c 256
 529.666666667 314.333333333 535 294 535 272 c 0
 535 238 520.333333333 208.666666667 491 184 c 0
 461.666666667 160 426.333333333 148 385 148 c 0
 345 148 310.666666667 160.333333333 282 185 c 0
 254 209 240 238.333333333 240 273 c 0
 240 315 258 348.666666667 294 374 c 0
 329.333333333 399.333333333 376.666666667 412 436 412 c 0
 518 412 587.666666667 392.666666667 645 354 c 0
 703 315.333333333 732 268.666666667 732 214 c 0
 732 155.333333333 724.666666667 111.666666667 710 83 c 1
 776 83 l 1
 776 400 l 1
 906 400 l 1
 906 58 l 1
 938.666666667 76 967 85 991 85 c 0
 1030.33333333 85 1061.66666667 73 1085 49 c 0
 1108.33333333 24.3333333333 1120 -8 1120 -48 c 1
 1120 -48 l 1
405 270 m 1
 405 294 398.333333333 314.666666667 385 332 c 256
 371.666666667 349.333333333 355.666666667 358 337 358 c 0
 319.666666667 358 305 349.333333333 293 332 c 256
 281 314.666666667 275 294 275 270 c 0
 275 248.666666667 281 230.666666667 293 216 c 0
 305 200.666666667 319.666666667 193 337 193 c 0
 355.666666667 193 371.666666667 200.666666667 385 216 c 0
 398.333333333 230.666666667 405 248.666666667 405 270 c 1
 405 270 l 1
545 48 m 1
 64 48 l 2
 58 48 53 46.6666666667 49 44 c 0
 45 40.6666666667 43 37 43 33 c 0
 43 0.333333333333 65 -27.3333333333 109 -50 c 0
 153.666666667 -73.3333333333 207.333333333 -85 270 -85 c 0
 328.666666667 -85 382.333333333 -73.3333333333 431 -50 c 0
 480.333333333 -26 518.333333333 6.66666666667 545 48 c 1
 545 48 l 1
EndSplineSet
EndChar

StartChar: uni0B87
Encoding: 262 2951 7
Width: 914
GlyphClass: 2
Flags: HW
LayerCount: 2
Back
Fore
SplineSet
875 -273 m 1
 840 -273 l 1
 840 189 l 2
 840 307 805.666666667 401.333333333 737 472 c 0
 669 543.333333333 578 579 464 579 c 0
 354.666666667 579 267 547.666666667 201 485 c 0
 135 423 102 340 102 236 c 0
 102 152 127.333333333 75 178 5 c 1
 240.666666667 37 324.333333333 53 429 53 c 0
 470.333333333 53 511.333333333 48.3333333333 552 39 c 1
 571.333333333 64.3333333333 586 94.3333333333 596 129 c 256
 606 163.666666667 611 201 611 241 c 0
 611 277.666666667 600.333333333 308.666666667 579 334 c 0
 557.666666667 360 532 373 502 373 c 1
 520.666666667 363 535.333333333 348 546 328 c 0
 556.666666667 307.333333333 562 285 562 261 c 0
 562 218.333333333 548.333333333 184.333333333 521 159 c 256
 493.666666667 133.666666667 457.333333333 121 412 121 c 256
 366.666666667 121 330.666666667 134.333333333 304 161 c 0
 276.666666667 187 263 222 263 266 c 0
 263 316.666666667 281.333333333 357 318 387 c 0
 355.333333333 417.666666667 404.666666667 433 466 433 c 0
 548 433 613.333333333 414.666666667 662 378 c 0
 711.333333333 342 736 293.666666667 736 233 c 0
 736 143.666666667 713.333333333 66.6666666667 668 2 c 1
 708 -14 740 -35 764 -61 c 0
 788 -86.3333333333 800 -112.333333333 800 -139 c 0
 800 -179 777.333333333 -213.333333333 732 -242 c 256
 686.666666667 -270.666666667 632 -285 568 -285 c 0
 487.333333333 -285 417 -269 357 -237 c 1
 299 -269 231 -285 153 -285 c 0
 111 -285 75 -275.333333333 45 -256 c 256
 15 -236.666666667 0 -213.333333333 0 -186 c 0
 0 -154 12.3333333333 -122.333333333 37 -91 c 0
 61 -60.3333333333 93.6666666667 -35 135 -15 c 1
 106.333333333 20.3333333333 84.3333333333 61.6666666667 69 109 c 0
 53.6666666667 155.666666667 46 205.666666667 46 259 c 0
 46 383.666666667 84.3333333333 483.333333333 161 558 c 0
 237 633.333333333 338.666666667 671 466 671 c 0
 590 671 689 627 763 539 c 0
 837.666666667 451 875 334 875 188 c 2
 875 -273 l 1
 875 -273 l 1
432 262 m 1
 432 286 425 306.666666667 411 324 c 0
 397.666666667 340.666666667 381.333333333 349 362 349 c 0
 344 349 329 340.666666667 317 324 c 0
 304.333333333 307.333333333 298 287.333333333 298 264 c 0
 298 240 304.333333333 219.333333333 317 202 c 0
 329 184.666666667 344 176 362 176 c 0
 381.333333333 176 397.666666667 184.333333333 411 201 c 0
 425 217.666666667 432 238 432 262 c 1
 432 262 l 1
520 -9 m 1
 485.333333333 1.66666666667 450 7 414 7 c 0
 324 7 253.333333333 -6 202 -32 c 1
 251.333333333 -94.6666666667 301.333333333 -142 352 -174 c 1
 416 -132.666666667 472 -77.6666666667 520 -9 c 1
 520 -9 l 1
670 -137 m 1
 670 -119 665 -103 655 -89 c 0
 645 -74.3333333333 632 -65 616 -61 c 1
 556.666666667 -120.333333333 488.333333333 -168 411 -204 c 1
 443.666666667 -220.666666667 485.666666667 -229 537 -229 c 0
 573.666666667 -229 605 -220 631 -202 c 256
 657 -184 670 -162.333333333 670 -137 c 1
 670 -137 l 1
303 -198 m 1
 239 -151.333333333 189 -103.333333333 153 -54 c 1
 117.666666667 -71.3333333333 89.3333333333 -91.6666666667 68 -115 c 0
 47.3333333333 -139 37 -162.333333333 37 -185 c 0
 37 -203 47.6666666667 -218.333333333 69 -231 c 256
 90.3333333333 -243.666666667 116.333333333 -250 147 -250 c 0
 199.666666667 -250 251.666666667 -232.666666667 303 -198 c 1
 303 -198 l 1
EndSplineSet
EndChar

StartChar: uni0B88
Encoding: 263 2952 8
Width: 671
GlyphClass: 2
Flags: HW
LayerCount: 2
Back
Fore
SplineSet
659 370 m 1
 452 370 l 1
 452 0 l 1
 322 0 l 1
 322 370 l 1
 80 370 l 1
 80 0 l 1
 45 0 l 1
 45 400 l 1
 659 400 l 1
 659 370 l 1
 659 370 l 1
278 199 m 1
 278 179.666666667 271 163 257 149 c 256
 243 135 226.333333333 128 207 128 c 256
 187.666666667 128 171.333333333 135 158 149 c 256
 144.666666667 163 138 179.666666667 138 199 c 256
 138 218.333333333 144.666666667 234.666666667 158 248 c 0
 171.333333333 262 187.666666667 269 207 269 c 256
 226.333333333 269 243 262 257 248 c 0
 271 234.666666667 278 218.333333333 278 199 c 1
 278 199 l 1
652 199 m 1
 652 179.666666667 645 163 631 149 c 0
 616.333333333 135 599 128 579 128 c 0
 560.333333333 128 544.666666667 135 532 149 c 0
 518.666666667 163 512 179.666666667 512 199 c 256
 512 218.333333333 518.666666667 234.666666667 532 248 c 0
 544.666666667 262 560.333333333 269 579 269 c 0
 599 269 616.333333333 262 631 248 c 0
 645 234.666666667 652 218.333333333 652 199 c 1
 652 199 l 1
EndSplineSet
EndChar

StartChar: uni0B89
Encoding: 264 2953 9
Width: 743
GlyphClass: 2
Flags: HW
LayerCount: 2
Back
Fore
SplineSet
740 0 m 1
 125 0 l 2
 95.6666666667 0 70.3333333333 6.33333333333 49 19 c 0
 28.3333333333 31 18 46 18 64 c 256
 18 82 27 97.6666666667 45 111 c 0
 63 123.666666667 85 130 111 130 c 2
 270 130 l 2
 296.666666667 130 319.666666667 142 339 166 c 0
 357.666666667 190 367 219 367 253 c 0
 367 285.666666667 357.333333333 313.666666667 338 337 c 0
 318 360.333333333 294.333333333 372 267 372 c 2
 222 372 l 1
 245.333333333 366 264.333333333 354.666666667 279 338 c 0
 293.666666667 322 301 304.333333333 301 285 c 0
 301 250.333333333 288.666666667 222.666666667 264 202 c 256
 239.333333333 181.333333333 206.333333333 171 165 171 c 0
 127.666666667 171 95.6666666667 182 69 204 c 0
 42.3333333333 226.666666667 29 253.666666667 29 285 c 0
 29 325 46.6666666667 355.333333333 82 376 c 256
 117.333333333 396.666666667 169.333333333 407 238 407 c 0
 316.666666667 407 379.333333333 393 426 365 c 0
 473.333333333 336.333333333 497 298.666666667 497 252 c 0
 497 204.666666667 477 166.666666667 437 138 c 0
 397.666666667 109.333333333 345 95 279 95 c 2
 189 95 l 2
 177.666666667 95 168 92 160 86 c 0
 152 79.3333333333 148 71.6666666667 148 63 c 0
 148 53.6666666667 152.333333333 46 161 40 c 0
 169.666666667 33.3333333333 180 30 192 30 c 2
 740 30 l 1
 740 0 l 1
 740 0 l 1
171 286 m 1
 171 305.333333333 165.666666667 321.666666667 155 335 c 0
 143.666666667 349 130.333333333 356 115 356 c 0
 101 356 89 349 79 335 c 0
 69 321.666666667 64 305.333333333 64 286 c 256
 64 266.666666667 69 250.333333333 79 237 c 0
 89 223 101 216 115 216 c 0
 130.333333333 216 143.666666667 223 155 237 c 0
 165.666666667 250.333333333 171 266.666666667 171 286 c 1
 171 286 l 1
EndSplineSet
EndChar

StartChar: uni0B8A
Encoding: 265 2954 10
Width: 1363
GlyphClass: 2
Flags: HW
LayerCount: 2
Back
Fore
SplineSet
1279 370 m 1
 1260 370 l 1
 1260 95 l 1
 1130 95 l 1
 1130 370 l 1
 1057 370 l 1
 1057 95 l 1
 927 95 l 1
 927 285 l 1
 905 311.666666667 879 332.666666667 849 348 c 0
 819 362.666666667 787.666666667 370 755 370 c 0
 708.333333333 370 668.333333333 355.666666667 635 327 c 0
 602.333333333 298.333333333 586 264 586 224 c 0
 586 205.333333333 590.333333333 187.333333333 599 170 c 0
 608.333333333 152.666666667 621 137.666666667 637 125 c 1
 629 135.666666667 622.666666667 146.333333333 618 157 c 0
 614 168.333333333 612 179.333333333 612 190 c 0
 612 226 624.333333333 254.666666667 649 276 c 256
 673.666666667 297.333333333 706.666666667 308 748 308 c 256
 789.333333333 308 822.333333333 297.333333333 847 276 c 256
 871.666666667 254.666666667 884 226.333333333 884 191 c 0
 884 155 871.333333333 126.333333333 846 105 c 0
 821.333333333 83.6666666667 788 73 746 73 c 0
 692 73 646 88 608 118 c 0
 570 148.666666667 551 185.333333333 551 228 c 0
 551 275.333333333 570.666666667 316 610 350 c 0
 650 383.333333333 698 400 754 400 c 0
 800.666666667 400 841.666666667 394.333333333 877 383 c 0
 913 371 940 354.666666667 958 334 c 1
 958 400 l 1
 1279 400 l 1
 1279 370 l 1
 1279 370 l 1
754 189 m 1
 754 209.666666667 748.666666667 227 738 241 c 0
 726.666666667 255.666666667 713.333333333 263 698 263 c 0
 684 263 672 255.666666667 662 241 c 256
 652 226.333333333 647 208.666666667 647 188 c 0
 647 168.666666667 652 152.333333333 662 139 c 0
 672 125 684 118 698 118 c 0
 713.333333333 118 726.666666667 125 738 139 c 0
 748.666666667 153 754 169.666666667 754 189 c 1
 754 189 l 1
1360 0 m 1
 110 0 l 2
 84.6666666667 0 63 6.33333333333 45 19 c 0
 27 31 18 46 18 64 c 256
 18 82 27 97.6666666667 45 111 c 0
 63 123.666666667 85 130 111 130 c 2
 270 130 l 2
 296.666666667 130 319.666666667 142 339 166 c 0
 357.666666667 190 367 219 367 253 c 0
 367 285.666666667 357.333333333 313.666666667 338 337 c 0
 318 360.333333333 294.333333333 372 267 372 c 2
 222 372 l 1
 245.333333333 366 264.333333333 354.666666667 279 338 c 0
 293.666666667 322 301 304.333333333 301 285 c 0
 301 250.333333333 288.666666667 222.666666667 264 202 c 256
 239.333333333 181.333333333 206.333333333 171 165 171 c 0
 127.666666667 171 95.6666666667 182 69 204 c 0
 42.3333333333 226.666666667 29 253.666666667 29 285 c 0
 29 325 46.6666666667 355.333333333 82 376 c 256
 117.333333333 396.666666667 169.333333333 407 238 407 c 0
 316.666666667 407 379.333333333 393 426 365 c 0
 473.333333333 336.333333333 497 298.666666667 497 252 c 0
 497 204.666666667 477 166.666666667 437 138 c 0
 397.666666667 109.333333333 345 95 279 95 c 2
 189 95 l 2
 177.666666667 95 168 92 160 86 c 0
 152 79.3333333333 148 71.6666666667 148 63 c 0
 148 53.6666666667 152.333333333 46 161 40 c 0
 169.666666667 33.3333333333 180 30 192 30 c 2
 1360 30 l 1
 1360 0 l 1
 1360 0 l 1
171 286 m 1
 171 305.333333333 165.666666667 321.666666667 155 335 c 0
 143.666666667 349 130.333333333 356 115 356 c 0
 101 356 89 349 79 335 c 0
 69 321.666666667 64 305.333333333 64 286 c 256
 64 266.666666667 69 250.333333333 79 237 c 0
 89 223 101 216 115 216 c 0
 130.333333333 216 143.666666667 223 155 237 c 0
 165.666666667 250.333333333 171 266.666666667 171 286 c 1
 171 286 l 1
EndSplineSet
EndChar

StartChar: uni0B8E
Encoding: 266 2958 11
Width: 726
GlyphClass: 2
Flags: HW
LayerCount: 2
Back
Fore
SplineSet
507 0 m 1
 507 370 l 1
 247 370 l 2
 193.666666667 370 148.333333333 351.333333333 111 314 c 0
 73 277.333333333 54 232.666666667 54 180 c 0
 54 152 59.3333333333 127 70 105 c 256
 80.6666666667 83 95 67.6666666667 113 59 c 1
 105.666666667 68.3333333333 100 78.3333333333 96 89 c 256
 92 99.6666666667 90 110 90 120 c 0
 90 158.666666667 105 191.666666667 135 219 c 0
 164.333333333 246.333333333 200 260 242 260 c 256
 284 260 319.666666667 247.333333333 349 222 c 0
 379 196.666666667 394 166 394 130 c 0
 394 91.3333333333 378.666666667 58.3333333333 348 31 c 0
 316.666666667 3.66666666667 279.333333333 -10 236 -10 c 0
 176 -10 125 9 83 47 c 0
 40.3333333333 84.3333333333 19 129.666666667 19 183 c 0
 19 243 41.3333333333 294 86 336 c 0
 130.666666667 378.666666667 184.333333333 400 247 400 c 2
 723 400 l 1
 723 370 l 1
 637 370 l 1
 637 0 l 1
 507 0 l 1
 507 0 l 1
264 119 m 1
 264 141.666666667 257 160.666666667 243 176 c 0
 229 192 212 200 192 200 c 0
 173.333333333 200 157.666666667 192 145 176 c 0
 131.666666667 159.333333333 125 139.666666667 125 117 c 0
 125 95 131.666666667 76 145 60 c 0
 157.666666667 44.6666666667 173.333333333 37 192 37 c 0
 212 37 229 45 243 61 c 256
 257 77 264 96.3333333333 264 119 c 1
 264 119 l 1
EndSplineSet
EndChar

StartChar: uni0B8F
Encoding: 267 2959 12
Width: 726
GlyphClass: 2
Flags: HW
LayerCount: 2
Back
Fore
SplineSet
262 -117 m 1
 509 -1 l 1
 509 370 l 1
 247 370 l 2
 193.666666667 370 148.333333333 351.333333333 111 314 c 0
 73 277.333333333 54 232.666666667 54 180 c 0
 54 152 59.3333333333 127 70 105 c 256
 80.6666666667 83 95.3333333333 67.6666666667 114 59 c 1
 106 69 100 79.3333333333 96 90 c 0
 92 100 90 110 90 120 c 0
 90 158.666666667 104.666666667 191.666666667 134 219 c 256
 163.333333333 246.333333333 199 260 241 260 c 256
 283 260 319 247 349 221 c 0
 379 195.666666667 394 164.666666667 394 128 c 0
 394 90 378.666666667 57.3333333333 348 30 c 0
 316.666666667 3.33333333333 279.333333333 -10 236 -10 c 0
 176 -10 125 9 83 47 c 0
 40.3333333333 84.3333333333 19 129.666666667 19 183 c 0
 19 243 41.3333333333 294 86 336 c 0
 130.666666667 378.666666667 184.333333333 400 247 400 c 2
 723 400 l 1
 723 370 l 1
 639 370 l 1
 639 0 l 1
 277 -141 l 1
 262 -117 l 1
 262 -117 l 1
264 119 m 1
 264 141.666666667 257 160.666666667 243 176 c 0
 229 192 212 200 192 200 c 0
 173.333333333 200 157.666666667 192 145 176 c 0
 131.666666667 159.333333333 125 139.666666667 125 117 c 0
 125 95 131.666666667 76 145 60 c 0
 157.666666667 44.6666666667 173.333333333 37 192 37 c 0
 212 37 229 45 243 61 c 256
 257 77 264 96.3333333333 264 119 c 1
 264 119 l 1
EndSplineSet
EndChar

StartChar: uni0B90
Encoding: 268 2960 13
Width: 759
GlyphClass: 2
Flags: HW
LayerCount: 2
Back
Fore
SplineSet
17 258 m 1
 17 300.666666667 35.6666666667 337.333333333 73 368 c 0
 110.333333333 398 155.666666667 413 209 413 c 0
 251.666666667 413 290.666666667 404.666666667 326 388 c 0
 361.333333333 372 388.333333333 349.333333333 407 320 c 1
 417.666666667 348 435 370.666666667 459 388 c 0
 483 404.666666667 509.333333333 413 538 413 c 0
 599.333333333 413 648.333333333 396 685 362 c 0
 721.666666667 328.666666667 740 284 740 228 c 0
 740 174 718.333333333 131 675 99 c 0
 632.333333333 66.3333333333 575 50 503 50 c 2
 257 50 l 2
 226.333333333 50 200.333333333 39.3333333333 179 18 c 256
 157.666666667 -3.33333333333 147 -29 147 -59 c 0
 147 -88.3333333333 156.333333333 -113.666666667 175 -135 c 0
 193.666666667 -155.666666667 216.333333333 -166 243 -166 c 0
 271 -166 295 -155.666666667 315 -135 c 256
 335 -114.333333333 345 -89.6666666667 345 -61 c 2
 345 2 l 1
 475 2 l 1
 475 -71 l 2
 475 -99.6666666667 484 -124.333333333 502 -145 c 256
 520 -165.666666667 541.666666667 -176 567 -176 c 0
 589.666666667 -176 609 -165.333333333 625 -144 c 256
 641 -122.666666667 649 -97 649 -67 c 2
 649 2 l 1
 684 2 l 1
 684 -67 l 2
 684 -113.666666667 669.666666667 -151 641 -179 c 256
 612.333333333 -207 574.333333333 -221 527 -221 c 0
 492.333333333 -221 460.666666667 -213.333333333 432 -198 c 0
 404 -182 383.666666667 -161 371 -135 c 1
 352.333333333 -161.666666667 327.666666667 -182.666666667 297 -198 c 0
 267 -213.333333333 234.333333333 -221 199 -221 c 0
 143 -221 98.3333333333 -206.333333333 65 -177 c 0
 31 -147.666666667 14 -108.333333333 14 -59 c 0
 14 -15.6666666667 31 19.3333333333 65 46 c 0
 99.6666666667 72 145.333333333 85 202 85 c 2
 504 85 l 2
 533.333333333 85 558.333333333 99.3333333333 579 128 c 256
 599.666666667 156.666666667 610 191 610 231 c 0
 610 271.666666667 602 306.333333333 586 335 c 0
 569.333333333 363.666666667 549.666666667 378 527 378 c 0
 512.333333333 378 500 367.333333333 490 346 c 0
 480 325.333333333 475 300 475 270 c 2
 475 138 l 1
 345 138 l 1
 345 259 l 2
 345 291.666666667 331 319.666666667 303 343 c 256
 275 366.333333333 241 378 201 378 c 0
 159.666666667 378 124.666666667 366.333333333 96 343 c 0
 66.6666666667 319 52 290.333333333 52 257 c 0
 52 235.666666667 57.3333333333 216.333333333 68 199 c 0
 78.6666666667 182.333333333 93 170.666666667 111 164 c 1
 101.666666667 173.333333333 94.6666666667 183.666666667 90 195 c 0
 84.6666666667 206.333333333 82 217.666666667 82 229 c 0
 82 257 92.3333333333 280.666666667 113 300 c 0
 134.333333333 320 159.666666667 330 189 330 c 0
 221.666666667 330 247.666666667 321 267 303 c 0
 286.333333333 284.333333333 296 260 296 230 c 0
 296 198.666666667 284 173.666666667 260 155 c 0
 235.333333333 136.333333333 203 127 163 127 c 256
 123 127 88.6666666667 139.666666667 60 165 c 0
 31.3333333333 191 17 222 17 258 c 1
 17 258 l 1
210 225 m 1
 210 244.333333333 205.333333333 260.666666667 196 274 c 0
 186 288 174.333333333 295 161 295 c 0
 149 295 138.666666667 288.666666667 130 276 c 0
 121.333333333 262.666666667 117 247 117 229 c 0
 117 210.333333333 121.333333333 194.666666667 130 182 c 0
 138.666666667 168.666666667 149 162 161 162 c 0
 174.333333333 162 186 168 196 180 c 0
 205.333333333 192.666666667 210 207.666666667 210 225 c 1
 210 225 l 1
EndSplineSet
EndChar

StartChar: uni0B92
Encoding: 269 2962 14
Width: 767
GlyphClass: 2
Flags: HW
LayerCount: 2
Back
Fore
SplineSet
20 156 m 1
 20 236 50 300 110 348 c 256
 170 396 250 420 350 420 c 0
 470.666666667 420 567 395.666666667 639 347 c 0
 711.666666667 299 748 234.666666667 748 154 c 0
 748 106.666666667 732.666666667 69 702 41 c 0
 672 12.3333333333 631.666666667 -2 581 -2 c 0
 543.666666667 -2 512 8.66666666667 486 30 c 0
 459.333333333 51.3333333333 446 77.3333333333 446 108 c 1
 451 131 l 1
 436.333333333 121 424.666666667 107.666666667 416 91 c 0
 408 75 404 58 404 40 c 0
 404 10 416.666666667 -15.6666666667 442 -37 c 0
 468 -58.3333333333 499 -69 535 -69 c 2
 644 -69 l 1
 644 -104 l 1
 489 -104 l 2
 475.666666667 -104 464 -111 454 -125 c 0
 444.666666667 -139 440 -156 440 -176 c 0
 440 -208 419.333333333 -233.666666667 378 -253 c 0
 336 -272.333333333 280.666666667 -282 212 -282 c 0
 164.666666667 -282 126.666666667 -271.666666667 98 -251 c 256
 69.3333333333 -230.333333333 55 -202.666666667 55 -168 c 0
 55 -154.666666667 59.6666666667 -141.333333333 69 -128 c 0
 78.3333333333 -114 91.3333333333 -102 108 -92 c 1
 125 -110 l 1
 113.666666667 -118.666666667 105 -128 99 -138 c 0
 93 -148.666666667 90 -159 90 -169 c 0
 90 -192.333333333 99.3333333333 -211.333333333 118 -226 c 0
 137.333333333 -240 162.666666667 -247 194 -247 c 0
 229.333333333 -247 257.333333333 -240.333333333 278 -227 c 0
 299.333333333 -213.666666667 310 -196 310 -174 c 0
 310 -148 323 -126 349 -108 c 0
 374.333333333 -89.3333333333 405.333333333 -80 442 -80 c 1
 420 -72.6666666667 402.333333333 -57.6666666667 389 -35 c 256
 375.666666667 -12.3333333333 369 13.6666666667 369 43 c 0
 369 79 381.666666667 109.666666667 407 135 c 256
 432.333333333 160.333333333 462.666666667 173 498 173 c 1
 492.666666667 167 488.333333333 158.333333333 485 147 c 0
 482.333333333 135.666666667 481 123 481 109 c 0
 481 89.6666666667 487.333333333 73.3333333333 500 60 c 0
 513.333333333 46.6666666667 529 40 547 40 c 0
 568.333333333 40 585.666666667 50.3333333333 599 71 c 0
 611.666666667 91.6666666667 618 119 618 153 c 0
 618 217 591.333333333 271.666666667 538 317 c 0
 484 362.333333333 419.333333333 385 344 385 c 0
 264 385 196 362.666666667 140 318 c 0
 83.3333333333 273.333333333 55 219.333333333 55 156 c 0
 55 126 61.6666666667 99.3333333333 75 76 c 0
 87.6666666667 52 105 36 127 28 c 1
 115 38.6666666667 106 50.6666666667 100 64 c 0
 93.3333333333 77.3333333333 90 91 90 105 c 0
 90 137.666666667 102.333333333 165.333333333 127 188 c 0
 151 211.333333333 180.333333333 223 215 223 c 0
 253 223 283.333333333 211.666666667 306 189 c 0
 328.666666667 167 340 137.333333333 340 100 c 0
 340 66.6666666667 328 40 304 20 c 256
 280 0 248 -10 208 -10 c 0
 151.333333333 -10 105.666666667 5 71 35 c 0
 37 65.6666666667 20 106 20 156 c 1
 20 156 l 1
243 104 m 1
 243 123.333333333 237.333333333 139.666666667 226 153 c 256
 214.666666667 166.333333333 201 173 185 173 c 0
 168.333333333 173 154.333333333 166.333333333 143 153 c 0
 131 140.333333333 125 124.666666667 125 106 c 0
 125 88 131 72.3333333333 143 59 c 0
 154.333333333 46.3333333333 168.333333333 40 185 40 c 0
 201 40 214.666666667 46.3333333333 226 59 c 0
 237.333333333 71 243 86 243 104 c 1
 243 104 l 1
EndSplineSet
EndChar

StartChar: uni0B93
Encoding: 270 2963 15
Width: 767
GlyphClass: 2
Flags: HW
LayerCount: 2
Back
Fore
SplineSet
20 156 m 1
 20 236 50 300 110 348 c 256
 170 396 250 420 350 420 c 0
 470.666666667 420 567 395.666666667 639 347 c 0
 711.666666667 299 748 234.666666667 748 154 c 0
 748 106.666666667 732.666666667 69 702 41 c 0
 672 12.3333333333 631.666666667 -2 581 -2 c 0
 543.666666667 -2 512 8.66666666667 486 30 c 0
 459.333333333 51.3333333333 446 77.3333333333 446 108 c 1
 451 131 l 1
 436.333333333 121 424.666666667 107.666666667 416 91 c 0
 408 75 404 58 404 40 c 0
 404 10 416.666666667 -15.6666666667 442 -37 c 0
 468 -58.3333333333 499 -69 535 -69 c 2
 644 -69 l 1
 644 -104 l 1
 534 -104 l 2
 510 -104 489.333333333 -111 472 -125 c 256
 454.666666667 -139 446 -156 446 -176 c 0
 446 -214 424.666666667 -244.666666667 382 -268 c 0
 340 -290.666666667 283.666666667 -302 213 -302 c 0
 165 -302 124.333333333 -289.333333333 91 -264 c 0
 57 -238.666666667 40 -208.333333333 40 -173 c 256
 40 -137.666666667 54.6666666667 -107.333333333 84 -82 c 256
 113.333333333 -56.6666666667 149 -44 191 -44 c 0
 220.333333333 -44 245.333333333 -53 266 -71 c 256
 286.666666667 -89 297 -111 297 -137 c 256
 297 -163 288.666666667 -185 272 -203 c 256
 255.333333333 -221 235 -230 211 -230 c 0
 185.666666667 -230 164.333333333 -223 147 -209 c 0
 129 -195 120 -178 120 -158 c 0
 120 -150 121.666666667 -142.333333333 125 -135 c 0
 127.666666667 -127 132 -120.333333333 138 -115 c 1
 122 -115 108.333333333 -120.666666667 97 -132 c 0
 85.6666666667 -144 80 -158 80 -174 c 0
 80 -202 92.3333333333 -224.666666667 117 -242 c 0
 141 -258.666666667 173.333333333 -267 214 -267 c 0
 243.333333333 -267 266.666666667 -258.666666667 284 -242 c 0
 301.333333333 -224.666666667 310 -202 310 -174 c 0
 310 -148 323 -126 349 -108 c 0
 374.333333333 -89.3333333333 405.333333333 -80 442 -80 c 1
 420 -72.6666666667 402.333333333 -58 389 -36 c 0
 375.666666667 -14.6666666667 369 10 369 38 c 0
 369 75.3333333333 381.666666667 107 407 133 c 0
 432.333333333 159.666666667 462.666666667 173 498 173 c 1
 492.666666667 167 488.333333333 158.333333333 485 147 c 0
 482.333333333 135.666666667 481 123 481 109 c 0
 481 89.6666666667 487.333333333 73 500 59 c 0
 513.333333333 45 529 38 547 38 c 0
 566.333333333 38 583 49.3333333333 597 72 c 0
 611 94 618 121 618 153 c 0
 618 223 593 279.333333333 543 322 c 0
 493 364 426.666666667 385 344 385 c 0
 256.666666667 385 186.666666667 364 134 322 c 0
 81.3333333333 280.666666667 55 225.333333333 55 156 c 0
 55 126 61.6666666667 99.3333333333 75 76 c 0
 87.6666666667 52 105 36 127 28 c 1
 115 38.6666666667 106 50.6666666667 100 64 c 0
 93.3333333333 77.3333333333 90 91 90 105 c 0
 90 137.666666667 102 165.333333333 126 188 c 0
 150.666666667 211.333333333 180 223 214 223 c 0
 252 223 282.666666667 211.666666667 306 189 c 0
 328.666666667 167 340 137.333333333 340 100 c 0
 340 66.6666666667 328 40 304 20 c 256
 280 0 248 -10 208 -10 c 0
 151.333333333 -10 105.666666667 5 71 35 c 0
 37 65.6666666667 20 106 20 156 c 1
 20 156 l 1
243 106 m 1
 243 124.666666667 237.333333333 140.333333333 226 153 c 0
 214.666666667 166.333333333 201 173 185 173 c 0
 168.333333333 173 154.333333333 166.333333333 143 153 c 0
 131 140.333333333 125 124.666666667 125 106 c 0
 125 88 131 72.3333333333 143 59 c 0
 154.333333333 46.3333333333 168.333333333 40 185 40 c 0
 201 40 214.666666667 46.3333333333 226 59 c 0
 237.333333333 72.3333333333 243 88 243 106 c 1
 243 106 l 1
251 -159 m 1
 251 -147.666666667 246.666666667 -137.666666667 238 -129 c 0
 229.333333333 -121 219 -117 207 -117 c 0
 194.333333333 -117 183.666666667 -121 175 -129 c 0
 166.333333333 -137.666666667 162 -147.666666667 162 -159 c 256
 162 -170.333333333 166.333333333 -180 175 -188 c 256
 183.666666667 -196 194.333333333 -200 207 -200 c 0
 219 -200 229.333333333 -196 238 -188 c 256
 246.666666667 -180 251 -170.333333333 251 -159 c 1
 251 -159 l 1
EndSplineSet
EndChar

StartChar: uni0B95
Encoding: 272 2965 17
Width: 619
GlyphClass: 2
Flags: HW
LayerCount: 2
Back
Fore
SplineSet
138 400 m 1
 522 400 l 1
 522 370 l 1
 399 370 l 1
 399 220 l 1
 480 220 l 2
 518 220 548.333333333 210.333333333 571 191 c 256
 593.666666667 171.666666667 605 146 605 114 c 0
 605 73.3333333333 589 44 557 26 c 0
 525 8.66666666667 472.333333333 0 399 0 c 1
 399 30 l 1
 427 30 446.666666667 36 458 48 c 0
 469.333333333 60.6666666667 475 82.3333333333 475 113 c 0
 475 137 470.333333333 155 461 167 c 256
 451.666666667 179 438 185 420 185 c 2
 399 185 l 1
 399 131 l 2
 399 87 379.333333333 54 340 32 c 0
 301.333333333 9.33333333333 243.666666667 -2 167 -2 c 0
 124.333333333 -2 88 11.3333333333 58 38 c 256
 28 64.6666666667 13 96.6666666667 13 134 c 0
 13 160 22 181 40 197 c 0
 58.6666666667 212.333333333 83 220 113 220 c 2
 138 220 l 1
 138 400 l 1
 138 400 l 1
283 220 m 1
 283 370 l 1
 173 370 l 1
 173 220 l 1
 283 220 l 1
 283 220 l 1
283 138 m 1
 283 185 l 1
 115 185 l 2
 95 185 78.6666666667 180.333333333 66 171 c 0
 54 162.333333333 48 150.333333333 48 135 c 0
 48 104.333333333 59 79.6666666667 81 61 c 256
 103 42.3333333333 132 33 168 33 c 0
 200 33 227 43.3333333333 249 64 c 0
 271.666666667 84.6666666667 283 109.333333333 283 138 c 1
 283 138 l 1
EndSplineSet
EndChar

StartChar: uni0B99
Encoding: 273 2969 18
Width: 790
GlyphClass: 2
Flags: HW
LayerCount: 2
Back
Fore
SplineSet
745 0 m 1
 218 0 l 1
 218 30 l 1
 384 30 l 1
 402.666666667 40 417.333333333 55.6666666667 428 77 c 0
 438.666666667 97.6666666667 444 121 444 147 c 256
 444 173 438 195 426 213 c 256
 414 231 399.666666667 240 383 240 c 0
 373.666666667 240 365.333333333 235.666666667 358 227 c 0
 351.333333333 219 348 209 348 197 c 2
 348 110 l 1
 218 110 l 1
 218 370 l 1
 80 370 l 1
 80 0 l 1
 45 0 l 1
 45 400 l 1
 509 400 l 1
 509 370 l 1
 348 370 l 1
 348 257 l 1
 376 275.666666667 407.333333333 285 442 285 c 0
 482 285 514 272.333333333 538 247 c 0
 562 222.333333333 574 189 574 147 c 0
 574 121.666666667 566.333333333 98.3333333333 551 77 c 256
 535.666666667 55.6666666667 515.333333333 40 490 30 c 1
 615 30 l 1
 615 400 l 1
 745 400 l 1
 745 0 l 1
 745 0 l 1
EndSplineSet
EndChar

StartChar: uni0B9A
Encoding: 274 2970 19
Width: 532
GlyphClass: 2
Flags: HW
LayerCount: 2
Back
Fore
SplineSet
524 185 m 1
 414 185 l 1
 414 137 l 2
 414 95 394 61.3333333333 354 36 c 0
 313.333333333 10.6666666667 259.666666667 -2 193 -2 c 0
 139 -2 95.6666666667 10.6666666667 63 36 c 256
 30.3333333333 61.3333333333 14 95 14 137 c 0
 14 162.333333333 23 182.333333333 41 197 c 0
 59.6666666667 212.333333333 84 220 114 220 c 2
 128 220 l 1
 128 400 l 1
 524 400 l 1
 524 370 l 1
 414 370 l 1
 414 220 l 1
 524 220 l 1
 524 185 l 1
 524 185 l 1
284 220 m 1
 284 370 l 1
 163 370 l 1
 163 220 l 1
 284 220 l 1
 284 220 l 1
284 137 m 1
 284 185 l 1
 116 185 l 2
 96 185 79.6666666667 180.666666667 67 172 c 0
 55 163.333333333 49 151.666666667 49 137 c 0
 49 105.666666667 62.3333333333 80.3333333333 89 61 c 0
 115 42.3333333333 150 33 194 33 c 0
 221.333333333 33 243 42.3333333333 259 61 c 0
 275.666666667 80.3333333333 284 105.666666667 284 137 c 1
 284 137 l 1
EndSplineSet
EndChar

StartChar: uni0B9C
Encoding: 275 2972 20
Width: 771
GlyphClass: 2
Flags: HW
LayerCount: 2
Back
Fore
SplineSet
751 233 m 1
 751 172.333333333 729.333333333 126.666666667 686 96 c 256
 642.666666667 65.3333333333 578.333333333 50 493 50 c 2
 237 50 l 2
 203.666666667 50 175.333333333 39 152 17 c 0
 128.666666667 -5.66666666667 117 -32.6666666667 117 -64 c 0
 117 -96.6666666667 125.666666667 -124.666666667 143 -148 c 0
 161 -171.333333333 182.333333333 -183 207 -183 c 0
 227 -183 250.333333333 -174.666666667 277 -158 c 0
 303.666666667 -142 331.666666667 -118.666666667 361 -88 c 0
 391 -57.3333333333 423.333333333 -33.3333333333 458 -16 c 0
 492.666666667 0.666666666667 526.666666667 9 560 9 c 0
 618 9 664.333333333 -2.33333333333 699 -25 c 0
 733.666666667 -47 751 -76.6666666667 751 -114 c 0
 751 -148.666666667 733.333333333 -176.333333333 698 -197 c 0
 663.333333333 -217.666666667 616.666666667 -228 558 -228 c 0
 532 -228 508 -224 486 -216 c 256
 464 -208 445.666666667 -196.333333333 431 -181 c 1
 446 -157 l 1
 460 -168.333333333 476.666666667 -177.333333333 496 -184 c 0
 515.333333333 -190 536 -193 558 -193 c 0
 575.333333333 -193 590.333333333 -185.333333333 603 -170 c 0
 615 -154 621 -135 621 -113 c 0
 621 -89 614 -68.3333333333 600 -51 c 0
 586 -34.3333333333 569 -26 549 -26 c 0
 502.333333333 -26 444.666666667 -58 376 -122 c 256
 307.333333333 -186 249.666666667 -218 203 -218 c 0
 144.333333333 -218 97 -204 61 -176 c 0
 25.6666666667 -148 8 -110.666666667 8 -64 c 0
 8 -22.6666666667 28 12.3333333333 68 41 c 0
 108 70.3333333333 156 85 212 85 c 2
 494 85 l 2
 529.333333333 85 559.333333333 99.3333333333 584 128 c 256
 608.666666667 156.666666667 621 191 621 231 c 0
 621 270.333333333 614 303.666666667 600 331 c 0
 585.333333333 359 568 373 548 373 c 0
 528.666666667 373 512 363 498 343 c 256
 484 323 477 299 477 271 c 2
 477 138 l 1
 347 138 l 1
 347 259 l 2
 347 290.333333333 331.666666667 317.333333333 301 340 c 0
 270.333333333 362 233.333333333 373 190 373 c 0
 152 373 119.333333333 361.666666667 92 339 c 0
 65.3333333333 316.333333333 52 289 52 257 c 0
 52 229.666666667 58.6666666667 206 72 186 c 0
 85.3333333333 166.666666667 101.666666667 156 121 154 c 1
 109.666666667 158 100.333333333 166.666666667 93 180 c 0
 85.6666666667 194 82 210.333333333 82 229 c 0
 82 259.666666667 91.6666666667 284 111 302 c 0
 130.333333333 320.666666667 156.333333333 330 189 330 c 256
 221.666666667 330 247.666666667 320.333333333 267 301 c 0
 286.333333333 282.333333333 296 257 296 225 c 0
 296 195.666666667 284.333333333 172 261 154 c 256
 237.666666667 136 206.666666667 127 168 127 c 0
 122 127 85.3333333333 139 58 163 c 256
 30.6666666667 187 17 218.666666667 17 258 c 0
 17 299.333333333 35.6666666667 334.666666667 73 364 c 256
 110.333333333 393.333333333 155.666666667 408 209 408 c 0
 253 408 292.666666667 400.333333333 328 385 c 0
 362.666666667 369 389 347.333333333 407 320 c 1
 417 346.666666667 436 368 464 384 c 256
 492 400 524 408 560 408 c 0
 623.333333333 408 671 393.333333333 703 364 c 256
 735 334.666666667 751 291 751 233 c 1
 751 233 l 1
210 225 m 1
 210 244.333333333 205.333333333 260.666666667 196 274 c 0
 186 288 174.333333333 295 161 295 c 0
 149 295 138.666666667 288.666666667 130 276 c 0
 121.333333333 262.666666667 117 247 117 229 c 0
 117 210.333333333 121.333333333 194.666666667 130 182 c 0
 138.666666667 168.666666667 149 162 161 162 c 0
 174.333333333 162 186 168 196 180 c 0
 205.333333333 192.666666667 210 207.666666667 210 225 c 1
 210 225 l 1
EndSplineSet
EndChar

StartChar: uni0B9E
Encoding: 276 2974 21
Width: 1016
GlyphClass: 2
Flags: HW
LayerCount: 2
Back
Fore
SplineSet
998 88 m 1
 998 -22 950.666666667 -107.333333333 856 -168 c 0
 760.666666667 -228.666666667 627.333333333 -259 456 -259 c 0
 331.333333333 -259 228 -222.666666667 146 -150 c 0
 64.6666666667 -77.3333333333 24 14.6666666667 24 126 c 0
 24 172 34.6666666667 218.333333333 56 265 c 0
 78 311.666666667 109 355 149 395 c 1
 169 373 l 1
 133.666666667 336.333333333 106.666666667 296.666666667 88 254 c 0
 68.6666666667 211.333333333 59 168.333333333 59 125 c 0
 59 24.3333333333 96.6666666667 -59 172 -125 c 0
 246.666666667 -191 341.333333333 -224 456 -224 c 0
 586 -224 687.333333333 -196.666666667 760 -142 c 0
 832 -86.6666666667 868 -9.66666666667 868 89 c 0
 868 120.333333333 859.333333333 147 842 169 c 256
 824.666666667 191 803.666666667 202 779 202 c 0
 768.333333333 202 759.333333333 197.333333333 752 188 c 256
 744.666666667 178.666666667 741 167.666666667 741 155 c 2
 741 0 l 1
 611 0 l 1
 611 370 l 1
 442 370 l 2
 376.666666667 370 320.666666667 352 274 316 c 0
 228 280 205 236.333333333 205 185 c 0
 205 153.666666667 210.333333333 126 221 102 c 0
 232.333333333 78 247.333333333 60.6666666667 266 50 c 1
 258.666666667 58 253.333333333 68 250 80 c 0
 246 92 244 105.333333333 244 120 c 0
 244 162.666666667 257.666666667 197 285 223 c 256
 312.333333333 249 348.666666667 262 394 262 c 256
 439.333333333 262 475.666666667 250 503 226 c 0
 530.333333333 201.333333333 544 169 544 129 c 256
 544 89 528 57 496 33 c 0
 464.666666667 9 422.666666667 -3 370 -3 c 0
 309.333333333 -3 261 14 225 48 c 0
 188.333333333 82 170 127.333333333 170 184 c 0
 170 246.666666667 196 298.333333333 248 339 c 0
 299.333333333 379.666666667 364.666666667 400 444 400 c 2
 837 400 l 1
 837 370 l 1
 741 370 l 1
 741 228 l 1
 765.666666667 244 793.333333333 252 824 252 c 0
 876.666666667 252 918.666666667 237 950 207 c 0
 982 177 998 137.333333333 998 88 c 1
 998 88 l 1
414 119 m 1
 414 142.333333333 407 162 393 178 c 0
 379.666666667 194.666666667 363.333333333 203 344 203 c 0
 326 203 310.666666667 194.666666667 298 178 c 256
 285.333333333 161.333333333 279 141 279 117 c 0
 279 93.6666666667 285.333333333 73.6666666667 298 57 c 256
 310.666666667 40.3333333333 326 32 344 32 c 0
 363.333333333 32 379.666666667 40.3333333333 393 57 c 0
 407 74.3333333333 414 95 414 119 c 1
 414 119 l 1
EndSplineSet
EndChar

StartChar: uni0B9F
Encoding: 277 2975 22
Width: 802
GlyphClass: 2
Flags: HW
LayerCount: 2
Back
Fore
SplineSet
799 0 m 1
 45 0 l 1
 45 400 l 1
 175 400 l 1
 175 30 l 1
 799 30 l 1
 799 0 l 1
 799 0 l 1
EndSplineSet
EndChar

StartChar: uni0BA3
Encoding: 278 2979 23
Width: 1229
GlyphClass: 2
Flags: HW
LayerCount: 2
Back
Fore
SplineSet
20 173 m 1
 20 243 46 299.333333333 98 342 c 0
 150 384 219.333333333 405 306 405 c 0
 360 405 406 401 444 393 c 0
 482 385.666666667 510 374.666666667 528 360 c 1
 546 374.666666667 566.333333333 385.666666667 589 393 c 0
 611.666666667 401 635.333333333 405 660 405 c 0
 696 405 729 401 759 393 c 0
 788.333333333 384.333333333 813 372.333333333 833 357 c 1
 872.333333333 385.666666667 914.666666667 400 960 400 c 2
 1226 400 l 1
 1226 370 l 1
 1144 370 l 1
 1144 0 l 1
 1014 0 l 1
 1014 370 l 1
 963 370 l 2
 929.666666667 370 899.666666667 360 873 340 c 1
 903.666666667 311.333333333 927.666666667 279.333333333 945 244 c 0
 961.666666667 208.666666667 970 173 970 137 c 0
 970 96.3333333333 956.333333333 61.3333333333 929 32 c 0
 902.333333333 3.33333333333 869.666666667 -11 831 -11 c 0
 793 -11 760.333333333 3.33333333333 733 32 c 0
 706.333333333 61.3333333333 693 96.3333333333 693 137 c 0
 693 170.333333333 699 202.666666667 711 234 c 0
 723 266 740 294.666666667 762 320 c 1
 748 336 731.333333333 348.333333333 712 357 c 0
 693.333333333 365.666666667 673.666666667 370 653 370 c 0
 638.333333333 370 623.333333333 367 608 361 c 256
 592.666666667 355 578 346.333333333 564 335 c 1
 596.666666667 306.333333333 622 275 640 241 c 0
 658 206.333333333 667 171.666666667 667 137 c 0
 667 96.3333333333 653 61.3333333333 625 32 c 0
 597 3.33333333333 563.333333333 -11 524 -11 c 256
 484.666666667 -11 451 3.33333333333 423 32 c 0
 395 61.3333333333 381 96.3333333333 381 137 c 0
 381 171.666666667 387 204.666666667 399 236 c 256
 411 267.333333333 428 294.333333333 450 317 c 1
 430.666666667 334.333333333 406.666666667 347.333333333 378 356 c 0
 350 365.333333333 319.333333333 370 286 370 c 0
 222 370 167.666666667 351 123 313 c 0
 77.6666666667 275 55 229 55 175 c 0
 55 141.666666667 61 112.333333333 73 87 c 0
 85 62.3333333333 101 46.3333333333 121 39 c 1
 112.333333333 48.3333333333 106 60 102 74 c 0
 97.3333333333 87.3333333333 95 102 95 118 c 0
 95 159.333333333 107.333333333 192.333333333 132 217 c 256
 156.666666667 241.666666667 189.333333333 254 230 254 c 0
 267.333333333 254 299.333333333 241 326 215 c 256
 352.666666667 189 366 157.333333333 366 120 c 0
 366 80.6666666667 350 49 318 25 c 0
 285.333333333 1 242.333333333 -11 189 -11 c 0
 142.333333333 -11 102.333333333 7 69 43 c 0
 36.3333333333 79 20 122.333333333 20 173 c 1
 20 173 l 1
840 137 m 1
 840 167 835 195 825 221 c 0
 815.666666667 247 802 269.333333333 784 288 c 1
 766 270 752.333333333 248 743 222 c 0
 733 196 728 167.666666667 728 137 c 0
 728 111 733.666666667 89 745 71 c 256
 756.333333333 53 770 44 786 44 c 0
 800.666666667 44 813.333333333 53 824 71 c 256
 834.666666667 89 840 111 840 137 c 1
 840 137 l 1
537 137 m 1
 537 165.666666667 531.666666667 193 521 219 c 0
 510.333333333 245.666666667 495.333333333 269 476 289 c 1
 456.666666667 268.333333333 442 245 432 219 c 0
 421.333333333 192.333333333 416 165 416 137 c 0
 416 111 422 89 434 71 c 0
 445.333333333 53 459.333333333 44 476 44 c 256
 492.666666667 44 507 53 519 71 c 256
 531 89 537 111 537 137 c 1
 537 137 l 1
236 118 m 1
 236 137.333333333 230.666666667 154 220 168 c 0
 208.666666667 182 195.333333333 189 180 189 c 0
 166 189 154.333333333 182 145 168 c 0
 135 154 130 137 130 117 c 256
 130 97 135 79.6666666667 145 65 c 0
 154.333333333 51 166 44 180 44 c 0
 195.333333333 44 208.666666667 51.3333333333 220 66 c 0
 230.666666667 80 236 97.3333333333 236 118 c 1
 236 118 l 1
EndSplineSet
EndChar

StartChar: uni0BA4
Encoding: 279 2980 24
Width: 638
GlyphClass: 2
Flags: HW
LayerCount: 2
Back
Fore
SplineSet
622 85 m 1
 622 29.6666666667 598.333333333 -14.6666666667 551 -48 c 256
 503.666666667 -81.3333333333 440.666666667 -98 362 -98 c 2
 111 -98 l 2
 89.6666666667 -98 71.3333333333 -102.666666667 56 -112 c 0
 40.6666666667 -122 33 -133.666666667 33 -147 c 1
 37.6666666667 -143 42.6666666667 -140 48 -138 c 256
 53.3333333333 -136 59 -135 65 -135 c 0
 81 -135 94.6666666667 -139.333333333 106 -148 c 0
 117.333333333 -156 123 -166 123 -178 c 256
 123 -190 116.333333333 -200.333333333 103 -209 c 256
 89.6666666667 -217.666666667 73.6666666667 -222 55 -222 c 0
 37.6666666667 -222 23 -216.666666667 11 -206 c 0
 -1 -196 -7 -183.666666667 -7 -169 c 0
 -7 -139.666666667 5 -114.666666667 29 -94 c 0
 52.3333333333 -73.3333333333 81 -63 115 -63 c 2
 341 -63 l 2
 383 -63 418.666666667 -48.3333333333 448 -19 c 256
 477.333333333 10.3333333333 492 46 492 88 c 0
 492 114.666666667 486.666666667 137.666666667 476 157 c 0
 465.333333333 175.666666667 452.666666667 185 438 185 c 2
 413 185 l 1
 413 131 l 2
 413 87 393.333333333 54 354 32 c 0
 315.333333333 9.33333333333 257.666666667 -2 181 -2 c 0
 134.333333333 -2 94.6666666667 11.3333333333 62 38 c 256
 29.3333333333 64.6666666667 13 96.6666666667 13 134 c 0
 13 160 22.3333333333 181 41 197 c 0
 60.3333333333 212.333333333 85.6666666667 220 117 220 c 2
 133 220 l 1
 133 400 l 1
 522 400 l 1
 522 370 l 1
 413 370 l 1
 413 220 l 1
 484 220 l 2
 522 220 554.666666667 206.666666667 582 180 c 0
 608.666666667 154 622 122.333333333 622 85 c 1
 622 85 l 1
283 220 m 1
 283 370 l 1
 168 370 l 1
 168 220 l 1
 283 220 l 1
 283 220 l 1
283 138 m 1
 283 185 l 1
 115 185 l 2
 96.3333333333 185 80.6666666667 180 68 170 c 0
 54.6666666667 160.666666667 48 149 48 135 c 0
 48 104.333333333 60.3333333333 79.6666666667 85 61 c 0
 109 42.3333333333 141.333333333 33 182 33 c 0
 210 33 233.666666667 43.3333333333 253 64 c 0
 273 84.6666666667 283 109.333333333 283 138 c 1
 283 138 l 1
EndSplineSet
EndChar

StartChar: uni0BA8
Encoding: 280 2984 25
Width: 614
GlyphClass: 2
Flags: HW
LayerCount: 2
Back
Fore
SplineSet
596 103 m 1
 596 39.6666666667 570 -9.66666666667 518 -45 c 0
 466.666666667 -80.3333333333 394.333333333 -98 301 -98 c 2
 124 -98 l 2
 103.333333333 -98 86 -102.333333333 72 -111 c 0
 57.3333333333 -119.666666667 50 -130 50 -142 c 1
 53.3333333333 -141.333333333 57.6666666667 -140 63 -138 c 0
 67.6666666667 -136 71 -135 73 -135 c 0
 89 -135 102.333333333 -139.333333333 113 -148 c 0
 124.333333333 -157.333333333 130 -168.333333333 130 -181 c 0
 130 -191.666666667 124 -201 112 -209 c 0
 99.3333333333 -216.333333333 84.3333333333 -220 67 -220 c 256
 49.6666666667 -220 35 -215 23 -205 c 256
 11 -195 5 -183 5 -169 c 0
 5 -139.666666667 17 -114.666666667 41 -94 c 256
 65 -73.3333333333 94 -63 128 -63 c 2
 304 -63 l 2
 360 -63 401 -49.3333333333 427 -22 c 0
 453 4.66666666667 466 47 466 105 c 0
 466 135.666666667 458.666666667 162 444 184 c 256
 429.333333333 206 411.666666667 217 391 217 c 0
 379.666666667 217 370.333333333 213.333333333 363 206 c 0
 355 198.666666667 351 189.666666667 351 179 c 2
 351 0 l 1
 221 0 l 1
 221 370 l 1
 80 370 l 1
 80 0 l 1
 45 0 l 1
 45 400 l 1
 512 400 l 1
 512 370 l 1
 351 370 l 1
 351 230 l 1
 375.666666667 248 405.333333333 257 440 257 c 0
 483.333333333 257 520 242 550 212 c 0
 580.666666667 182 596 145.666666667 596 103 c 1
 596 103 l 1
EndSplineSet
EndChar

StartChar: uni0BA9
Encoding: 281 2985 26
Width: 926
GlyphClass: 2
Flags: HW
LayerCount: 2
Back
Fore
SplineSet
922 367 m 1
 840 367 l 1
 840 0 l 1
 710 0 l 1
 710 367 l 1
 659 367 l 2
 639 367 621.333333333 364.666666667 606 360 c 0
 591.333333333 356 580.333333333 350 573 342 c 1
 601 318.666666667 622.666666667 289 638 253 c 256
 653.333333333 217 661 178.333333333 661 137 c 0
 661 94.3333333333 648.333333333 60 623 34 c 0
 598.333333333 8 565 -5 523 -5 c 256
 481 -5 447.666666667 8 423 34 c 0
 397.666666667 60 385 94.3333333333 385 137 c 0
 385 175.666666667 391 210.666666667 403 242 c 256
 415 273.333333333 431.666666667 298.333333333 453 317 c 1
 429 336.333333333 403 351.333333333 375 362 c 0
 347 372 318.333333333 377 289 377 c 0
 218.333333333 377 162 358.333333333 120 321 c 0
 77.3333333333 283.666666667 56 234 56 172 c 0
 56 138 63 108.333333333 77 83 c 256
 91 57.6666666667 109 41.6666666667 131 35 c 1
 120.333333333 42.3333333333 111.666666667 54 105 70 c 0
 99 86.6666666667 96 105.666666667 96 127 c 0
 96 165.666666667 108.333333333 196.333333333 133 219 c 0
 157.666666667 242.333333333 190.333333333 254 231 254 c 0
 272.333333333 254 305.333333333 242.333333333 330 219 c 256
 354.666666667 195.666666667 367 164.333333333 367 125 c 256
 367 85.6666666667 352.333333333 54.3333333333 323 31 c 0
 294.333333333 7 255.666666667 -5 207 -5 c 0
 151 -5 106 11 72 43 c 256
 38 75 21 117.333333333 21 170 c 0
 21 243.333333333 46.6666666667 302 98 346 c 0
 148.666666667 390 216.666666667 412 302 412 c 0
 355.333333333 412 402 407.333333333 442 398 c 256
 482 388.666666667 513.333333333 375.333333333 536 358 c 1
 547.333333333 371.333333333 564 381.666666667 586 389 c 0
 607.333333333 396.333333333 632 400 660 400 c 2
 922 400 l 1
 922 367 l 1
 922 367 l 1
531 137 m 1
 531 169.666666667 526 199.333333333 516 226 c 256
 506 252.666666667 491.666666667 273.666666667 473 289 c 1
 456.333333333 276.333333333 443.333333333 256.666666667 434 230 c 256
 424.666666667 203.333333333 420 172.333333333 420 137 c 0
 420 111 425.333333333 88.6666666667 436 70 c 0
 446 51.3333333333 458.333333333 42 473 42 c 0
 489 42 502.666666667 51.3333333333 514 70 c 256
 525.333333333 88.6666666667 531 111 531 137 c 1
 531 137 l 1
237 120 m 1
 237 142 231.666666667 160.666666667 221 176 c 0
 209.666666667 191.333333333 196.333333333 199 181 199 c 0
 167 199 155.333333333 191.333333333 146 176 c 0
 136 161.333333333 131 143.333333333 131 122 c 0
 131 100 136 81 146 65 c 0
 155.333333333 49.6666666667 167 42 181 42 c 0
 196.333333333 42 209.666666667 49.6666666667 221 65 c 0
 231.666666667 80.3333333333 237 98.6666666667 237 120 c 1
 237 120 l 1
EndSplineSet
EndChar

StartChar: uni0BAA
Encoding: 282 2986 27
Width: 692
GlyphClass: 2
Flags: HW
LayerCount: 2
Back
Fore
SplineSet
647 0 m 1
 45 0 l 1
 45 400 l 1
 175 400 l 1
 175 30 l 1
 517 30 l 1
 517 400 l 1
 647 400 l 1
 647 0 l 1
 647 0 l 1
EndSplineSet
EndChar

StartChar: uni0BAE
Encoding: 283 2990 28
Width: 667
GlyphClass: 2
Flags: HW
LayerCount: 2
Back
Fore
SplineSet
319 272 m 1
 319 309.333333333 333 341 361 367 c 256
 389 393 422.666666667 406 462 406 c 0
 516.666666667 406 560.666666667 385.333333333 594 344 c 0
 626.666666667 302 643 246.666666667 643 178 c 0
 643 124 632 81 610 49 c 0
 588 16.3333333333 558.666666667 0 522 0 c 2
 45 0 l 1
 45 400 l 1
 175 400 l 1
 175 30 l 1
 319 30 l 1
 319 272 l 1
 319 272 l 1
449 275 m 1
 449 30 l 1
 512 30 l 2
 541.333333333 30 564.666666667 43.6666666667 582 71 c 256
 599.333333333 98.3333333333 608 134.666666667 608 180 c 0
 608 234.666666667 598.666666667 278.666666667 580 312 c 0
 561.333333333 344.666666667 536.333333333 361 505 361 c 0
 489.666666667 361 476.333333333 352.666666667 465 336 c 0
 454.333333333 319.333333333 449 299 449 275 c 1
 449 275 l 1
EndSplineSet
EndChar

StartChar: uni0BAF
Encoding: 284 2991 29
Width: 712
GlyphClass: 2
Flags: HW
LayerCount: 2
Back
Fore
SplineSet
667 0 m 1
 247 0 l 1
 247 66 l 1
 241.666666667 44 230.333333333 26 213 12 c 256
 195.666666667 -2 176.333333333 -9 155 -9 c 0
 123 -9 96 3.33333333333 74 28 c 0
 51.3333333333 53.3333333333 40 83.6666666667 40 119 c 2
 40 400 l 1
 170 400 l 1
 170 113 l 2
 170 95.6666666667 172.666666667 81 178 69 c 256
 183.333333333 57 190 51 198 51 c 0
 206.666666667 51 214 57 220 69 c 256
 226 81 229 95.3333333333 229 112 c 2
 229 400 l 1
 359 400 l 1
 359 30 l 1
 537 30 l 1
 537 400 l 1
 667 400 l 1
 667 0 l 1
 667 0 l 1
EndSplineSet
EndChar

StartChar: uni0BB0
Encoding: 285 2992 30
Width: 454
GlyphClass: 2
Flags: HW
LayerCount: 2
Back
Fore
SplineSet
451 370 m 1
 354 370 l 1
 354 14 l 1
 58 -165 l 1
 42 -142 l 1
 224 0 l 1
 224 370 l 1
 80 370 l 1
 80 0 l 1
 45 0 l 1
 45 400 l 1
 451 400 l 1
 451 370 l 1
 451 370 l 1
EndSplineSet
EndChar

StartChar: uni0BB1
Encoding: 286 2993 31
Width: 647
GlyphClass: 2
Flags: HW
LayerCount: 2
Back
Fore
SplineSet
622 172 m 1
 622 97.3333333333 594.666666667 33.6666666667 540 -19 c 0
 484.666666667 -71.6666666667 418.333333333 -98 341 -98 c 2
 128 -98 l 2
 106.666666667 -98 88.3333333333 -102 73 -110 c 0
 57.6666666667 -118.666666667 48.3333333333 -129.333333333 45 -142 c 1
 73 -135 l 1
 87 -135 99 -139.333333333 109 -148 c 0
 119 -157.333333333 124 -168.333333333 124 -181 c 0
 124 -191.666666667 118.666666667 -201 108 -209 c 0
 98 -216.333333333 85.6666666667 -220 71 -220 c 0
 53.6666666667 -220 39 -215 27 -205 c 256
 15 -195 9 -183 9 -169 c 0
 9 -139.666666667 20.6666666667 -114.666666667 44 -94 c 0
 66.6666666667 -73.3333333333 94.3333333333 -63 127 -63 c 2
 337 -63 l 2
 379.666666667 -63 416.333333333 -40 447 6 c 0
 477 52 492 107.333333333 492 172 c 0
 492 228 483.666666667 275.666666667 467 315 c 256
 450.333333333 354.333333333 430.333333333 374 407 374 c 0
 387.666666667 374 371.333333333 363.333333333 358 342 c 0
 344.666666667 321.333333333 338 296 338 266 c 2
 338 0 l 1
 208 0 l 1
 208 305 l 2
 208 324.333333333 201.333333333 340.666666667 188 354 c 256
 174.666666667 367.333333333 158.333333333 374 139 374 c 0
 121.666666667 374 106.666666667 367 94 353 c 0
 82 339.666666667 76 323.333333333 76 304 c 2
 76 0 l 1
 41 0 l 1
 41 307 l 2
 41 335 52.3333333333 359 75 379 c 256
 97.6666666667 399 125 409 157 409 c 0
 190.333333333 409 220 402 246 388 c 0
 271.333333333 373.333333333 288.666666667 354.333333333 298 331 c 1
 308 354.333333333 323.333333333 373.333333333 344 388 c 0
 364 402 386 409 410 409 c 0
 482.666666667 409 536.333333333 390 571 352 c 0
 605 313.333333333 622 253.333333333 622 172 c 1
 622 172 l 1
EndSplineSet
EndChar

StartChar: uni0BB2
Encoding: 287 2994 32
Width: 746
GlyphClass: 2
Flags: HW
LayerCount: 2
Back
Fore
SplineSet
718 204 m 1
 718 135.333333333 703.666666667 83.6666666667 675 49 c 0
 646.333333333 13.6666666667 604 -4 548 -4 c 0
 500.666666667 -4 463 6.66666666667 435 28 c 0
 406.333333333 49.3333333333 392 78 392 114 c 2
 392 247 l 2
 392 283.666666667 380 313.333333333 356 336 c 0
 332 358 300.333333333 369 261 369 c 0
 203.666666667 369 155 350.666666667 115 314 c 0
 74.3333333333 277.333333333 54 233.333333333 54 182 c 0
 54 152 59.6666666667 124.666666667 71 100 c 0
 83 76 99 57.3333333333 119 44 c 1
 111 52 104.666666667 63 100 77 c 256
 95.3333333333 91 93 106.333333333 93 123 c 0
 93 160.333333333 106 192 132 218 c 0
 158 244.666666667 189.333333333 258 226 258 c 0
 266.666666667 258 299 245.333333333 323 220 c 0
 347.666666667 195.333333333 360 162 360 120 c 0
 360 82.6666666667 346.333333333 52.6666666667 319 30 c 256
 291.666666667 7.33333333333 255.333333333 -4 210 -4 c 0
 157.333333333 -4 112.333333333 14 75 50 c 256
 37.6666666667 86 19 129.333333333 19 180 c 0
 19 242 43 294.666666667 91 338 c 0
 139 382 197 404 265 404 c 0
 343 404 405.333333333 389.666666667 452 361 c 256
 498.666666667 332.333333333 522 294 522 246 c 2
 522 117 l 2
 522 94.3333333333 528.666666667 75.3333333333 542 60 c 0
 554.666666667 44 570.333333333 36 589 36 c 0
 617.666666667 36 640.333333333 51.3333333333 657 82 c 0
 674.333333333 112.666666667 683 153.333333333 683 204 c 0
 683 230.666666667 675.333333333 257.666666667 660 285 c 0
 645.333333333 312.333333333 624.333333333 337.333333333 597 360 c 0
 592.333333333 364 589 368.333333333 587 373 c 0
 584.333333333 377.666666667 583 382.333333333 583 387 c 0
 583 396.333333333 587 404.666666667 595 412 c 0
 602.333333333 418.666666667 611.666666667 422 623 422 c 0
 649 422 671.333333333 400.666666667 690 358 c 256
 708.666666667 315.333333333 718 264 718 204 c 1
 718 204 l 1
230 114 m 1
 230 137.333333333 224.666666667 157 214 173 c 0
 203.333333333 189.666666667 190.666666667 198 176 198 c 0
 162.666666667 198 151.333333333 189.666666667 142 173 c 0
 132.666666667 157 128 137.333333333 128 114 c 0
 128 91.3333333333 132.666666667 71.6666666667 142 55 c 0
 151.333333333 39 162.666666667 31 176 31 c 0
 190.666666667 31 203.333333333 39 214 55 c 0
 224.666666667 71.6666666667 230 91.3333333333 230 114 c 1
 230 114 l 1
EndSplineSet
EndChar

StartChar: uni0BB3
Encoding: 288 2995 33
Width: 917
GlyphClass: 2
Flags: HW
LayerCount: 2
Back
Fore
SplineSet
913 367 m 1
 844 367 l 1
 844 0 l 1
 714 0 l 1
 714 367 l 1
 582 367 l 1
 582 0 l 1
 452 0 l 1
 452 218 l 1
 436 262.666666667 410.666666667 298.666666667 376 326 c 256
 341.333333333 353.333333333 304 367 264 367 c 0
 206 367 156.666666667 350.333333333 116 317 c 0
 74.6666666667 283 54 242.333333333 54 195 c 0
 54 157 61.3333333333 124 76 96 c 0
 90.6666666667 67.3333333333 110 49 134 41 c 1
 125.333333333 50.3333333333 118.666666667 62.3333333333 114 77 c 0
 109.333333333 92.3333333333 107 109 107 127 c 0
 107 167 119.333333333 199.333333333 144 224 c 0
 168.666666667 248 201.666666667 260 243 260 c 256
 284.333333333 260 317.333333333 247.333333333 342 222 c 0
 366.666666667 197.333333333 379 164 379 122 c 0
 379 84.6666666667 363 55 331 33 c 0
 299.666666667 10.3333333333 257.666666667 -1 205 -1 c 0
 153.666666667 -1 109.666666667 18 73 56 c 0
 37 94 19 139.666666667 19 193 c 0
 19 251 43 300.333333333 91 341 c 256
 139 381.666666667 196.666666667 402 264 402 c 0
 306.666666667 402 346.666666667 394 384 378 c 0
 420.666666667 361.333333333 451 338.333333333 475 309 c 1
 475 400 l 1
 913 400 l 1
 913 367 l 1
 913 367 l 1
249 119 m 1
 249 139.666666667 243.666666667 157.666666667 233 173 c 0
 221.666666667 187.666666667 208.333333333 195 193 195 c 0
 179 195 167 187.333333333 157 172 c 0
 147 157.333333333 142 139.333333333 142 118 c 0
 142 94.6666666667 147 75 157 59 c 0
 167 42.3333333333 179 34 193 34 c 0
 208.333333333 34 221.666666667 42.3333333333 233 59 c 0
 243.666666667 75.6666666667 249 95.6666666667 249 119 c 1
 249 119 l 1
EndSplineSet
EndChar

StartChar: uni0BB4
Encoding: 289 2996 34
Width: 667
GlyphClass: 2
Flags: HW
LayerCount: 2
Back
Fore
SplineSet
45 0 m 1
 45 400 l 1
 175 400 l 1
 175 30 l 1
 319 30 l 1
 319 267 l 2
 319 307 335 341 367 369 c 0
 398.333333333 397 436.666666667 411 482 411 c 0
 526.666666667 411 564.666666667 389.666666667 596 347 c 256
 627.333333333 304.333333333 643 253 643 193 c 0
 643 134.333333333 632 87.6666666667 610 53 c 0
 587.333333333 17.6666666667 557.666666667 0 521 0 c 2
 448 0 l 1
 448 -17.3333333333 454 -32.3333333333 466 -45 c 0
 477.333333333 -57 491.333333333 -63 508 -63 c 2
 616 -63 l 1
 616 -98 l 1
 508 -98 l 2
 477.333333333 -98 451 -106.333333333 429 -123 c 0
 407 -140.333333333 396 -161 396 -185 c 0
 396 -211 375 -233.333333333 333 -252 c 256
 291 -270.666666667 240.333333333 -280 181 -280 c 0
 133.666666667 -280 95.6666666667 -270.333333333 67 -251 c 256
 38.3333333333 -231.666666667 24 -205.666666667 24 -173 c 0
 24 -142.333333333 37.3333333333 -116.333333333 64 -95 c 0
 90 -73.6666666667 121.666666667 -63 159 -63 c 0
 185 -63 207 -68.6666666667 225 -80 c 256
 243 -91.3333333333 252 -105 252 -121 c 0
 252 -132.333333333 244 -142.333333333 228 -151 c 0
 212 -159 192.666666667 -163 170 -163 c 0
 156.666666667 -163 145.333333333 -159.333333333 136 -152 c 256
 126.666666667 -144.666666667 122 -136 122 -126 c 0
 120.666666667 -120 121 -114.333333333 123 -109 c 0
 124.333333333 -104.333333333 127 -100.666666667 131 -98 c 1
 111 -98 94 -105.333333333 80 -120 c 0
 66 -135.333333333 59 -153.333333333 59 -174 c 0
 59 -193.333333333 70.6666666667 -210 94 -224 c 0
 118 -238 146.666666667 -245 180 -245 c 0
 204 -245 224.333333333 -236.666666667 241 -220 c 256
 257.666666667 -203.333333333 266 -183.333333333 266 -160 c 0
 266 -133.333333333 275.333333333 -110.333333333 294 -91 c 0
 312.666666667 -72.3333333333 335.333333333 -63 362 -63 c 1
 349.333333333 -61 339.333333333 -54.3333333333 332 -43 c 0
 323.333333333 -31 319 -16.6666666667 319 0 c 1
 45 0 l 1
449 30 m 1
 522 30 l 2
 546 30 566.333333333 46 583 78 c 0
 599.666666667 110.666666667 608 149.666666667 608 195 c 0
 608 243 597.333333333 284.333333333 576 319 c 0
 555.333333333 353 530 370 500 370 c 0
 486 370 474 360.333333333 464 341 c 256
 454 321.666666667 449 298.333333333 449 271 c 2
 449 30 l 1
EndSplineSet
EndChar

StartChar: uni0BB5
Encoding: 290 2997 35
Width: 819
GlyphClass: 2
Flags: HW
LayerCount: 2
Back
Fore
SplineSet
774 0 m 1
 343 0 l 1
 343 27 l 1
 369.666666667 39.6666666667 390.666666667 61.3333333333 406 92 c 0
 422 122.666666667 430 157.333333333 430 196 c 0
 430 246 411.666666667 288.333333333 375 323 c 0
 338.333333333 358.333333333 294.333333333 376 243 376 c 256
 191.666666667 376 147.666666667 357 111 319 c 256
 74.3333333333 281 56 235.333333333 56 182 c 0
 56 152 61.6666666667 124.666666667 73 100 c 0
 85 76 101 57.3333333333 121 44 c 1
 112.333333333 54 106 65.6666666667 102 79 c 0
 97.3333333333 93 95 107.666666667 95 123 c 0
 95 163.666666667 107.333333333 196.333333333 132 221 c 0
 156 245.666666667 188.333333333 258 229 258 c 256
 269.666666667 258 302 245.666666667 326 221 c 0
 350.666666667 196.333333333 363 163.333333333 363 122 c 0
 363 85.3333333333 348 56 318 34 c 0
 287.333333333 12 247 1 197 1 c 0
 143.666666667 1 101 17.3333333333 69 50 c 0
 37 83.3333333333 21 127.333333333 21 182 c 0
 21 254 45.3333333333 312 94 356 c 0
 143.333333333 399.333333333 208.666666667 421 290 421 c 0
 372 421 437.333333333 400.666666667 486 360 c 0
 535.333333333 319.333333333 560 265.333333333 560 198 c 0
 560 160 554.333333333 126.333333333 543 97 c 0
 531.666666667 67 515.666666667 44.6666666667 495 30 c 1
 644 30 l 1
 644 400 l 1
 774 400 l 1
 774 0 l 1
 774 0 l 1
233 119 m 1
 233 141 227.666666667 159.666666667 217 175 c 256
 206.333333333 190.333333333 193.666666667 198 179 198 c 0
 165.666666667 198 154 190.333333333 144 175 c 0
 134.666666667 159.666666667 130 141.333333333 130 120 c 0
 130 96.6666666667 134.666666667 77 144 61 c 0
 154 44.3333333333 165.666666667 36 179 36 c 0
 193.666666667 36 206.333333333 44 217 60 c 0
 227.666666667 76.6666666667 233 96.3333333333 233 119 c 1
 233 119 l 1
EndSplineSet
EndChar

StartChar: uni0BB7
Encoding: 291 2999 36
Width: 1060
GlyphClass: 2
Flags: HW
LayerCount: 2
Back
Fore
SplineSet
1026 0 m 1
 837 0 l 1
 837 -242 l 1
 707 -242 l 1
 707 0 l 1
 347 0 l 1
 347 30 l 1
 373.666666667 44.6666666667 395 67 411 97 c 0
 426.333333333 126.333333333 434 159.333333333 434 196 c 0
 434 248.666666667 416.666666667 290.666666667 382 322 c 0
 347.333333333 354 301.333333333 370 244 370 c 256
 186.666666667 370 141 353 107 319 c 0
 72.3333333333 284.333333333 55 238.666666667 55 182 c 0
 55 153.333333333 61.3333333333 126.666666667 74 102 c 0
 86 77.3333333333 103 58 125 44 c 1
 116.333333333 54 110 65.3333333333 106 78 c 0
 101.333333333 90.6666666667 99 104 99 118 c 0
 99 156 111.333333333 186.333333333 136 209 c 0
 160 231.666666667 192.333333333 243 233 243 c 256
 273.666666667 243 306 232 330 210 c 0
 354.666666667 188 367 158.666666667 367 122 c 256
 367 85.3333333333 352.333333333 55.6666666667 323 33 c 0
 293.666666667 11 254.666666667 0 206 0 c 0
 154.666666667 0 110.666666667 18 74 54 c 0
 38 90 20 133.666666667 20 185 c 0
 20 254.333333333 44.6666666667 310 94 352 c 0
 144 394 210 415 292 415 c 256
 374 415 440 395 490 355 c 0
 539.333333333 315 564 261.666666667 564 195 c 0
 564 159.666666667 557.666666667 127.666666667 545 99 c 0
 531.666666667 69.6666666667 513.666666667 46.6666666667 491 30 c 1
 707 30 l 1
 707 164 l 1
 670.333333333 164 639 175.333333333 613 198 c 0
 587 221.333333333 574 249 574 281 c 0
 574 317 585.333333333 345.666666667 608 367 c 0
 631.333333333 389 662 400 700 400 c 256
 738 400 770.333333333 390.666666667 797 372 c 256
 823.666666667 353.333333333 837 330.666666667 837 304 c 2
 837 193 l 1
 859 193 881.333333333 203 904 223 c 0
 927.333333333 243 947.666666667 270 965 304 c 1
 1026 304 l 1
 1026 0 l 1
 1026 0 l 1
707 192 m 1
 707 302 l 2
 707 316.666666667 702.666666667 329 694 339 c 0
 686 349 676 354 664 354 c 0
 648.666666667 354 635.666666667 347 625 333 c 0
 614.333333333 318.333333333 609 301 609 281 c 0
 609 256.333333333 618.666666667 235.333333333 638 218 c 0
 656.666666667 200.666666667 679.666666667 192 707 192 c 1
 707 192 l 1
237 119 m 1
 237 139 231.666666667 156.333333333 221 171 c 0
 210.333333333 185 197.666666667 192 183 192 c 0
 169.666666667 192 158 185 148 171 c 0
 138.666666667 157 134 140 134 120 c 0
 134 99.3333333333 138.666666667 82 148 68 c 0
 158 53.3333333333 169.666666667 46 183 46 c 0
 197.666666667 46 210.333333333 53 221 67 c 0
 231.666666667 81.6666666667 237 99 237 119 c 1
 237 119 l 1
896 30 m 1
 896 179 l 1
 889.333333333 174.333333333 880.666666667 170.666666667 870 168 c 0
 860 165.333333333 849 164 837 164 c 1
 837 30 l 1
 896 30 l 1
 896 30 l 1
EndSplineSet
EndChar

StartChar: uni0BB8
Encoding: 292 3000 37
Width: 1049
GlyphClass: 2
Flags: HW
LayerCount: 2
Back
Fore
SplineSet
20 188 m 1
 20 255.333333333 42.6666666667 309.333333333 88 350 c 0
 134 390.666666667 194.666666667 411 270 411 c 0
 329.333333333 411 381 401.333333333 425 382 c 0
 469.666666667 363.333333333 500.333333333 337.666666667 517 305 c 1
 525.666666667 336.333333333 543.666666667 361.666666667 571 381 c 0
 598.333333333 401 629.333333333 411 664 411 c 0
 710.666666667 411 750.333333333 396 783 366 c 0
 815.666666667 335.333333333 832 298.666666667 832 256 c 2
 832 117 l 2
 832 95.6666666667 837.333333333 77.3333333333 848 62 c 256
 858.666666667 46.6666666667 871.666666667 39 887 39 c 0
 917 39 941.333333333 54 960 84 c 0
 978 114 987 154 987 204 c 0
 987 234 978.333333333 262 961 288 c 0
 947.666666667 308.666666667 927.333333333 332.666666667 900 360 c 0
 897.333333333 362.666666667 895.333333333 366 894 370 c 0
 892.666666667 373.333333333 892 377.333333333 892 382 c 0
 892 393.333333333 895.333333333 402.666666667 902 410 c 0
 909.333333333 418 917.666666667 422 927 422 c 0
 953 422 975.333333333 400.666666667 994 358 c 256
 1012.66666667 315.333333333 1022 264 1022 204 c 0
 1022 138.666666667 1007 86.6666666667 977 48 c 0
 947 8.66666666667 907 -11 857 -11 c 0
 810.333333333 -11 772.666666667 0.333333333333 744 23 c 0
 716 45.6666666667 702 76 702 114 c 2
 702 257 l 2
 702 289.666666667 695.333333333 317.666666667 682 341 c 256
 668.666666667 364.333333333 652.666666667 376 634 376 c 0
 613.333333333 376 595.333333333 365.666666667 580 345 c 0
 565.333333333 323.666666667 558 298.333333333 558 269 c 2
 558 0 l 1
 428 0 l 1
 428 235 l 2
 428 273.666666667 412.333333333 307 381 335 c 0
 350.333333333 362.333333333 313 376 269 376 c 0
 204.333333333 376 152.333333333 359 113 325 c 0
 74.3333333333 291 55 246 55 190 c 0
 55 153.333333333 62 121.333333333 76 94 c 0
 89.3333333333 66.6666666667 107.333333333 49 130 41 c 1
 120.666666667 51.6666666667 113.666666667 64 109 78 c 256
 104.333333333 92 102 107.333333333 102 124 c 0
 102 163.333333333 114.666666667 195 140 219 c 256
 165.333333333 243 199 255 241 255 c 256
 283 255 316.666666667 243 342 219 c 0
 367.333333333 194.333333333 380 162 380 122 c 0
 380 85.3333333333 364.333333333 54 333 28 c 0
 302.333333333 2 265 -11 221 -11 c 0
 165.666666667 -11 118.333333333 8.33333333333 79 47 c 0
 39.6666666667 86.3333333333 20 133.333333333 20 188 c 1
 20 188 l 1
250 119 m 1
 250 139.666666667 244.333333333 157.666666667 233 173 c 0
 221 187.666666667 207 195 191 195 c 0
 176.333333333 195 163.666666667 188 153 174 c 0
 142.333333333 159.333333333 137 142 137 122 c 0
 137 100.666666667 142.333333333 82.3333333333 153 67 c 256
 163.666666667 51.6666666667 176.333333333 44 191 44 c 0
 207 44 221 51.3333333333 233 66 c 0
 244.333333333 80.6666666667 250 98.3333333333 250 119 c 1
 250 119 l 1
EndSplineSet
EndChar

StartChar: uni0BB9
Encoding: 293 3001 38
Width: 1230
GlyphClass: 2
Flags: HW
LayerCount: 2
Back
Fore
SplineSet
1203 172 m 1
 1203 79.3333333333 1179 11 1131 -33 c 0
 1083 -76.3333333333 1008 -98 906 -98 c 2
 139 -98 l 2
 115.666666667 -98 96 -102.333333333 80 -111 c 0
 63.3333333333 -120.333333333 55 -131.333333333 55 -144 c 1
 88 -135 l 1
 99.3333333333 -135 109.333333333 -139.333333333 118 -148 c 0
 126 -157.333333333 130 -168.333333333 130 -181 c 0
 130 -191.666666667 125.333333333 -201 116 -209 c 0
 106.666666667 -216.333333333 95.3333333333 -220 82 -220 c 0
 64.6666666667 -220 50 -214.666666667 38 -204 c 0
 26 -192.666666667 20 -179.333333333 20 -164 c 0
 20 -136 31.6666666667 -112.333333333 55 -93 c 0
 77.6666666667 -73 105.333333333 -63 138 -63 c 2
 906 -63 l 2
 952 -63 991.333333333 -40.3333333333 1024 5 c 256
 1056.66666667 50.3333333333 1073 105.333333333 1073 170 c 0
 1073 230.666666667 1065.33333333 279 1050 315 c 0
 1034 351.666666667 1013 370 987 370 c 0
 970.333333333 370 956 362.666666667 944 348 c 0
 932 332.666666667 926 314.666666667 926 294 c 2
 926 0 l 1
 796 0 l 1
 796 295 l 2
 796 315.666666667 790.333333333 333.333333333 779 348 c 0
 767 362.666666667 753 370 737 370 c 0
 722.333333333 370 710 362.666666667 700 348 c 0
 689.333333333 332.666666667 684 314.666666667 684 294 c 2
 684 0 l 1
 343 0 l 1
 343 30 l 1
 369.666666667 44.6666666667 391 66.6666666667 407 96 c 0
 422.333333333 124.666666667 430 156.333333333 430 191 c 0
 430 245 413 288.333333333 379 321 c 0
 344.333333333 353.666666667 298.666666667 370 242 370 c 256
 185.333333333 370 140 352.333333333 106 317 c 0
 72 282.333333333 55 235.666666667 55 177 c 0
 55 149 61 123 73 99 c 0
 84.3333333333 75.6666666667 100.333333333 57.3333333333 121 44 c 1
 113 52 106.666666667 63 102 77 c 0
 97.3333333333 90.3333333333 95 105.333333333 95 122 c 0
 95 160 107.333333333 190.666666667 132 214 c 0
 156 236.666666667 188.333333333 248 229 248 c 256
 269.666666667 248 302 236.666666667 326 214 c 0
 350.666666667 190.666666667 363 160 363 122 c 0
 363 85.3333333333 348.666666667 55.6666666667 320 33 c 0
 292 11 254.333333333 0 207 0 c 0
 155.666666667 0 111.666666667 17.6666666667 75 53 c 0
 38.3333333333 87.6666666667 20 130 20 180 c 0
 20 252.666666667 44.6666666667 310.666666667 94 354 c 0
 142.666666667 398 208 420 290 420 c 256
 372 420 437.333333333 399 486 357 c 0
 535.333333333 315 560 259.333333333 560 190 c 0
 560 154 554.333333333 122 543 94 c 0
 532.333333333 66 517 44.6666666667 497 30 c 1
 649 30 l 1
 649 292 l 2
 649 324.666666667 659.666666667 351 681 371 c 0
 702.333333333 390.333333333 730.666666667 400 766 400 c 0
 794.666666667 400 820 393.666666667 842 381 c 256
 864 368.333333333 878.666666667 351.666666667 886 331 c 1
 893.333333333 351.666666667 908.333333333 368.333333333 931 381 c 256
 953.666666667 393.666666667 980 400 1010 400 c 0
 1074 400 1122 380.666666667 1154 342 c 0
 1186.66666667 304 1203 247.333333333 1203 172 c 1
 1203 172 l 1
233 122 m 1
 233 140 227.666666667 155.666666667 217 169 c 0
 206.333333333 181.666666667 193.666666667 188 179 188 c 0
 165.666666667 188 154 181.666666667 144 169 c 0
 134.666666667 155.666666667 130 140 130 122 c 0
 130 101.333333333 134.666666667 83.3333333333 144 68 c 0
 154 53.3333333333 165.666666667 46 179 46 c 0
 193.666666667 46 206.333333333 53.3333333333 217 68 c 0
 227.666666667 83.3333333333 233 101.333333333 233 122 c 1
 233 122 l 1
EndSplineSet
EndChar

StartChar: uni0BBE
Encoding: 294 3006 39
Width: 454
GlyphClass: 2
Flags: HW
LayerCount: 2
Back
Fore
SplineSet
451 370 m 1
 354 370 l 1
 354 0 l 1
 224 0 l 1
 224 370 l 1
 80 370 l 1
 80 0 l 1
 45 0 l 1
 45 400 l 1
 451 400 l 1
 451 370 l 1
 451 370 l 1
EndSplineSet
EndChar

StartChar: uni0BBF
Encoding: 295 3007 40
Width: 390
GlyphClass: 2
Flags: HW
LayerCount: 2
Back
Fore
SplineSet
81 400 m 1
 57 440 45 475 45 505 c 0
 45 547.666666667 59.6666666667 584.333333333 89 615 c 0
 118.333333333 645 153.666666667 660 195 660 c 256
 236.333333333 660 271.666666667 642.666666667 301 608 c 0
 330.333333333 574 345 532.666666667 345 484 c 2
 345 0 l 1
 310 0 l 1
 310 482 l 2
 310 512 297.666666667 537.666666667 273 559 c 0
 249 580.333333333 219.666666667 591 185 591 c 0
 156.333333333 591 131.666666667 580.666666667 111 560 c 256
 90.3333333333 539.333333333 80 514.666666667 80 486 c 0
 80 471.333333333 83.3333333333 456.666666667 90 442 c 0
 97.3333333333 426.666666667 107.333333333 412.666666667 120 400 c 1
 81 400 l 1
 81 400 l 1
EndSplineSet
EndChar

StartChar: uni0BC0
Encoding: 296 3008 41
Width: 495
GlyphClass: 2
Flags: HW
LayerCount: 2
Back
Fore
SplineSet
320 535 m 1
 320 551.666666667 315.666666667 565.666666667 307 577 c 0
 297.666666667 589 286.666666667 595 274 595 c 256
 261.333333333 595 250.333333333 589.333333333 241 578 c 0
 232.333333333 566 228 552 228 536 c 0
 228 519.333333333 232.333333333 505.333333333 241 494 c 0
 250.333333333 482 261.333333333 476 274 476 c 256
 286.666666667 476 297.666666667 481.666666667 307 493 c 0
 315.666666667 505 320 519 320 535 c 1
 320 535 l 1
45 489 m 1
 45 534.333333333 64.6666666667 573.333333333 104 606 c 0
 142.666666667 638 189.666666667 654 245 654 c 0
 307 654 356.666666667 643 394 621 c 0
 431.333333333 599.666666667 450 571 450 535 c 0
 450 500.333333333 438.333333333 472.666666667 415 452 c 256
 391.666666667 431.333333333 360.333333333 421 321 421 c 0
 282.333333333 421 251.333333333 431.333333333 228 452 c 256
 204.666666667 472.666666667 193 500.333333333 193 535 c 0
 193 549.666666667 195.666666667 563.666666667 201 577 c 256
 206.333333333 590.333333333 213.666666667 601.333333333 223 610 c 1
 183.666666667 610 150 598.666666667 122 576 c 0
 94 552.666666667 80 525 80 493 c 0
 80 477 84 461 92 445 c 0
 100.666666667 428.333333333 112.333333333 413.333333333 127 400 c 1
 82 400 l 1
 70 417.333333333 60.6666666667 433.666666667 54 449 c 0
 48 463.666666667 45 477 45 489 c 1
 45 489 l 1
EndSplineSet
EndChar

StartChar: uni0BC1
Encoding: 297 3009 42
Width: 356
GlyphClass: 4
Flags: HW
LayerCount: 2
Back
Fore
SplineSet
-87 370 m 1
 -87 400 l 1
 340 400 l 1
 340 320 l 2
 340 288.666666667 326.666666667 261.666666667 300 239 c 0
 273.333333333 217 241 206 203 206 c 0
 165.666666667 206 133.666666667 217 107 239 c 0
 80.3333333333 261.666666667 67 288.666666667 67 320 c 2
 67 370 l 1
 -87 370 l 1
 -87 370 l 1
210 321 m 1
 210 370 l 1
 102 370 l 1
 102 320 l 2
 102 302 107.333333333 287 118 275 c 0
 128.666666667 262.333333333 141.333333333 256 156 256 c 256
 170.666666667 256 183.333333333 262.333333333 194 275 c 256
 204.666666667 287.666666667 210 303 210 321 c 1
 210 321 l 1
EndSplineSet
Substitution2: "Single Substitution lookup 7 subtable" uni0BC1.abvs
EndChar

StartChar: uni0BC2
Encoding: 298 3010 43
Width: 621
GlyphClass: 4
Flags: HW
LayerCount: 2
Back
Fore
SplineSet
598 289 m 1
 598 206.333333333 570.666666667 144 516 102 c 256
 461.333333333 60 380.666666667 39 274 39 c 0
 208 39 155 58.6666666667 115 98 c 256
 75 137.333333333 55 189.666666667 55 255 c 1
 84 255 l 1
 84 200.333333333 101.333333333 156.333333333 136 123 c 0
 170 90.3333333333 215.666666667 74 273 74 c 0
 331.666666667 74 379 93.3333333333 415 132 c 0
 450.333333333 171.333333333 468 223.333333333 468 288 c 0
 468 354.666666667 454 408.333333333 426 449 c 0
 398.666666667 489 362 509 316 509 c 0
 276 509 241.666666667 498.333333333 213 477 c 256
 184.333333333 455.666666667 170 430 170 400 c 1
 410 400 l 1
 410 320 l 2
 410 288 396.666666667 261 370 239 c 0
 344 216.333333333 312.333333333 205 275 205 c 256
 237.666666667 205 206 216.333333333 180 239 c 0
 153.333333333 262.333333333 140 290 140 322 c 2
 140 370 l 1
 -87 370 l 1
 -87 400 l 1
 143 400 l 1
 143 440 160.333333333 474 195 502 c 0
 229 530 270.333333333 544 319 544 c 0
 411 544 480.666666667 522.666666667 528 480 c 0
 574.666666667 436.666666667 598 373 598 289 c 1
 598 289 l 1
280 321 m 1
 280 370 l 1
 175 370 l 1
 175 320 l 2
 175 302 180 286.666666667 190 274 c 256
 200 261.333333333 212.333333333 255 227 255 c 256
 241.666666667 255 254 261.333333333 264 274 c 0
 274.666666667 287.333333333 280 303 280 321 c 1
 280 321 l 1
EndSplineSet
Substitution2: "Single Substitution lookup 7 subtable" uni0BC2.abvs
EndChar

StartChar: uni0BC6
Encoding: 299 3014 44
Width: 703
GlyphClass: 2
Flags: HW
LayerCount: 2
Back
Fore
SplineSet
658 0 m 1
 623 0 l 1
 623 349 l 2
 623 418.333333333 595.333333333 477.333333333 540 526 c 0
 485.333333333 574.666666667 419 599 341 599 c 0
 255.666666667 599 187.333333333 572.666666667 136 520 c 0
 84.6666666667 468 59 398.333333333 59 311 c 0
 59 228.333333333 81 162 125 112 c 0
 168.333333333 62 226.333333333 37 299 37 c 0
 314.333333333 37 326 38.3333333333 334 41 c 1
 308.666666667 53 288.333333333 70.3333333333 273 93 c 0
 257.666666667 116.333333333 250 141.333333333 250 168 c 0
 250 206 265.333333333 238.666666667 296 266 c 0
 326 292.666666667 362.666666667 306 406 306 c 0
 453.333333333 306 491.333333333 292.666666667 520 266 c 0
 548.666666667 240 563 205 563 161 c 0
 563 111.666666667 539 72 491 42 c 256
 443 12 379.333333333 -3 300 -3 c 0
 216.666666667 -3 149.666666667 25.6666666667 99 83 c 0
 49 140.333333333 24 216.666666667 24 312 c 0
 24 421.333333333 52.6666666667 508.666666667 110 574 c 0
 167.333333333 640 243.333333333 673 338 673 c 0
 434.666666667 673 512.333333333 643.666666667 571 585 c 0
 629 525.666666667 658 447 658 349 c 2
 658 0 l 1
 658 0 l 1
433 159 m 1
 433 185 426 207.333333333 412 226 c 256
 398 244.666666667 381 254 361 254 c 0
 340.333333333 254 322.333333333 245.333333333 307 228 c 0
 292.333333333 210 285 188.666666667 285 164 c 0
 285 138 292.333333333 114.333333333 307 93 c 256
 321.666666667 71.6666666667 341 56 365 46 c 1
 385.666666667 53.3333333333 402 67.3333333333 414 88 c 0
 426.666666667 108.666666667 433 132.333333333 433 159 c 1
 433 159 l 1
EndSplineSet
EndChar

StartChar: uni0BC7
Encoding: 300 3015 45
Width: 649
GlyphClass: 2
Flags: HW
LayerCount: 2
Back
Fore
SplineSet
633 170 m 1
 633 118 606 76.6666666667 552 46 c 0
 498 14.6666666667 426.333333333 -1 337 -1 c 0
 249.666666667 -1 175.333333333 31.3333333333 114 96 c 0
 52 160.666666667 21 238.666666667 21 330 c 0
 21 422 52.3333333333 500.333333333 115 565 c 0
 177.666666667 630.333333333 253.333333333 663 342 663 c 0
 430 663 500.666666667 647 554 615 c 0
 606.666666667 583 633 540.333333333 633 487 c 0
 633 451 620.666666667 422.333333333 596 401 c 0
 570.666666667 379.666666667 537.333333333 369 496 369 c 256
 454.666666667 369 421.666666667 379.666666667 397 401 c 0
 372.333333333 421.666666667 360 449.666666667 360 485 c 0
 360 509.666666667 367 532 381 552 c 256
 395 572 413.333333333 586 436 594 c 1
 411.333333333 606 377.666666667 612 335 612 c 0
 257.666666667 612 192 584.666666667 138 530 c 0
 83.3333333333 474.666666667 56 408.333333333 56 331 c 0
 56 252.333333333 83 185 137 129 c 0
 191 73.6666666667 256 46 332 46 c 0
 356.666666667 46 377.666666667 47.6666666667 395 51 c 0
 412.333333333 53.6666666667 425.333333333 58 434 64 c 1
 412.666666667 68 395 80.6666666667 381 102 c 0
 367 122.666666667 360 147 360 175 c 0
 360 212.333333333 372.333333333 242 397 264 c 0
 421.666666667 286.666666667 454.666666667 298 496 298 c 256
 537.333333333 298 570.666666667 286.333333333 596 263 c 0
 620.666666667 239.666666667 633 208.666666667 633 170 c 1
 633 170 l 1
503 482 m 1
 503 502 497.666666667 519 487 533 c 256
 476.333333333 547 463.666666667 554 449 554 c 256
 434.333333333 554 421.666666667 547 411 533 c 256
 400.333333333 519 395 502 395 482 c 0
 395 463.333333333 400.333333333 447.333333333 411 434 c 256
 421.666666667 420.666666667 434.333333333 414 449 414 c 256
 463.666666667 414 476.333333333 420.666666667 487 434 c 256
 497.666666667 447.333333333 503 463.333333333 503 482 c 1
 503 482 l 1
503 174 m 1
 503 194.666666667 497.666666667 212 487 226 c 0
 476.333333333 240.666666667 463.666666667 248 449 248 c 256
 434.333333333 248 421.666666667 240.666666667 411 226 c 0
 400.333333333 212 395 194.666666667 395 174 c 256
 395 153.333333333 400.333333333 136 411 122 c 0
 421.666666667 107.333333333 434.333333333 100 449 100 c 256
 463.666666667 100 476.333333333 107.333333333 487 122 c 0
 497.666666667 136 503 153.333333333 503 174 c 1
 503 174 l 1
EndSplineSet
EndChar

StartChar: uni0BC8
Encoding: 301 3016 46
Width: 916
GlyphClass: 2
Flags: HW
LayerCount: 2
Back
Fore
SplineSet
895 203 m 1
 895 148.333333333 878 101 844 61 c 256
 810 21 768 -1.66666666667 718 -7 c 1
 709 25 l 1
 746.333333333 76.3333333333 765 135.333333333 765 202 c 0
 765 250 754.666666667 291.333333333 734 326 c 0
 713.333333333 360 688.333333333 377 659 377 c 0
 639 377 620.666666667 374.666666667 604 370 c 0
 587.333333333 366 573.666666667 359.666666667 563 351 c 1
 594.333333333 323.666666667 618.333333333 292.333333333 635 257 c 0
 652.333333333 221.666666667 661 185 661 147 c 0
 661 101.666666667 648 65.3333333333 622 38 c 0
 596.666666667 10.6666666667 562.666666667 -3 520 -3 c 256
 477.333333333 -3 443.333333333 10.6666666667 418 38 c 256
 392.666666667 65.3333333333 380 101.666666667 380 147 c 0
 380 176.333333333 386.333333333 206.333333333 399 237 c 256
 411.666666667 267.666666667 430 297.333333333 454 326 c 1
 434.666666667 342.666666667 410.333333333 355.333333333 381 364 c 0
 352.333333333 372.666666667 320.666666667 377 286 377 c 0
 222 377 167.333333333 357 122 317 c 256
 76.6666666667 277 54 228.666666667 54 172 c 0
 54 138 61 108.333333333 75 83 c 256
 89 57.6666666667 107 41.6666666667 129 35 c 1
 118.333333333 42.3333333333 109.666666667 53.6666666667 103 69 c 0
 97 84.3333333333 94 102 94 122 c 0
 94 162 106.333333333 194 131 218 c 256
 155.666666667 242 188.333333333 254 229 254 c 0
 270.333333333 254 303.333333333 242.666666667 328 220 c 256
 352.666666667 197.333333333 365 167.333333333 365 130 c 0
 365 88 348.666666667 54.6666666667 316 30 c 0
 283.333333333 4.66666666667 239.666666667 -8 185 -8 c 0
 139 -8 100 9.33333333333 68 44 c 0
 35.3333333333 78.6666666667 19 120.666666667 19 170 c 0
 19 236.666666667 47 293.666666667 103 341 c 256
 159 388.333333333 226.333333333 412 305 412 c 0
 358.333333333 412 404 408.333333333 442 401 c 0
 479.333333333 393.666666667 507.333333333 383 526 369 c 1
 540 383 558.333333333 393.666666667 581 401 c 0
 604.333333333 408.333333333 630.666666667 412 660 412 c 0
 731.333333333 412 788.333333333 393 831 355 c 256
 873.666666667 317 895 266.333333333 895 203 c 1
 895 203 l 1
531 147 m 1
 531 175 525.666666667 201.666666667 515 227 c 256
 504.333333333 252.333333333 489.333333333 274 470 292 c 1
 452 272.666666667 438.333333333 250.333333333 429 225 c 0
 419.666666667 200.333333333 415 174.333333333 415 147 c 0
 415 115 420 89.6666666667 430 71 c 0
 440 51.6666666667 453.333333333 42 470 42 c 0
 488.666666667 42 503.333333333 51.6666666667 514 71 c 0
 525.333333333 89.6666666667 531 115 531 147 c 1
 531 147 l 1
235 120 m 1
 235 142 229.666666667 160.666666667 219 176 c 0
 207.666666667 191.333333333 194.333333333 199 179 199 c 0
 165 199 153.333333333 191.333333333 144 176 c 0
 134 160.666666667 129 142 129 120 c 0
 129 96 134 75.3333333333 144 58 c 0
 153.333333333 40.6666666667 165 32 179 32 c 0
 194.333333333 32 207.666666667 40.6666666667 219 58 c 0
 229.666666667 75.3333333333 235 96 235 120 c 1
 235 120 l 1
EndSplineSet
EndChar

StartChar: uni0BCD
Encoding: 305 3021 50
Width: 320
GlyphClass: 2
Flags: HW
LayerCount: 2
Back
Fore
SplineSet
240 543 m 1
 240 523.666666667 232 507 216 493 c 0
 200.666666667 479 181.666666667 472 159 472 c 0
 137 472 118.333333333 479 103 493 c 256
 87.6666666667 507 80 523.666666667 80 543 c 256
 80 562.333333333 87.6666666667 578.666666667 103 592 c 0
 118.333333333 606 137 613 159 613 c 0
 181.666666667 613 200.666666667 606 216 592 c 0
 232 578.666666667 240 562.333333333 240 543 c 1
 240 543 l 1
EndSplineSet
EndChar

StartChar: uni0BE6
Encoding: 307 3046 52
Width: 515
GlyphClass: 2
Flags: HW
LayerCount: 2
Back
Fore
SplineSet
465 204 m 1
 465 146.666666667 444.666666667 97.6666666667 404 57 c 256
 363.333333333 16.3333333333 314.333333333 -4 257 -4 c 256
 199.666666667 -4 151 16.3333333333 111 57 c 0
 70.3333333333 97.6666666667 50 146.666666667 50 204 c 0
 50 262 70.3333333333 311.333333333 111 352 c 0
 151 392.666666667 199.666666667 413 257 413 c 256
 314.333333333 413 363.333333333 392.666666667 404 352 c 256
 444.666666667 311.333333333 465 262 465 204 c 1
 465 204 l 1
335 204 m 1
 335 252 327.333333333 293 312 327 c 256
 296.666666667 361 278.333333333 378 257 378 c 256
 235.666666667 378 217.666666667 361 203 327 c 0
 187.666666667 293 180 252 180 204 c 256
 180 156 187.666666667 115.333333333 203 82 c 0
 217.666666667 48 235.666666667 31 257 31 c 256
 278.333333333 31 296.666666667 48 312 82 c 0
 327.333333333 115.333333333 335 156 335 204 c 1
 335 204 l 1
EndSplineSet
EndChar

StartChar: uni0BE7
Encoding: 308 3047 53
Width: 707
GlyphClass: 2
Flags: HW
LayerCount: 2
Back
Fore
SplineSet
50 134 m 1
 50 160 60 181 80 197 c 0
 100 212.333333333 126.666666667 220 160 220 c 2
 175 220 l 1
 175 400 l 1
 559 400 l 1
 559 370 l 1
 450 370 l 1
 450 220 l 1
 532 220 l 2
 570 220 600.333333333 210.333333333 623 191 c 256
 645.666666667 171.666666667 657 146 657 114 c 0
 657 73.3333333333 641 44 609 26 c 0
 577 8.66666666667 524.333333333 0 451 0 c 1
 451 30 l 1
 478.333333333 30 497.666666667 36.3333333333 509 49 c 0
 521 61.6666666667 527 83 527 113 c 0
 527 137 522.666666667 155 514 167 c 0
 506 179 493.666666667 185 477 185 c 2
 450 185 l 1
 450 131 l 2
 450 87 429.333333333 54 388 32 c 0
 346.666666667 9.33333333333 285.333333333 -2 204 -2 c 0
 161.333333333 -2 125 11.3333333333 95 38 c 256
 65 64.6666666667 50 96.6666666667 50 134 c 1
 50 134 l 1
320 220 m 1
 320 370 l 1
 210 370 l 1
 210 220 l 1
 320 220 l 1
 320 220 l 1
320 138 m 1
 320 185 l 1
 152 185 l 2
 132 185 115.666666667 180.333333333 103 171 c 0
 91 162.333333333 85 150.333333333 85 135 c 0
 85 104.333333333 96 79.6666666667 118 61 c 256
 140 42.3333333333 169 33 205 33 c 0
 237 33 264 43.3333333333 286 64 c 0
 308.666666667 84.6666666667 320 109.333333333 320 138 c 1
 320 138 l 1
EndSplineSet
EndChar

StartChar: uni0BE8
Encoding: 309 3048 54
Width: 617
GlyphClass: 2
Flags: HW
LayerCount: 2
Back
Fore
SplineSet
567 0 m 1
 157 0 l 2
 127.666666667 0 102.333333333 6.33333333333 81 19 c 0
 60.3333333333 31 50 46 50 64 c 256
 50 82 59 97.6666666667 77 111 c 0
 95 123.666666667 117 130 143 130 c 2
 302 130 l 2
 328.666666667 130 351.666666667 142 371 166 c 0
 389.666666667 190 399 219 399 253 c 0
 399 285.666666667 387 313.666666667 363 337 c 0
 338.333333333 360.333333333 309 372 275 372 c 2
 244 372 l 1
 270 367.333333333 291.333333333 356.666666667 308 340 c 256
 324.666666667 323.333333333 333 304.333333333 333 283 c 0
 333 251 321 225.333333333 297 206 c 256
 273 186.666666667 241.333333333 177 202 177 c 256
 162.666666667 177 131 186.333333333 107 205 c 256
 83 223.666666667 71 248.666666667 71 280 c 0
 71 321.333333333 89 354.666666667 125 380 c 0
 161.666666667 404.666666667 210 417 270 417 c 0
 341.333333333 417 402.333333333 401 453 369 c 0
 503.666666667 336.333333333 529 297.333333333 529 252 c 0
 529 204.666666667 508.666666667 166.666666667 468 138 c 256
 427.333333333 109.333333333 373.333333333 95 306 95 c 2
 230 95 l 2
 216 95 204 92 194 86 c 0
 184 79.3333333333 179 71.6666666667 179 63 c 0
 179 53.6666666667 184 46 194 40 c 0
 203.333333333 33.3333333333 215 30 229 30 c 2
 567 30 l 1
 567 0 l 1
 567 0 l 1
203 283 m 1
 203 301.666666667 198 317.666666667 188 331 c 256
 178 344.333333333 166 351 152 351 c 0
 139.333333333 351 128.333333333 344 119 330 c 0
 110.333333333 315.333333333 106 298 106 278 c 0
 106 262 110.333333333 248 119 236 c 0
 128.333333333 224.666666667 139.333333333 219 152 219 c 0
 166 219 178 225.333333333 188 238 c 0
 198 250 203 265 203 283 c 1
 203 283 l 1
EndSplineSet
EndChar

StartChar: uni0BE9
Encoding: 310 3049 55
Width: 690
GlyphClass: 2
Flags: HW
LayerCount: 2
Back
Fore
SplineSet
640 0 m 1
 223 0 l 1
 223 30 l 1
 389 30 l 1
 407.666666667 40 422.333333333 55.6666666667 433 77 c 256
 443.666666667 98.3333333333 449 122.333333333 449 149 c 0
 449 173 443 193.333333333 431 210 c 256
 419 226.666666667 404.666666667 235 388 235 c 0
 378.666666667 235 370.333333333 230.333333333 363 221 c 0
 356.333333333 211.666666667 353 200.333333333 353 187 c 2
 353 110 l 1
 223 110 l 1
 223 370 l 1
 85 370 l 1
 85 0 l 1
 50 0 l 1
 50 400 l 1
 514 400 l 1
 514 370 l 1
 353 370 l 1
 353 257 l 1
 375.666666667 272.333333333 405.333333333 280 442 280 c 0
 483.333333333 280 516.666666667 267.666666667 542 243 c 0
 566.666666667 219 579 186.666666667 579 146 c 0
 579 122 570.333333333 99.3333333333 553 78 c 256
 535.666666667 56.6666666667 513 40.6666666667 485 30 c 1
 640 30 l 1
 640 0 l 1
 640 0 l 1
EndSplineSet
EndChar

StartChar: uni0BEA
Encoding: 311 3050 56
Width: 700
GlyphClass: 2
Flags: HW
LayerCount: 2
Back
Fore
SplineSet
650 185 m 1
 450 185 l 1
 450 131 l 2
 450 87 431 54 393 32 c 0
 355 9.33333333333 298.666666667 -2 224 -2 c 0
 171.333333333 -2 129.333333333 10.3333333333 98 35 c 0
 66 59.6666666667 50 92.6666666667 50 134 c 0
 50 160 60 181 80 197 c 0
 100 212.333333333 126.666666667 220 160 220 c 2
 165 220 l 1
 165 400 l 1
 550 400 l 1
 550 370 l 1
 450 370 l 1
 450 220 l 1
 520 220 l 1
 520 264 l 1
 650 264 l 1
 650 185 l 1
 650 185 l 1
320 220 m 1
 320 370 l 1
 200 370 l 1
 200 220 l 1
 320 220 l 1
 320 220 l 1
320 138 m 1
 320 185 l 1
 153 185 l 2
 132.333333333 185 116 180.333333333 104 171 c 0
 91.3333333333 162.333333333 85 150.333333333 85 135 c 0
 85 104.333333333 97.6666666667 79.6666666667 123 61 c 256
 148.333333333 42.3333333333 182.333333333 33 225 33 c 0
 253.666666667 33 276.666666667 42.6666666667 294 62 c 0
 311.333333333 80.6666666667 320 106 320 138 c 1
 320 138 l 1
EndSplineSet
EndChar

StartChar: uni0BEB
Encoding: 312 3051 57
Width: 853
GlyphClass: 2
Flags: HW
LayerCount: 2
Back
Fore
SplineSet
50 200 m 1
 50 312 89.6666666667 407.666666667 169 487 c 0
 247.666666667 566.333333333 343 606 455 606 c 0
 532.333333333 606 599.666666667 587.666666667 657 551 c 0
 713.666666667 514.333333333 747 467.666666667 757 411 c 1
 726 411 l 1
 714 458.333333333 683 496.666666667 633 526 c 0
 582.333333333 556 523 571 455 571 c 0
 379 571 314.333333333 534.666666667 261 462 c 0
 207 390 180 302.666666667 180 200 c 0
 180 92 203.333333333 5.66666666667 250 -59 c 0
 296.666666667 -124.333333333 359 -157 437 -157 c 0
 502.333333333 -157 558 -135.666666667 604 -93 c 0
 650 -51 673 0 673 60 c 0
 673 95.3333333333 666 125.666666667 652 151 c 0
 638.666666667 175.666666667 622.333333333 188 603 188 c 0
 595 188 588 184 582 176 c 0
 576.666666667 168.666666667 574 159.333333333 574 148 c 2
 574 0 l 1
 444 0 l 1
 444 370 l 1
 303 370 l 1
 303 0 l 1
 268 0 l 1
 268 400 l 1
 673 400 l 1
 673 370 l 1
 574 370 l 1
 574 214 l 1
 598.666666667 230 625.666666667 238 655 238 c 0
 695.666666667 238 730.666666667 220.333333333 760 185 c 0
 788.666666667 150.333333333 803 108 803 58 c 0
 803 -11.3333333333 767.333333333 -70.3333333333 696 -119 c 0
 624 -167.666666667 537.333333333 -192 436 -192 c 0
 319.333333333 -192 225.666666667 -156.333333333 155 -85 c 0
 85 -13.6666666667 50 81.3333333333 50 200 c 1
 50 200 l 1
EndSplineSet
EndChar

StartChar: uni0BEC
Encoding: 313 3052 58
Width: 916
GlyphClass: 2
Flags: HW
LayerCount: 2
Back
Fore
SplineSet
50 134 m 1
 50 160 59 181 77 197 c 0
 95.6666666667 212.333333333 120 220 150 220 c 2
 165 220 l 1
 165 400 l 1
 596 400 l 1
 596 370 l 1
 450 370 l 1
 450 220 l 1
 866 220 l 1
 866 185 l 1
 800 185 l 1
 800 0 l 1
 670 0 l 1
 670 185 l 1
 616 185 l 1
 616 0 l 1
 486 0 l 1
 486 185 l 1
 450 185 l 1
 450 131 l 2
 450 87 430.666666667 54 392 32 c 0
 352.666666667 9.33333333333 295 -2 219 -2 c 0
 167.666666667 -2 126.666666667 10.3333333333 96 35 c 256
 65.3333333333 59.6666666667 50 92.6666666667 50 134 c 1
 50 134 l 1
320 220 m 1
 320 370 l 1
 200 370 l 1
 200 220 l 1
 320 220 l 1
 320 220 l 1
320 138 m 1
 320 185 l 1
 153 185 l 2
 132.333333333 185 116 180.333333333 104 171 c 0
 91.3333333333 162.333333333 85 150.333333333 85 135 c 0
 85 104.333333333 97.3333333333 79.6666666667 122 61 c 256
 146.666666667 42.3333333333 179.333333333 33 220 33 c 0
 250 33 274.333333333 42.6666666667 293 62 c 0
 311 80.6666666667 320 106 320 138 c 1
 320 138 l 1
EndSplineSet
EndChar

StartChar: uni0BED
Encoding: 314 3053 59
Width: 714
GlyphClass: 2
Flags: HW
LayerCount: 2
Back
Fore
SplineSet
458 0 m 1
 458 370 l 1
 278 370 l 2
 224.666666667 370 179.333333333 351.333333333 142 314 c 0
 104 277.333333333 85 232.666666667 85 180 c 0
 85 148 91 120 103 96 c 0
 114.333333333 72 129.666666667 56.3333333333 149 49 c 1
 139.666666667 60.3333333333 132.666666667 72.3333333333 128 85 c 0
 123.333333333 97 121 108.666666667 121 120 c 0
 121 158.666666667 136 191.666666667 166 219 c 0
 195.333333333 246.333333333 231 260 273 260 c 256
 315 260 350.666666667 246.666666667 380 220 c 0
 410 193.333333333 425 161 425 123 c 0
 425 86.3333333333 409 55 377 29 c 0
 345.666666667 3 307.333333333 -10 262 -10 c 0
 203.333333333 -10 153.333333333 9 112 47 c 0
 70.6666666667 84.3333333333 50 129.666666667 50 183 c 0
 50 243 72.3333333333 294 117 336 c 0
 161.666666667 378.666666667 215.333333333 400 278 400 c 2
 664 400 l 1
 664 370 l 1
 588 370 l 1
 588 0 l 1
 458 0 l 1
 458 0 l 1
295 119 m 1
 295 141.666666667 288 160.666666667 274 176 c 0
 260.666666667 192 244.333333333 200 225 200 c 256
 205.666666667 200 189.333333333 192 176 176 c 0
 162.666666667 159.333333333 156 139.666666667 156 117 c 0
 156 95 162.666666667 76 176 60 c 0
 189.333333333 44.6666666667 205.666666667 37 225 37 c 256
 244.333333333 37 260.666666667 45 274 61 c 0
 288 77 295 96.3333333333 295 119 c 1
 295 119 l 1
EndSplineSet
EndChar

StartChar: uni0BEE
Encoding: 315 3054 60
Width: 1003
GlyphClass: 2
Flags: HW
LayerCount: 2
Back
Fore
SplineSet
50 27 m 1
 50 42.3333333333 56.3333333333 55.6666666667 69 67 c 0
 81 77.6666666667 96 83 114 83 c 2
 614 83 l 1
 637.333333333 127 649 171 649 215 c 0
 649 259.666666667 636.666666667 298 612 330 c 0
 587.333333333 361.333333333 557.333333333 377 522 377 c 1
 543.333333333 364.333333333 560.333333333 348.333333333 573 329 c 0
 585.666666667 309 592 288.333333333 592 267 c 0
 592 227.666666667 578 196.333333333 550 173 c 256
 522 149.666666667 484.666666667 138 438 138 c 0
 392 138 355 150.333333333 327 175 c 256
 299 199.666666667 285 232.333333333 285 273 c 0
 285 315 305.666666667 348.666666667 347 374 c 0
 389 399.333333333 444.333333333 412 513 412 c 0
 593.666666667 412 658 394 706 358 c 0
 754.666666667 322 779 274 779 214 c 0
 779 162 770 118.333333333 752 83 c 1
 823 83 l 1
 823 400 l 1
 953 400 l 1
 953 -134 l 1
 823 -134 l 1
 823 48 l 1
 734 48 l 1
 704 -4 653.666666667 -45 583 -75 c 256
 512.333333333 -105 431 -120 339 -120 c 0
 259 -120 191 -105.666666667 135 -77 c 0
 78.3333333333 -48.3333333333 50 -13.6666666667 50 27 c 1
 50 27 l 1
492 270 m 1
 492 294 483.333333333 314.666666667 466 332 c 256
 448.666666667 349.333333333 427.666666667 358 403 358 c 0
 380.333333333 358 360.666666667 349.333333333 344 332 c 0
 328 314.666666667 320 294 320 270 c 0
 320 247.333333333 328 228 344 212 c 0
 360.666666667 196 380.333333333 188 403 188 c 0
 427.666666667 188 448.666666667 196 466 212 c 256
 483.333333333 228 492 247.333333333 492 270 c 1
 492 270 l 1
591 48 m 1
 111 48 l 2
 103.666666667 48 97.6666666667 46 93 42 c 0
 87.6666666667 38 85 33.3333333333 85 28 c 0
 85 -3.33333333333 107.666666667 -30 153 -52 c 0
 197.666666667 -74 252 -85 316 -85 c 0
 374.666666667 -85 428.333333333 -73.3333333333 477 -50 c 0
 526.333333333 -26 564.333333333 6.66666666667 591 48 c 1
 591 48 l 1
EndSplineSet
EndChar

StartChar: uni0BEF
Encoding: 316 3055 61
Width: 929
GlyphClass: 2
Flags: HW
LayerCount: 2
Back
Fore
SplineSet
50 134 m 1
 50 158 59.6666666667 178.333333333 79 195 c 0
 99 211.666666667 122.666666667 220 150 220 c 2
 165 220 l 1
 165 400 l 1
 550 400 l 1
 550 370 l 1
 440 370 l 1
 440 220 l 1
 553 220 l 1
 589 245.333333333 633 258 685 258 c 0
 743.666666667 258 790.666666667 244.333333333 826 217 c 256
 861.333333333 189.666666667 879 153.333333333 879 108 c 0
 879 84 874.333333333 62.3333333333 865 43 c 256
 855.666666667 23.6666666667 842.666666667 9.33333333333 826 0 c 1
 713 0 l 1
 713 30 l 1
 724.333333333 36.6666666667 733 47.3333333333 739 62 c 0
 745.666666667 76.6666666667 749 93.3333333333 749 112 c 0
 749 140 741 163.666666667 725 183 c 0
 708.333333333 203 688.666666667 213 666 213 c 0
 658.666666667 213 647.666666667 211.333333333 633 208 c 256
 618.333333333 204.666666667 614.666666667 203 622 203 c 0
 643.333333333 198.333333333 660.666666667 186.333333333 674 167 c 256
 687.333333333 147.666666667 694 125.666666667 694 101 c 0
 694 68.3333333333 684.333333333 42 665 22 c 256
 645.666666667 2 619.666666667 -8 587 -8 c 256
 554.333333333 -8 528.333333333 1.66666666667 509 21 c 0
 489.666666667 41 480 67.3333333333 480 100 c 0
 480 118 483 134.333333333 489 149 c 256
 495 163.666666667 503.333333333 175.666666667 514 185 c 1
 440 185 l 1
 440 131 l 2
 440 92.3333333333 418.333333333 59.6666666667 375 33 c 0
 331 5.66666666667 278.333333333 -8 217 -8 c 0
 171 -8 131.666666667 6 99 34 c 0
 66.3333333333 61.3333333333 50 94.6666666667 50 134 c 1
 50 134 l 1
310 220 m 1
 310 370 l 1
 200 370 l 1
 200 220 l 1
 310 220 l 1
 310 220 l 1
310 134 m 1
 310 185 l 1
 142 185 l 2
 126 185 112.666666667 180 102 170 c 0
 90.6666666667 160.666666667 85 149 85 135 c 0
 85 105 97 79.6666666667 121 59 c 0
 145.666666667 37.6666666667 175 27 209 27 c 0
 237 27 260.666666667 37.3333333333 280 58 c 0
 300 79.3333333333 310 104.666666667 310 134 c 1
 310 134 l 1
609 102 m 1
 609 123.333333333 604.666666667 141.333333333 596 156 c 0
 587.333333333 171.333333333 576.666666667 179 564 179 c 0
 550.666666667 179 539 171.666666667 529 157 c 0
 519.666666667 141.666666667 515 123.666666667 515 103 c 256
 515 82.3333333333 519.333333333 64.3333333333 528 49 c 0
 536.666666667 34.3333333333 547 27 559 27 c 0
 573 27 584.666666667 34.3333333333 594 49 c 0
 604 63.6666666667 609 81.3333333333 609 102 c 1
 609 102 l 1
EndSplineSet
EndChar

StartChar: uni0BF0
Encoding: 317 3056 62
Width: 600
GlyphClass: 2
Flags: HW
LayerCount: 2
Back
Fore
SplineSet
576 230 m 1
 576 158.666666667 557.666666667 101.666666667 521 59 c 0
 485 16.3333333333 436.666666667 -5 376 -5 c 0
 349.333333333 -5 325 1.33333333333 303 14 c 256
 281 26.6666666667 264.333333333 44 253 66 c 1
 245.666666667 44.6666666667 231.666666667 27.6666666667 211 15 c 0
 189.666666667 1.66666666667 165.666666667 -5 139 -5 c 0
 111.666666667 -5 88.6666666667 5 70 25 c 0
 50.6666666667 45 41 69.3333333333 41 98 c 2
 41 400 l 1
 76 400 l 1
 76 98 l 2
 76 79.3333333333 80.6666666667 63.3333333333 90 50 c 256
 99.3333333333 36.6666666667 110.333333333 30 123 30 c 0
 137.666666667 30 150 36.6666666667 160 50 c 256
 170 63.3333333333 175 79.3333333333 175 98 c 2
 175 400 l 1
 305 400 l 1
 305 97 l 2
 305 78.3333333333 310 62.6666666667 320 50 c 0
 330 36.6666666667 342 30 356 30 c 0
 380.666666667 30 402 49.6666666667 420 89 c 0
 437.333333333 128.333333333 446 175.666666667 446 231 c 0
 446 292.333333333 432.666666667 344.666666667 406 388 c 256
 379.333333333 431.333333333 347.333333333 453 310 453 c 2
 41 453 l 1
 41 488 l 1
 320 488 l 2
 390.666666667 488 451 462.666666667 501 412 c 0
 551 362 576 301.333333333 576 230 c 1
 576 230 l 1
EndSplineSet
EndChar

StartChar: uni0BF1
Encoding: 318 3057 63
Width: 628
GlyphClass: 2
Flags: HW
LayerCount: 2
Back
Fore
SplineSet
40 0 m 1
 40 309 l 2
 40 334.333333333 51.6666666667 355.666666667 75 373 c 0
 99 391 127.666666667 400 161 400 c 256
 194.333333333 400 223 394 247 382 c 256
 271 370 286 354.333333333 292 335 c 1
 298.666666667 354.333333333 311 370 329 382 c 0
 346.333333333 394 366 400 388 400 c 2
 625 400 l 1
 625 370 l 1
 566 370 l 1
 566 0 l 1
 436 0 l 1
 436 370 l 1
 398 370 l 2
 380.666666667 370 366 363.333333333 354 350 c 256
 342 336.666666667 336 320.333333333 336 301 c 2
 336 0 l 1
 206 0 l 1
 206 305 l 2
 206 321.666666667 199.666666667 335.666666667 187 347 c 0
 173.666666667 359 158 365 140 365 c 256
 122 365 106.666666667 359.666666667 94 349 c 0
 81.3333333333 337.666666667 75 324.333333333 75 309 c 2
 75 0 l 1
 40 0 l 1
 40 0 l 1
EndSplineSet
EndChar

StartChar: uni0BF2
Encoding: 319 3058 64
Width: 788
GlyphClass: 2
Flags: HW
LayerCount: 2
Back
Fore
SplineSet
13 122 m 1
 13 148 22.3333333333 170 41 188 c 256
 59.6666666667 206 82 215 108 215 c 2
 126 215 l 1
 126 400 l 1
 520 400 l 1
 520 370 l 1
 385 370 l 1
 385 215 l 1
 682 215 l 1
 682 180 l 1
 575 180 l 1
 575 107 l 1
 603.666666667 121.666666667 633.666666667 129 665 129 c 256
 696.333333333 129 723.333333333 118.333333333 746 97 c 0
 768 75.6666666667 779 50 779 20 c 0
 779 -27.3333333333 751.666666667 -65.3333333333 697 -94 c 0
 641.666666667 -122.666666667 568.333333333 -137 477 -137 c 2
 173 -137 l 2
 151 -137 132.333333333 -139.333333333 117 -144 c 0
 101.666666667 -149.333333333 92.3333333333 -156 89 -164 c 1
 106.333333333 -157.333333333 122.666666667 -157.333333333 138 -164 c 256
 153.333333333 -170.666666667 161 -181 161 -195 c 0
 161 -205 154 -213.333333333 140 -220 c 0
 126 -227.333333333 109.333333333 -231 90 -231 c 0
 77.3333333333 -231 66.3333333333 -225.666666667 57 -215 c 256
 47.6666666667 -204.333333333 43 -191.666666667 43 -177 c 0
 43 -156.333333333 55.6666666667 -138.666666667 81 -124 c 256
 106.333333333 -109.333333333 137 -102 173 -102 c 2
 476 -102 l 2
 524 -102 564.666666667 -91 598 -69 c 0
 632 -47 649 -20.6666666667 649 10 c 0
 649 29.3333333333 644.666666667 45.6666666667 636 59 c 0
 626.666666667 72.3333333333 615.666666667 79 603 79 c 0
 595 79 588.333333333 75.6666666667 583 69 c 0
 577.666666667 61.6666666667 575 53.3333333333 575 44 c 2
 575 0 l 1
 445 0 l 1
 445 180 l 1
 385 180 l 1
 385 134 l 2
 385 95.3333333333 364 62.6666666667 322 36 c 0
 279.333333333 8.66666666667 228.333333333 -5 169 -5 c 0
 125.666666667 -5 89 7.33333333333 59 32 c 0
 28.3333333333 56.6666666667 13 86.6666666667 13 122 c 1
 13 122 l 1
255 215 m 1
 255 370 l 1
 161 370 l 1
 161 215 l 1
 255 215 l 1
 255 215 l 1
255 132 m 1
 255 180 l 1
 109 180 l 2
 92.3333333333 180 78 174.666666667 66 164 c 0
 54 152.666666667 48 139.333333333 48 124 c 0
 48 102.666666667 56.3333333333 83.3333333333 73 66 c 0
 89 48.6666666667 110 37 136 31 c 0
 166.666666667 24.3333333333 194 31.3333333333 218 52 c 0
 242.666666667 72.6666666667 255 99.3333333333 255 132 c 1
 255 132 l 1
EndSplineSet
EndChar

StartChar: uni0BF3
Encoding: 320 3059 65
Width: 740
GlyphClass: 2
Flags: HW
LayerCount: 2
Back
Fore
SplineSet
20 182 m 1
 20 248 47 304.333333333 101 351 c 256
 155 397.666666667 220.333333333 421 297 421 c 256
 373.666666667 421 439 399.333333333 493 356 c 0
 547 312 574 259.333333333 574 198 c 0
 574 162.666666667 567.333333333 130 554 100 c 0
 540.666666667 70.6666666667 522.333333333 47.3333333333 499 30 c 1
 737 30 l 1
 737 0 l 1
 357 0 l 1
 357 27 l 1
 383.666666667 39.6666666667 404.666666667 61.3333333333 420 92 c 0
 436 122.666666667 444 157.333333333 444 196 c 0
 444 246 425 288.333333333 387 323 c 0
 349 358.333333333 303 376 249 376 c 0
 195.666666667 376 150 357 112 319 c 256
 74 281 55 235.333333333 55 182 c 0
 55 152 60.6666666667 124.666666667 72 100 c 0
 84 76 100 57.3333333333 120 44 c 1
 111.333333333 54 105 65.6666666667 101 79 c 0
 96.3333333333 93 94 107.666666667 94 123 c 0
 94 161 106.333333333 191.333333333 131 214 c 0
 155 236.666666667 187.333333333 248 228 248 c 256
 268.666666667 248 301 236.666666667 325 214 c 0
 349.666666667 190.666666667 362 160 362 122 c 256
 362 84 347 53.3333333333 317 30 c 0
 286.333333333 7.33333333333 246 -4 196 -4 c 0
 142.666666667 -4 100 13 68 47 c 256
 36 81 20 126 20 182 c 1
 20 182 l 1
232 119 m 1
 232 139.666666667 227 157 217 171 c 0
 207 185.666666667 194.666666667 193 180 193 c 0
 166 193 154 186 144 172 c 0
 134 157.333333333 129 140 129 120 c 0
 129 99.3333333333 133.666666667 82 143 68 c 0
 153 53.3333333333 164.666666667 46 178 46 c 0
 192.666666667 46 205.333333333 53 216 67 c 0
 226.666666667 81.6666666667 232 99 232 119 c 1
 232 119 l 1
EndSplineSet
EndChar

StartChar: uni0BF4
Encoding: 321 3060 66
Width: 667
GlyphClass: 2
Flags: HW
LayerCount: 2
Back
Fore
SplineSet
391 467 m 1
 391 495.666666667 405 520.333333333 433 541 c 0
 461.666666667 561 496 571 536 571 c 1
 552.666666667 587.666666667 573.666666667 600.333333333 599 609 c 256
 624.333333333 617.666666667 652 622 682 622 c 0
 720 622 753.333333333 613.333333333 782 596 c 1
 812 613.333333333 841.666666667 622 871 622 c 0
 887.666666667 622 903 619.333333333 917 614 c 256
 931 608.666666667 942.333333333 601 951 591 c 1
 936 573 l 1
 919.333333333 582.333333333 897 587 869 587 c 0
 862.333333333 587 852.333333333 583.666666667 839 577 c 1
 851 571 860.666666667 563.666666667 868 555 c 0
 875.333333333 545.666666667 879 536.333333333 879 527 c 0
 879 509.666666667 870.333333333 495 853 483 c 0
 835 471 813.666666667 465 789 465 c 0
 765 465 744.333333333 471.666666667 727 485 c 0
 710.333333333 497.666666667 702 513.333333333 702 532 c 0
 702 540.666666667 705 549.333333333 711 558 c 0
 717 566 725 572.666666667 735 578 c 1
 729 582.666666667 721.333333333 586 712 588 c 0
 702.666666667 590.666666667 691.666666667 592 679 592 c 0
 661 592 645.333333333 590 632 586 c 256
 618.666666667 582 608.666666667 576.333333333 602 569 c 1
 622.666666667 569 640.333333333 562.333333333 655 549 c 256
 669.666666667 535.666666667 677 519.333333333 677 500 c 0
 677 482 667.666666667 467 649 455 c 0
 630.333333333 442.333333333 607.666666667 436 581 436 c 0
 555 436 532.666666667 442 514 454 c 256
 495.333333333 466 486 480.666666667 486 498 c 0
 486 507.333333333 487.666666667 515.666666667 491 523 c 0
 495 530.333333333 500 536.333333333 506 541 c 1
 484 541 465 533.666666667 449 519 c 0
 433.666666667 504.333333333 426 486.666666667 426 466 c 0
 426 454.666666667 428.666666667 443.333333333 434 432 c 0
 438.666666667 420.666666667 445.666666667 410.333333333 455 401 c 1
 483 401 l 2
 531 401 569.666666667 380.666666667 599 340 c 0
 627.666666667 300 642 246.333333333 642 179 c 0
 642 125 631 81.6666666667 609 49 c 0
 587.666666667 16.3333333333 559 0 523 0 c 2
 45 0 l 1
 45 400 l 1
 175 400 l 1
 175 30 l 1
 319 30 l 1
 319 271 l 2
 319 300.333333333 328.333333333 326.666666667 347 350 c 0
 365.666666667 374 390 390.666666667 420 400 c 1
 410.666666667 411.333333333 403.333333333 423 398 435 c 0
 393.333333333 446.333333333 391 457 391 467 c 1
 391 467 l 1
596 500 m 1
 596 510 592 518.333333333 584 525 c 0
 576.666666667 532.333333333 567.333333333 536 556 536 c 1
 546 533.333333333 537.666666667 528.666666667 531 522 c 0
 524.333333333 516 521 509 521 501 c 256
 521 493 524.333333333 486 531 480 c 0
 538.333333333 474 546.666666667 471 556 471 c 0
 567.333333333 471 576.666666667 473.666666667 584 479 c 0
 592 485 596 492 596 500 c 1
 596 500 l 1
809 527 m 1
 809 537 807 545.333333333 803 552 c 0
 798.333333333 559.333333333 793 563 787 563 c 256
 781 563 776 559.333333333 772 552 c 0
 768 545.333333333 766 537 766 527 c 0
 766 519.666666667 768 513.333333333 772 508 c 256
 776 502.666666667 781 500 787 500 c 256
 793 500 798.333333333 502.666666667 803 508 c 0
 807 513.333333333 809 519.666666667 809 527 c 1
 809 527 l 1
426 275 m 1
 426 30 l 1
 512 30 l 2
 540.666666667 30 563.666666667 43.6666666667 581 71 c 256
 598.333333333 98.3333333333 607 134.666666667 607 180 c 0
 607 238 596.333333333 284.333333333 575 319 c 256
 553.666666667 353.666666667 525.333333333 371 490 371 c 0
 472 371 457 361.666666667 445 343 c 0
 432.333333333 324.333333333 426 301.666666667 426 275 c 1
 426 275 l 1
EndSplineSet
EndChar

StartChar: uni0BF5
Encoding: 322 3061 67
Width: 1410
GlyphClass: 2
Flags: HW
LayerCount: 2
Back
Fore
SplineSet
116 182 m 1
 116 244.666666667 138.666666667 298.333333333 184 343 c 256
 229.333333333 387.666666667 284.333333333 410 349 410 c 0
 420.333333333 410 481 390.333333333 531 351 c 0
 581.666666667 311.666666667 607 264.333333333 607 209 c 0
 607 171.666666667 599.333333333 137.333333333 584 106 c 256
 568.666666667 74.6666666667 547.333333333 49.6666666667 520 31 c 1
 693 31 l 1
 693 400 l 1
 1100 400 l 1
 1100 370 l 1
 997 370 l 1
 997 205 l 1
 1004.33333333 212.333333333 1013.66666667 217.666666667 1025 221 c 0
 1037 225 1050.66666667 227 1066 227 c 0
 1106 227 1140 213 1168 185 c 0
 1196 156.333333333 1210 122 1210 82 c 0
 1210 -16.6666666667 1158.66666667 -96 1056 -156 c 0
 953.333333333 -215.333333333 816.666666667 -245 646 -245 c 0
 459.333333333 -245 309.666666667 -202.666666667 197 -118 c 256
 84.3333333333 -33.3333333333 28 79.3333333333 28 220 c 0
 28 347.333333333 90.6666666667 449.666666667 216 527 c 0
 341.333333333 603.666666667 508 642 716 642 c 0
 844 642 953.333333333 620 1044 576 c 0
 1134.66666667 532.666666667 1180 480 1180 418 c 2
 1180 333 l 2
 1180 323.666666667 1183.33333333 315.333333333 1190 308 c 0
 1196 301.333333333 1203.66666667 298 1213 298 c 2
 1248 298 l 2
 1253.33333333 298 1257.66666667 301.666666667 1261 309 c 0
 1265 316.333333333 1267 325 1267 335 c 2
 1267 400 l 1
 1397 400 l 1
 1397 335 l 2
 1397 315 1389 298 1373 284 c 0
 1356.33333333 270 1336.66666667 263 1314 263 c 2
 1214 263 l 2
 1194.66666667 263 1178.33333333 269.666666667 1165 283 c 256
 1151.66666667 296.333333333 1145 312.333333333 1145 331 c 2
 1145 418 l 2
 1145 475.333333333 1106 521 1028 555 c 0
 950.666666667 589.666666667 847.333333333 607 718 607 c 0
 520 607 361.333333333 571.666666667 242 501 c 256
 122.666666667 430.333333333 63 336.333333333 63 219 c 0
 63 91 116 -11.6666666667 222 -89 c 256
 328 -166.333333333 469 -205 645 -205 c 0
 776.333333333 -205 881.666666667 -178.666666667 961 -126 c 0
 1040.33333333 -74 1080 -4.33333333333 1080 83 c 0
 1080 109 1074.66666667 131 1064 149 c 0
 1053.33333333 167.666666667 1040.66666667 177 1026 177 c 0
 1018 177 1011 174.333333333 1005 169 c 0
 999.666666667 164.333333333 997 158.333333333 997 151 c 2
 997 0 l 1
 867 0 l 1
 867 370 l 1
 728 370 l 1
 728 0 l 1
 421 0 l 1
 421 30 l 1
 438.333333333 42.6666666667 452 63.3333333333 462 92 c 256
 472 120.666666667 477 154 477 192 c 0
 477 241.333333333 460.666666667 283.333333333 428 318 c 0
 396 352.666666667 357 370 311 370 c 0
 267 370 229.333333333 352 198 316 c 0
 166.666666667 279.333333333 151 235.333333333 151 184 c 0
 151 150.666666667 157 121 169 95 c 0
 181 69.6666666667 197.333333333 52 218 42 c 1
 208.666666667 52 201.666666667 63.6666666667 197 77 c 0
 191.666666667 90.3333333333 189 104.666666667 189 120 c 0
 189 152 201.333333333 179.333333333 226 202 c 256
 250.666666667 224.666666667 280.333333333 236 315 236 c 256
 349.666666667 236 379.333333333 224.333333333 404 201 c 256
 428.666666667 177.666666667 441 149.333333333 441 116 c 0
 441 81.3333333333 427.333333333 51.6666666667 400 27 c 0
 373.333333333 2.33333333333 340.666666667 -10 302 -10 c 0
 250.666666667 -10 206.666666667 8.66666666667 170 46 c 0
 134 83.3333333333 116 128.666666667 116 182 c 1
 116 182 l 1
311 114 m 1
 311 134 306.666666667 151 298 165 c 0
 288.666666667 179 277.666666667 186 265 186 c 0
 253.666666667 186 244 179.333333333 236 166 c 0
 228 153.333333333 224 137.666666667 224 119 c 256
 224 100.333333333 228 84.6666666667 236 72 c 0
 244 58.6666666667 253.666666667 52 265 52 c 0
 277.666666667 52 288.666666667 58 298 70 c 0
 306.666666667 82 311 96.6666666667 311 114 c 1
 311 114 l 1
EndSplineSet
EndChar

StartChar: uni0BF6
Encoding: 323 3062 68
Width: 828
GlyphClass: 2
Flags: HW
LayerCount: 2
Back
Fore
SplineSet
394 -98 m 1
 129 -98 l 2
 115.666666667 -98 104 -100 94 -104 c 0
 84.6666666667 -108 80 -112.666666667 80 -118 c 0
 74 -132 88.3333333333 -145.333333333 123 -158 c 256
 157.666666667 -170.666666667 197.333333333 -177 242 -177 c 0
 280 -177 313.333333333 -169.666666667 342 -155 c 0
 370 -140.333333333 387.333333333 -121.333333333 394 -98 c 1
 394 -98 l 1
45 0 m 1
 45 400 l 1
 175 400 l 1
 175 32 l 1
 394 32 l 1
 394 400 l 1
 524 400 l 1
 524 -63 l 1
 653 -63 l 1
 653 400 l 1
 783 400 l 1
 783 -98 l 1
 485 -98 l 1
 485 -129.333333333 461.333333333 -156.333333333 414 -179 c 0
 366.666666667 -201 309.333333333 -212 242 -212 c 0
 187.333333333 -212 141 -203 103 -185 c 0
 64.3333333333 -167 45 -145.333333333 45 -120 c 0
 45 -104 53.3333333333 -90.6666666667 70 -80 c 0
 86.6666666667 -68.6666666667 106.666666667 -63 130 -63 c 2
 394 -63 l 1
 394 0 l 1
 45 0 l 1
 45 0 l 1
EndSplineSet
EndChar

StartChar: uni0BF7
Encoding: 324 3063 69
Width: 1159
GlyphClass: 2
Flags: HW
LayerCount: 2
Back
Fore
SplineSet
19 184 m 1
 19 243.333333333 45.6666666667 294.333333333 99 337 c 0
 151.666666667 379 215.666666667 400 291 400 c 2
 705 400 l 1
 705 370 l 1
 620 370 l 1
 620 218 l 1
 730 218 l 2
 752 218 771 212 787 200 c 0
 802.333333333 188.666666667 810 174.666666667 810 158 c 1
 819.333333333 176.666666667 834.666666667 191.333333333 856 202 c 0
 876.666666667 212.666666667 900.333333333 218 927 218 c 0
 965.666666667 218 998.666666667 207.666666667 1026 187 c 0
 1053.33333333 165.666666667 1067 140.333333333 1067 111 c 0
 1067 92.3333333333 1063 75.3333333333 1055 60 c 256
 1047 44.6666666667 1036.33333333 33 1023 25 c 1
 1156 25 l 1
 1156 0 l 1
 870 0 l 1
 870 29 l 1
 889.333333333 33.6666666667 905.333333333 43.6666666667 918 59 c 0
 930.666666667 75 937 93 937 113 c 0
 937 128.333333333 931 141.333333333 919 152 c 0
 906.333333333 162.666666667 891.333333333 168 874 168 c 0
 858 168 844 161 832 147 c 0
 820.666666667 133.666666667 815 117.333333333 815 98 c 2
 815 0 l 1
 685 0 l 1
 685 183 l 1
 620 183 l 1
 620 0 l 1
 490 0 l 1
 490 370 l 1
 292 370 l 2
 226 370 170 352 124 316 c 0
 77.3333333333 280 54 236.333333333 54 185 c 0
 54 154.333333333 59.6666666667 127 71 103 c 0
 82.3333333333 78.3333333333 98 60.6666666667 118 50 c 1
 110 58.6666666667 104 70 100 84 c 0
 96 97.3333333333 94 112.333333333 94 129 c 0
 94 169.666666667 107.666666667 202 135 226 c 0
 161.666666667 250.666666667 197.666666667 263 243 263 c 256
 288.333333333 263 324.666666667 251 352 227 c 0
 379.333333333 202.333333333 393 170 393 130 c 0
 393 87.3333333333 375.666666667 53.3333333333 341 28 c 0
 307 2.66666666667 261.333333333 -10 204 -10 c 0
 152.666666667 -10 109 9 73 47 c 256
 37 85 19 130.666666667 19 184 c 1
 19 184 l 1
263 119 m 1
 263 142.333333333 256 162 242 178 c 0
 228.666666667 194.666666667 212.333333333 203 193 203 c 0
 175 203 160 194.666666667 148 178 c 0
 135.333333333 161.333333333 129 141 129 117 c 0
 129 91.6666666667 135.333333333 70 148 52 c 0
 160 34 175 25 193 25 c 0
 212.333333333 25 228.666666667 34.3333333333 242 53 c 0
 256 71 263 93 263 119 c 1
 263 119 l 1
EndSplineSet
EndChar

StartChar: uni0BF8
Encoding: 325 3064 70
Width: 1285
GlyphClass: 2
Flags: HW
LayerCount: 2
Back
Fore
SplineSet
26 274 m 1
 26 362.666666667 54.6666666667 438.333333333 112 501 c 256
 169.333333333 563.666666667 238.666666667 595 320 595 c 0
 392.666666667 595 456.666666667 569 512 517 c 256
 567.333333333 465 600.666666667 399.666666667 612 321 c 1
 617.333333333 323 631 324 653 324 c 0
 709 324 757 307.333333333 797 274 c 0
 836.333333333 240.666666667 856 200.666666667 856 154 c 0
 856 128 852 104.666666667 844 84 c 0
 835.333333333 63.3333333333 823.666666667 47.6666666667 809 37 c 1
 989 37 l 1
 956.333333333 54.3333333333 930.333333333 80.3333333333 911 115 c 0
 891.666666667 149 882 186.666666667 882 228 c 0
 882 274.666666667 896.333333333 314.666666667 925 348 c 0
 954.333333333 380.666666667 989.333333333 397 1030 397 c 0
 1068.66666667 397 1101.66666667 385.666666667 1129 363 c 0
 1156.33333333 339.666666667 1170 312 1170 280 c 2
 1170 37 l 1
 1281 37 l 1
 1281 0 l 1
 1170 0 l 1
 1170 -209 l 1
 1040 -209 l 1
 1040 0 l 1
 660 0 l 1
 660 38 l 1
 680 46.6666666667 696 62.3333333333 708 85 c 0
 720 107 726 132.333333333 726 161 c 0
 726 196.333333333 718.333333333 226.666666667 703 252 c 0
 688.333333333 276.666666667 670.333333333 289 649 289 c 0
 634.333333333 289 624 288 618 286 c 1
 629.333333333 246.666666667 635 194 635 128 c 0
 635 92.6666666667 624 62.3333333333 602 37 c 0
 580 12.3333333333 553.333333333 0 522 0 c 0
 489.333333333 0 461.666666667 12.3333333333 439 37 c 0
 415.666666667 61.6666666667 404 91.6666666667 404 127 c 0
 404 165.666666667 412.333333333 200.333333333 429 231 c 0
 446.333333333 262.333333333 469.333333333 285.333333333 498 300 c 1
 486 374.666666667 461 436.666666667 423 486 c 0
 385.666666667 535.333333333 344 560 298 560 c 0
 232.666666667 560 176.666666667 532.333333333 130 477 c 0
 84 421.666666667 61 354.666666667 61 276 c 0
 61 226.666666667 66.3333333333 183.333333333 77 146 c 0
 87 109.333333333 101.666666667 81.6666666667 121 63 c 1
 111.666666667 82.3333333333 107 102.666666667 107 124 c 0
 107 161.333333333 119.333333333 193.333333333 144 220 c 0
 169.333333333 246.666666667 199.666666667 260 235 260 c 256
 270.333333333 260 300.666666667 246.666666667 326 220 c 0
 350.666666667 194 363 162.333333333 363 125 c 256
 363 87.6666666667 349.333333333 56 322 30 c 0
 294 3.33333333333 260.666666667 -10 222 -10 c 0
 168 -10 121.666666667 17.6666666667 83 73 c 0
 45 128.333333333 26 195.333333333 26 274 c 1
 26 274 l 1
233 118 m 1
 233 142 228.333333333 162.666666667 219 180 c 0
 209.666666667 196.666666667 198.333333333 205 185 205 c 0
 173 205 163 197 155 181 c 0
 146.333333333 165.666666667 142 146.666666667 142 124 c 0
 142 100 146.333333333 79.3333333333 155 62 c 0
 163 45.3333333333 173 37 185 37 c 0
 198.333333333 37 209.666666667 45 219 61 c 0
 228.333333333 76.3333333333 233 95.3333333333 233 118 c 1
 233 118 l 1
515 130 m 1
 515 172.666666667 511 214.666666667 503 256 c 1
 483 243.333333333 467.333333333 226 456 204 c 256
 444.666666667 182 439 157.666666667 439 131 c 0
 439 109 443.333333333 90.3333333333 452 75 c 0
 460 59.6666666667 470 52 482 52 c 0
 491.333333333 52 499 59.6666666667 505 75 c 0
 511.666666667 90.3333333333 515 108.666666667 515 130 c 1
 515 130 l 1
1040 41 m 1
 1040 286 l 2
 1040 302.666666667 1035.66666667 317 1027 329 c 0
 1017.66666667 341 1006.66666667 347 994 347 c 0
 972.666666667 347 954.666666667 334.666666667 940 310 c 0
 924.666666667 285.333333333 917 255.666666667 917 221 c 0
 917 179.666666667 928.333333333 142.666666667 951 110 c 0
 973.666666667 76.6666666667 1003.33333333 53.6666666667 1040 41 c 1
 1040 41 l 1
EndSplineSet
EndChar

StartChar: uni0BF9
Encoding: 326 3065 71
Width: 1050
GlyphClass: 2
Flags: HW
LayerCount: 2
Back
Fore
SplineSet
30 200 m 1
 30 312 68 407.666666667 144 487 c 256
 220 566.333333333 312 606 420 606 c 0
 494.666666667 606 560.333333333 590.333333333 617 559 c 256
 673.666666667 527.666666667 710.666666667 486.666666667 728 436 c 1
 736 458 750 476 770 490 c 0
 790.666666667 503.333333333 813.333333333 510 838 510 c 0
 875.333333333 510 907.333333333 499.333333333 934 478 c 256
 960.666666667 456.666666667 974 430.666666667 974 400 c 1
 1047 400 l 1
 1047 374 l 1
 888 374 l 1
 888 402 881.666666667 425.666666667 869 445 c 0
 856.333333333 465 841 475 823 475 c 0
 807.666666667 475 793.666666667 466.333333333 781 449 c 256
 768.333333333 431.666666667 760 410 756 384 c 1
 708 384 l 1
 699.333333333 438 667.666666667 482.666666667 613 518 c 0
 559 553.333333333 494.666666667 571 420 571 c 0
 348 571 286.666666667 534.666666667 236 462 c 0
 185.333333333 390 160 302.666666667 160 200 c 0
 160 92 183.333333333 5.66666666667 230 -59 c 0
 276.666666667 -124.333333333 339 -157 417 -157 c 0
 482.333333333 -157 538 -135.666666667 584 -93 c 0
 630 -51 653 0 653 60 c 0
 653 95.3333333333 646.666666667 125.666666667 634 151 c 0
 621.333333333 175.666666667 606 188 588 188 c 0
 578.666666667 188 570.666666667 184 564 176 c 0
 557.333333333 168.666666667 554 159.333333333 554 148 c 2
 554 0 l 1
 424 0 l 1
 424 370 l 1
 283 370 l 1
 283 0 l 1
 248 0 l 1
 248 400 l 1
 653 400 l 1
 653 370 l 1
 554 370 l 1
 554 214 l 1
 564 223.333333333 576 230.333333333 590 235 c 0
 604 240.333333333 619 243 635 243 c 0
 679.666666667 243 715.666666667 226 743 192 c 0
 769.666666667 158.666666667 783 114 783 58 c 0
 783 -17.3333333333 749.666666667 -78 683 -124 c 0
 616.333333333 -169.333333333 527.333333333 -192 416 -192 c 0
 299.333333333 -192 205.666666667 -156.333333333 135 -85 c 0
 65 -13.6666666667 30 81.3333333333 30 200 c 1
 30 200 l 1
EndSplineSet
EndChar

StartChar: uni0BFA
Encoding: 327 3066 72
Width: 1057
GlyphClass: 2
Flags: HW
LayerCount: 2
Back
Fore
SplineSet
45 0 m 1
 45 400 l 1
 282 400 l 1
 271.333333333 408.666666667 263.333333333 419.666666667 258 433 c 0
 252 446.333333333 249 460.666666667 249 476 c 0
 249 512 267.333333333 542.666666667 304 568 c 0
 341.333333333 593.333333333 386 606 438 606 c 0
 510 606 573.666666667 586.666666667 629 548 c 0
 684.333333333 510 719.666666667 460.666666667 735 400 c 1
 804.333333333 400 863.333333333 381.333333333 912 344 c 256
 960.666666667 306.666666667 985 261.333333333 985 208 c 0
 985 168.666666667 968.666666667 132.666666667 936 100 c 0
 902.666666667 66.6666666667 860 43.6666666667 808 31 c 1
 1053 31 l 1
 1053 0 l 1
 662 0 l 1
 662 29 l 1
 715.333333333 29 760.666666667 46.6666666667 798 82 c 0
 836 118 855 161 855 211 c 0
 855 255 843.666666667 292.333333333 821 323 c 0
 799 354.333333333 772 370 740 370 c 1
 746.666666667 343.333333333 750 315.666666667 750 287 c 0
 750 252.333333333 739.333333333 224.333333333 718 203 c 0
 697.333333333 182.333333333 669.333333333 172 634 172 c 0
 600.666666667 172 573.666666667 182 553 202 c 0
 533 222 523 248.666666667 523 282 c 0
 523 314.666666667 540.666666667 342.333333333 576 365 c 0
 610.666666667 388.333333333 653 400 703 400 c 1
 687 446.666666667 656.666666667 484.666666667 612 514 c 0
 568 542.666666667 518 557 462 557 c 0
 417.333333333 557 379 547.333333333 347 528 c 0
 315.666666667 508.666666667 300 485.333333333 300 458 c 0
 300 444.666666667 301.666666667 433 305 423 c 0
 309 413 314 405.333333333 320 400 c 1
 511 400 l 1
 511 370 l 1
 348 370 l 1
 348 251 l 1
 352.666666667 254.333333333 359.333333333 257 368 259 c 0
 376 261 385.666666667 262 397 262 c 0
 431.666666667 262 461.333333333 250 486 226 c 256
 510.666666667 202 523 173 523 139 c 0
 523 100.333333333 509.666666667 67.6666666667 483 41 c 0
 456.333333333 13.6666666667 424 0 386 0 c 2
 218 0 l 1
 218 31 l 1
 340 31 l 2
 364 31 384.666666667 41.6666666667 402 63 c 0
 419.333333333 83.6666666667 428 109 428 139 c 0
 428 163 423.666666667 183.666666667 415 201 c 0
 405.666666667 218.333333333 394.666666667 227 382 227 c 0
 372.666666667 227 364.666666667 223 358 215 c 0
 351.333333333 206.333333333 348 196.333333333 348 185 c 2
 348 106 l 1
 218 106 l 1
 218 370 l 1
 80 370 l 1
 80 0 l 1
 45 0 l 1
 45 0 l 1
715 290 m 1
 715 320 712.333333333 346.666666667 707 370 c 1
 692.333333333 370 679.666666667 362 669 346 c 256
 658.333333333 330 653 310.666666667 653 288 c 0
 653 274.666666667 656.333333333 263.333333333 663 254 c 256
 669.666666667 244.666666667 677.666666667 240 687 240 c 0
 695 240 701.666666667 245 707 255 c 0
 712.333333333 264.333333333 715 276 715 290 c 1
 715 290 l 1
EndSplineSet
EndChar

StartChar: uni0964
Encoding: 328 2404 73
Width: 265
GlyphClass: 2
Flags: HW
LayerCount: 2
Back
Fore
SplineSet
220 0 m 1
 90 0 l 1
 90 400 l 1
 220 400 l 1
 220 0 l 1
 220 0 l 1
EndSplineSet
EndChar

StartChar: uni0965
Encoding: 329 2405 74
Width: 485
GlyphClass: 2
Flags: HW
LayerCount: 2
Back
Fore
SplineSet
440 0 m 1
 310 0 l 1
 310 400 l 1
 440 400 l 1
 440 0 l 1
 440 0 l 1
220 0 m 1
 90 0 l 1
 90 400 l 1
 220 400 l 1
 220 0 l 1
 220 0 l 1
EndSplineSet
EndChar

StartChar: uni0BB6
Encoding: 330 2998 75
Width: 761
GlyphClass: 2
Flags: HW
LayerCount: 2
Back
Fore
SplineSet
38 130 m 1
 38 400 l 1
 73 400 l 1
 73 130 l 2
 73 111.333333333 79.6666666667 95.3333333333 93 82 c 256
 106.333333333 68.6666666667 122.666666667 62 142 62 c 0
 162.666666667 62 180.333333333 68.6666666667 195 82 c 256
 209.666666667 95.3333333333 217 111.333333333 217 130 c 2
 217 400 l 1
 724 400 l 1
 724 131 l 2
 724 95 707.333333333 64 674 38 c 0
 640.666666667 12.6666666667 600.666666667 0 554 0 c 0
 515.333333333 0 482.666666667 12.6666666667 456 38 c 0
 428.666666667 64 415 95 415 131 c 2
 415 370 l 1
 347 370 l 1
 347 133 l 2
 347 96.3333333333 330.333333333 65 297 39 c 256
 263.666666667 13 223.666666667 0 177 0 c 0
 138.333333333 0 105.666666667 12.6666666667 79 38 c 0
 51.6666666667 63.3333333333 38 94 38 130 c 1
 38 130 l 1
450 370 m 1
 450 131 l 2
 450 111.666666667 456.666666667 95.3333333333 470 82 c 256
 483.333333333 68.6666666667 499.666666667 62 519 62 c 0
 539.666666667 62 557.333333333 68.6666666667 572 82 c 256
 586.666666667 95.3333333333 594 111.666666667 594 131 c 2
 594 370 l 1
 450 370 l 1
 450 370 l 1
EndSplineSet
EndChar

StartChar: uni0BD0
Encoding: 331 3024 76
Width: 768
GlyphClass: 2
Flags: HW
LayerCount: 2
Back
Fore
SplineSet
18 156 m 1
 18 226.666666667 48.3333333333 283.333333333 109 326 c 0
 170.333333333 368.666666667 251.666666667 390 353 390 c 0
 473.666666667 390 570 368.666666667 642 326 c 0
 714.666666667 282.666666667 751 225.333333333 751 154 c 0
 751 110 733.666666667 74.6666666667 699 48 c 256
 664.333333333 21.3333333333 618 8 560 8 c 0
 529.333333333 8 503.333333333 17.6666666667 482 37 c 0
 460 57 449 80.6666666667 449 108 c 0
 449 116.666666667 450.666666667 124.333333333 454 131 c 1
 442 122.333333333 432.333333333 110 425 94 c 0
 418.333333333 78 415 60 415 40 c 0
 415 10 432 -15.6666666667 466 -37 c 0
 500.666666667 -58.3333333333 542 -69 590 -69 c 2
 699 -69 l 1
 699 -104 l 1
 594 -104 l 2
 574.666666667 -104 558 -111 544 -125 c 256
 530 -139 523 -156 523 -176 c 0
 523 -208 497.666666667 -233.666666667 447 -253 c 0
 397 -272.333333333 330 -282 246 -282 c 0
 175.333333333 -282 118.666666667 -268 76 -240 c 0
 33.3333333333 -212.666666667 12 -176 12 -130 c 0
 12 -106.666666667 19.3333333333 -86.6666666667 34 -70 c 0
 49.3333333333 -53.3333333333 67.3333333333 -45 88 -45 c 0
 104.666666667 -45 119 -51 131 -63 c 0
 143 -74.3333333333 149 -88.3333333333 149 -105 c 2
 149 -148 l 1
 224 -148 l 1
 224 -111 l 2
 224 -95 231 -81.6666666667 245 -71 c 0
 259.666666667 -59.6666666667 277 -54 297 -54 c 0
 320.333333333 -54 340 -61.6666666667 356 -77 c 0
 372.666666667 -92.3333333333 381 -111 381 -133 c 2
 381 -183 l 1
 114 -183 l 1
 114 -105 l 2
 114 -98.3333333333 111.333333333 -92.3333333333 106 -87 c 0
 101.333333333 -82.3333333333 95.3333333333 -80 88 -80 c 0
 76.6666666667 -80 67 -84.6666666667 59 -94 c 0
 51 -104 47 -115.666666667 47 -129 c 0
 47 -165 65.3333333333 -193.666666667 102 -215 c 0
 138 -236.333333333 186.333333333 -247 247 -247 c 0
 291 -247 326.333333333 -239.333333333 353 -224 c 0
 379.666666667 -209.333333333 393 -189.333333333 393 -164 c 0
 393 -140.666666667 400.333333333 -121 415 -105 c 0
 429 -88.3333333333 446.333333333 -80 467 -80 c 1
 441.666666667 -73.3333333333 420.666666667 -58.6666666667 404 -36 c 0
 388 -13.3333333333 380 13 380 43 c 0
 380 79 391.666666667 109.666666667 415 135 c 0
 439 160.333333333 467.666666667 173 501 173 c 1
 495.666666667 167 491.333333333 158.333333333 488 147 c 0
 485.333333333 135.666666667 484 123 484 109 c 0
 484 91 490.333333333 75.3333333333 503 62 c 0
 516.333333333 49.3333333333 532 43 550 43 c 0
 569.333333333 43 586 53.6666666667 600 75 c 256
 614 96.3333333333 621 122.333333333 621 153 c 0
 621 209 594.333333333 256.666666667 541 296 c 0
 487 335.333333333 422.333333333 355 347 355 c 0
 265.666666667 355 196.333333333 335.666666667 139 297 c 0
 81.6666666667 257.666666667 53 210.666666667 53 156 c 0
 53 126.666666667 60 100 74 76 c 0
 88 52.6666666667 106.666666667 36.6666666667 130 28 c 1
 122 35.3333333333 115.666666667 45.6666666667 111 59 c 256
 106.333333333 72.3333333333 104 87.6666666667 104 105 c 0
 104 137.666666667 115.333333333 165.333333333 138 188 c 0
 160.666666667 211.333333333 188 223 220 223 c 256
 252 223 279.333333333 211.666666667 302 189 c 0
 324.666666667 165.666666667 336 138 336 106 c 256
 336 74 323.333333333 46.6666666667 298 24 c 256
 272.666666667 1.33333333333 242 -10 206 -10 c 0
 154 -10 109.666666667 6.33333333333 73 39 c 0
 36.3333333333 71 18 110 18 156 c 1
 18 156 l 1
246 96 m 1
 246 117.333333333 240.666666667 135.333333333 230 150 c 0
 218.666666667 165.333333333 205.333333333 173 190 173 c 0
 176 173 164 165.333333333 154 150 c 0
 144 135.333333333 139 117.333333333 139 96 c 0
 139 76.6666666667 144 60 154 46 c 256
 164 32 176 25 190 25 c 0
 205.333333333 25 218.666666667 32 230 46 c 0
 240.666666667 60 246 76.6666666667 246 96 c 1
 246 96 l 1
366 -13 m 1
 366 -21.6666666667 362.666666667 -29.3333333333 356 -36 c 0
 350 -42 342.333333333 -45 333 -45 c 0
 324.333333333 -45 316.666666667 -42 310 -36 c 0
 304 -29.3333333333 301 -21.6666666667 301 -13 c 0
 301 -3.66666666667 304 4 310 10 c 0
 316.666666667 16.6666666667 324.333333333 20 333 20 c 0
 342.333333333 20 350 16.6666666667 356 10 c 0
 362.666666667 4 366 -3.66666666667 366 -13 c 1
 366 -13 l 1
346 -134 m 1
 346 -121.333333333 343 -110.666666667 337 -102 c 256
 331 -93.3333333333 323.666666667 -89 315 -89 c 0
 308.333333333 -89 302.333333333 -91 297 -95 c 0
 292.333333333 -99 290 -103.666666667 290 -109 c 2
 290 -148 l 1
 346 -148 l 1
 346 -134 l 1
 346 -134 l 1
EndSplineSet
EndChar

StartChar: uni20B9
Encoding: 332 8377 77
Width: 651
GlyphClass: 2
Flags: HW
LayerCount: 2
Back
Fore
SplineSet
45 438 m 1
 45 480 l 1
 606 480 l 1
 606 438 l 1
 400 438 l 1
 418 427.333333333 432.666666667 413.666666667 444 397 c 0
 455.333333333 381 461.666666667 364 463 346 c 1
 606 346 l 1
 606 302 l 1
 463 302 l 1
 457.666666667 267.333333333 430.333333333 238.666666667 381 216 c 256
 331.666666667 193.333333333 272.333333333 182 203 182 c 1
 226.333333333 138 256.333333333 103 293 77 c 0
 329 51.6666666667 366.666666667 39 406 39 c 0
 431.333333333 39 456.333333333 46.3333333333 481 61 c 1
 498 34 l 1
 456 6.66666666667 412.333333333 -7 367 -7 c 0
 297 -7 233 11.3333333333 175 48 c 0
 117.666666667 84.6666666667 76 133.666666667 50 195 c 1
 50 209 l 1
 120.666666667 209 180.666666667 217.666666667 230 235 c 256
 279.333333333 252.333333333 307 274.666666667 313 302 c 1
 45 302 l 1
 45 346 l 1
 316 346 l 1
 314 372 304 394 286 412 c 0
 268 429.333333333 247 438 223 438 c 2
 45 438 l 1
 45 438 l 1
EndSplineSet
EndChar

StartChar: uni0B95_uni0BBF
Encoding: 333 -1 78
Width: 726
GlyphClass: 2
Flags: HW
LayerCount: 2
Back
Fore
SplineSet
141 400 m 1
 525 400 l 1
 525 370 l 1
 403 370 l 1
 403 220 l 1
 483 220 l 2
 521 220 551.333333333 210.333333333 574 191 c 256
 596.666666667 171.666666667 608 146 608 114 c 0
 608 73.3333333333 592 44 560 26 c 0
 528.666666667 8.66666666667 476.333333333 0 403 0 c 1
 403 30 l 1
 431 30 450.333333333 36 461 48 c 0
 472.333333333 60.6666666667 478 82.3333333333 478 113 c 0
 478 137 473.333333333 155 464 167 c 256
 454.666666667 179 441 185 423 185 c 2
 403 185 l 1
 403 131 l 2
 403 87 383.333333333 54 344 32 c 0
 304.666666667 9.33333333333 246.666666667 -2 170 -2 c 0
 127.333333333 -2 91 11.3333333333 61 38 c 256
 31 64.6666666667 16 96.6666666667 16 134 c 0
 16 158.666666667 25.3333333333 178.333333333 44 193 c 256
 62.6666666667 207.666666667 87.6666666667 215 119 215 c 1
 95.6666666667 240.333333333 77.6666666667 268 65 298 c 0
 52.3333333333 327.333333333 46 357.333333333 46 388 c 0
 46 481.333333333 75 556 133 612 c 0
 190.333333333 668 267 696 363 696 c 256
 459 696 536 666.333333333 594 607 c 0
 652 547 681 467.666666667 681 369 c 2
 681 0 l 1
 646 0 l 1
 646 370 l 2
 646 432 618.333333333 484.666666667 563 528 c 0
 507.666666667 572 441 594 363 594 c 256
 285 594 218.666666667 573 164 531 c 0
 108.666666667 488.333333333 81 437.333333333 81 378 c 0
 81 354.666666667 86 330.666666667 96 306 c 0
 106.666666667 281.333333333 121.666666667 257.333333333 141 234 c 1
 141 400 l 1
 141 400 l 1
286 220 m 1
 286 370 l 1
 176 370 l 1
 176 220 l 1
 286 220 l 1
 286 220 l 1
286 138 m 1
 286 185 l 1
 119 185 l 2
 98.3333333333 185 82 180.333333333 70 171 c 0
 57.3333333333 162.333333333 51 150.333333333 51 135 c 0
 51 104.333333333 62 79.6666666667 84 61 c 256
 106 42.3333333333 135 33 171 33 c 0
 203 33 230 43.3333333333 252 64 c 0
 274.666666667 84.6666666667 286 109.333333333 286 138 c 1
 286 138 l 1
EndSplineSet
Ligature2: "'abvs' Above Base Substitutions in Tamil lookup 2 subtable" uni0B95 uni0BBF
EndChar

StartChar: uni0B99_uni0BBF
Encoding: 334 -1 79
Width: 894
GlyphClass: 2
Flags: HW
LayerCount: 2
Back
Fore
SplineSet
745 0 m 1
 218 0 l 1
 218 30 l 1
 384 30 l 1
 402.666666667 40 417.333333333 56 428 78 c 256
 438.666666667 100 444 124.666666667 444 152 c 0
 444 176 438 196.666666667 426 214 c 256
 414 231.333333333 399.666666667 240 383 240 c 0
 373.666666667 240 365.333333333 235.666666667 358 227 c 0
 351.333333333 219 348 209 348 197 c 2
 348 110 l 1
 218 110 l 1
 218 370 l 1
 80 370 l 1
 80 0 l 1
 45 0 l 1
 45 400 l 1
 454 400 l 1
 454 370 l 1
 348 370 l 1
 348 257 l 1
 357.333333333 265.666666667 370 272.666666667 386 278 c 0
 402.666666667 282.666666667 421.333333333 285 442 285 c 0
 482 285 514 272.333333333 538 247 c 0
 562 222.333333333 574 189 574 147 c 0
 574 121.666666667 566.333333333 98.3333333333 551 77 c 256
 535.666666667 55.6666666667 515.333333333 40 490 30 c 1
 615 30 l 1
 615 308 l 1
 580.333333333 314 552 332.666666667 530 364 c 0
 507.333333333 396 496 433 496 475 c 0
 496 541.666666667 512 595.333333333 544 636 c 0
 575.333333333 676 617.333333333 696 670 696 c 0
 724 696 767.333333333 673.666666667 800 629 c 256
 832.666666667 584.333333333 849 525 849 451 c 2
 849 0 l 1
 814 0 l 1
 814 449 l 2
 814 493 801 528 775 554 c 0
 748.333333333 580.666666667 713.333333333 594 670 594 c 0
 628 594 594.333333333 582.333333333 569 559 c 0
 543.666666667 536.333333333 531 505.666666667 531 467 c 0
 531 435 539.666666667 405.666666667 557 379 c 0
 575 352.333333333 594.333333333 339 615 339 c 1
 615 400 l 1
 745 400 l 1
 745 0 l 1
 745 0 l 1
EndSplineSet
Ligature2: "'abvs' Above Base Substitutions in Tamil lookup 2 subtable" uni0B99 uni0BBF
EndChar

StartChar: uni0B9A_uni0BBF
Encoding: 335 -1 80
Width: 651
GlyphClass: 2
Flags: HW
LayerCount: 2
Back
Fore
SplineSet
522 185 m 1
 422 185 l 1
 422 137 l 2
 422 91 403 56.3333333333 365 33 c 256
 327 9.66666666667 270.666666667 -2 196 -2 c 0
 143.333333333 -2 101.333333333 10.6666666667 70 36 c 0
 38 61.3333333333 22 95 22 137 c 0
 22 160.333333333 30.6666666667 179.333333333 48 194 c 0
 65.3333333333 208 88.3333333333 215 117 215 c 1
 90.3333333333 233.666666667 69.6666666667 258.333333333 55 289 c 0
 39.6666666667 319.666666667 32 353 32 389 c 0
 32 481.666666667 58 556 110 612 c 0
 161.333333333 668 230 696 316 696 c 0
 412 696 484.333333333 668.333333333 533 613 c 0
 581.666666667 558.333333333 606 477 606 369 c 2
 606 0 l 1
 571 0 l 1
 571 370 l 2
 571 438 547.666666667 492.333333333 501 533 c 0
 455 573.666666667 393.333333333 594 316 594 c 0
 240.666666667 594 180.333333333 574.666666667 135 536 c 0
 89.6666666667 496.666666667 67 444.666666667 67 380 c 0
 67 350.666666667 73.3333333333 323.666666667 86 299 c 0
 98 273.666666667 115 254 137 240 c 1
 137 400 l 1
 522 400 l 1
 522 370 l 1
 422 370 l 1
 422 220 l 1
 522 220 l 1
 522 185 l 1
 522 185 l 1
292 220 m 1
 292 370 l 1
 172 370 l 1
 172 220 l 1
 292 220 l 1
 292 220 l 1
292 137 m 1
 292 185 l 1
 125 185 l 2
 104.333333333 185 88 180.666666667 76 172 c 0
 63.3333333333 163.333333333 57 151.666666667 57 137 c 0
 57 105.666666667 69.6666666667 80.3333333333 95 61 c 0
 120.333333333 42.3333333333 154.333333333 33 197 33 c 0
 225.666666667 33 248.666666667 42.3333333333 266 61 c 0
 283.333333333 80.3333333333 292 105.666666667 292 137 c 1
 292 137 l 1
EndSplineSet
Ligature2: "'abvs' Above Base Substitutions in Tamil lookup 2 subtable" uni0B9A uni0BBF
EndChar

StartChar: uni0B9C_uni0BBF
Encoding: 336 -1 81
Width: 897
GlyphClass: 2
Flags: HW
LayerCount: 2
Back
Fore
SplineSet
852 0 m 1
 817 0 l 1
 817 477 l 2
 817 509 803.666666667 536.666666667 777 560 c 0
 750.333333333 582.666666667 718.333333333 594 681 594 c 0
 647.666666667 594 619 583 595 561 c 0
 571.666666667 539 560 512.666666667 560 482 c 0
 560 456.666666667 564.666666667 432 574 408 c 1
 623.333333333 406 665.333333333 387.666666667 700 353 c 0
 734 318.333333333 751 276.666666667 751 228 c 0
 751 169.333333333 729.333333333 125 686 95 c 256
 642.666666667 65 578.333333333 50 493 50 c 2
 237 50 l 2
 203.666666667 50 175.333333333 39 152 17 c 0
 128.666666667 -5.66666666667 117 -32.6666666667 117 -64 c 0
 117 -96.6666666667 125.666666667 -124.666666667 143 -148 c 0
 161 -171.333333333 182.333333333 -183 207 -183 c 0
 227 -183 250.333333333 -174.666666667 277 -158 c 0
 303.666666667 -142 331.666666667 -118.666666667 361 -88 c 0
 391 -57.3333333333 423.333333333 -33.3333333333 458 -16 c 0
 492.666666667 0.666666666667 526.666666667 9 560 9 c 0
 618 9 664.333333333 -2.33333333333 699 -25 c 0
 733.666666667 -47 751 -76.6666666667 751 -114 c 0
 751 -148.666666667 733.333333333 -176.333333333 698 -197 c 0
 663.333333333 -217.666666667 616.666666667 -228 558 -228 c 0
 532 -228 508 -224 486 -216 c 256
 464 -208 445.666666667 -196.333333333 431 -181 c 1
 446 -157 l 1
 460 -168.333333333 476.666666667 -177.333333333 496 -184 c 0
 515.333333333 -190 536 -193 558 -193 c 0
 575.333333333 -193 590.333333333 -185.333333333 603 -170 c 0
 615 -154 621 -135 621 -113 c 0
 621 -89 614 -68.3333333333 600 -51 c 0
 586 -34.3333333333 569 -26 549 -26 c 0
 502.333333333 -26 444.666666667 -58 376 -122 c 256
 307.333333333 -186 249.666666667 -218 203 -218 c 0
 144.333333333 -218 97 -204 61 -176 c 0
 25.6666666667 -148 8 -110.666666667 8 -64 c 0
 8 -22.6666666667 28 12.3333333333 68 41 c 0
 108 70.3333333333 156 85 212 85 c 2
 494 85 l 2
 529.333333333 85 559.333333333 99.3333333333 584 128 c 256
 608.666666667 156.666666667 621 191 621 231 c 0
 621 270.333333333 614 303.666666667 600 331 c 0
 585.333333333 359 568 373 548 373 c 0
 528.666666667 373 512 363 498 343 c 256
 484 323 477 299 477 271 c 2
 477 138 l 1
 347 138 l 1
 347 259 l 2
 347 290.333333333 331.666666667 317.333333333 301 340 c 0
 270.333333333 362 233.333333333 373 190 373 c 0
 152 373 119.333333333 361.666666667 92 339 c 0
 65.3333333333 316.333333333 52 289 52 257 c 0
 52 229.666666667 58.6666666667 206 72 186 c 0
 85.3333333333 166.666666667 101.666666667 156 121 154 c 1
 109.666666667 158 100.333333333 166.666666667 93 180 c 0
 85.6666666667 194 82 210.333333333 82 229 c 0
 82 259.666666667 91.6666666667 284 111 302 c 0
 130.333333333 320.666666667 156.333333333 330 189 330 c 256
 221.666666667 330 247.666666667 320.333333333 267 301 c 0
 286.333333333 282.333333333 296 257 296 225 c 0
 296 195.666666667 284.333333333 172 261 154 c 256
 237.666666667 136 206.666666667 127 168 127 c 0
 122 127 85.3333333333 139 58 163 c 256
 30.6666666667 187 17 218.666666667 17 258 c 0
 17 299.333333333 35.6666666667 334.666666667 73 364 c 256
 110.333333333 393.333333333 155.666666667 408 209 408 c 0
 253 408 292.666666667 400.333333333 328 385 c 0
 362.666666667 369 389 347.333333333 407 320 c 1
 416.333333333 344 433 363.666666667 457 379 c 0
 481.666666667 395 510 404.333333333 542 407 c 1
 530.666666667 441.666666667 525 468.333333333 525 487 c 0
 525 550.333333333 539.666666667 601 569 639 c 256
 598.333333333 677 637.333333333 696 686 696 c 0
 736 696 776.333333333 676.333333333 807 637 c 0
 837 597 852 544.333333333 852 479 c 2
 852 0 l 1
 852 0 l 1
210 225 m 1
 210 244.333333333 205.333333333 260.666666667 196 274 c 0
 186 288 174.333333333 295 161 295 c 0
 149 295 138.666666667 288.666666667 130 276 c 0
 121.333333333 262.666666667 117 247 117 229 c 0
 117 210.333333333 121.333333333 194.666666667 130 182 c 0
 138.666666667 168.666666667 149 162 161 162 c 0
 174.333333333 162 186 168 196 180 c 0
 205.333333333 192.666666667 210 207.666666667 210 225 c 1
 210 225 l 1
EndSplineSet
Ligature2: "'abvs' Above Base Substitutions in Tamil lookup 2 subtable" uni0B9C uni0BBF
EndChar

StartChar: uni0B9E_uni0BBF
Encoding: 337 -1 82
Width: 1131
GlyphClass: 2
Flags: HW
LayerCount: 2
Back
Fore
SplineSet
998 88 m 1
 998 -22 950.666666667 -107.333333333 856 -168 c 0
 760.666666667 -228.666666667 627.333333333 -259 456 -259 c 0
 331.333333333 -259 228 -222.666666667 146 -150 c 0
 64.6666666667 -77.3333333333 24 14.6666666667 24 126 c 0
 24 172 34.6666666667 218.333333333 56 265 c 0
 78 311.666666667 109 355 149 395 c 1
 169 373 l 1
 133.666666667 336.333333333 106.666666667 296.666666667 88 254 c 0
 68.6666666667 211.333333333 59 168.333333333 59 125 c 0
 59 24.3333333333 96.6666666667 -59 172 -125 c 0
 246.666666667 -191 341.333333333 -224 456 -224 c 0
 586 -224 687.333333333 -196.666666667 760 -142 c 0
 832 -86.6666666667 868 -9.66666666667 868 89 c 0
 868 120.333333333 859.333333333 147 842 169 c 256
 824.666666667 191 803.666666667 202 779 202 c 0
 768.333333333 202 759.333333333 197.333333333 752 188 c 256
 744.666666667 178.666666667 741 167.666666667 741 155 c 2
 741 0 l 1
 611 0 l 1
 611 370 l 1
 442 370 l 2
 376.666666667 370 320.666666667 352 274 316 c 0
 228 280 205 236.333333333 205 185 c 0
 205 153.666666667 210.333333333 126 221 102 c 0
 232.333333333 78 247.333333333 60.6666666667 266 50 c 1
 258.666666667 58 253.333333333 68 250 80 c 0
 246 92 244 105.333333333 244 120 c 0
 244 162.666666667 257.666666667 197 285 223 c 256
 312.333333333 249 348.666666667 262 394 262 c 256
 439.333333333 262 475.666666667 250 503 226 c 256
 530.333333333 202 544 170 544 130 c 256
 544 90 528 57.6666666667 496 33 c 0
 464.666666667 9 422.666666667 -3 370 -3 c 0
 309.333333333 -3 261 14 225 48 c 0
 188.333333333 82 170 127.333333333 170 184 c 0
 170 246.666666667 196 298.333333333 248 339 c 0
 299.333333333 379.666666667 364.666666667 400 444 400 c 2
 628 400 l 1
 611.333333333 428.666666667 603 455.666666667 603 481 c 0
 603 540.333333333 624.666666667 591 668 633 c 0
 710.666666667 675 762.666666667 696 824 696 c 0
 914 696 980.333333333 671.666666667 1023 623 c 0
 1065 574.333333333 1086 498 1086 394 c 2
 1086 0 l 1
 1051 0 l 1
 1051 397 l 2
 1051 462.333333333 1031.66666667 511.333333333 993 544 c 0
 954.333333333 577.333333333 897.333333333 594 822 594 c 0
 771.333333333 594 728 582.333333333 692 559 c 256
 656 535.666666667 638 507.333333333 638 474 c 0
 638 457.333333333 639.666666667 442.666666667 643 430 c 0
 647 416.666666667 652.333333333 406.666666667 659 400 c 1
 837 400 l 1
 837 370 l 1
 741 370 l 1
 741 228 l 1
 765.666666667 244 793.333333333 252 824 252 c 0
 876.666666667 252 918.666666667 237 950 207 c 0
 982 177 998 137.333333333 998 88 c 1
 998 88 l 1
414 119 m 1
 414 142.333333333 407 162 393 178 c 0
 379.666666667 194.666666667 363.333333333 203 344 203 c 0
 326 203 310.666666667 194.666666667 298 178 c 256
 285.333333333 161.333333333 279 141 279 117 c 0
 279 93.6666666667 285.333333333 73.6666666667 298 57 c 256
 310.666666667 40.3333333333 326 32 344 32 c 0
 363.333333333 32 379.666666667 40.3333333333 393 57 c 0
 407 74.3333333333 414 95 414 119 c 1
 414 119 l 1
EndSplineSet
Ligature2: "'abvs' Above Base Substitutions in Tamil lookup 2 subtable" uni0B9E uni0BBF
EndChar

StartChar: uni0B9F_uni0BBF
Encoding: 338 -1 83
Width: 777
GlyphClass: 2
Flags: HW
LayerCount: 2
Back
Fore
SplineSet
774 0 m 1
 591 0 l 1
 591 -231 l 1
 461 -231 l 1
 461 0 l 1
 45 0 l 1
 45 400 l 1
 175 400 l 1
 175 30 l 1
 416 30 l 1
 381.333333333 45.3333333333 353.666666667 69.6666666667 333 103 c 256
 312.333333333 136.333333333 302 173 302 213 c 0
 302 272.333333333 314.333333333 318.333333333 339 351 c 0
 364.333333333 383.666666667 399.333333333 400 444 400 c 0
 484.666666667 400 519.333333333 388 548 364 c 0
 576.666666667 340.666666667 591 312 591 278 c 2
 591 30 l 1
 774 30 l 1
 774 0 l 1
 774 0 l 1
461 32 m 1
 461 282 l 2
 461 302.666666667 457.333333333 319 450 331 c 0
 442 343.666666667 431.666666667 350 419 350 c 0
 396.333333333 350 377 336.666666667 361 310 c 0
 345 284 337 252.333333333 337 215 c 0
 337 175.666666667 348.333333333 139.333333333 371 106 c 256
 393.666666667 72.6666666667 423.666666667 48 461 32 c 1
 461 32 l 1
EndSplineSet
Ligature2: "'abvs' Above Base Substitutions in Tamil lookup 2 subtable" uni0B9F uni0BBF
EndChar

StartChar: uni0BA3_uni0BBF
Encoding: 339 -1 84
Width: 1356
GlyphClass: 2
Flags: HW
LayerCount: 2
Back
Fore
SplineSet
1012 490 m 1
 1012 552 1025.66666667 602 1053 640 c 0
 1080.33333333 677.333333333 1116.66666667 696 1162 696 c 0
 1211.33333333 696 1248.33333333 673.333333333 1273 628 c 0
 1298.33333333 583.333333333 1311 516.666666667 1311 428 c 2
 1311 0 l 1
 1276 0 l 1
 1276 432 l 2
 1276 485.333333333 1266.33333333 525.666666667 1247 553 c 256
 1227.66666667 580.333333333 1199.33333333 594 1162 594 c 0
 1127.33333333 594 1099.33333333 584.333333333 1078 565 c 0
 1057.33333333 545 1047 518.666666667 1047 486 c 0
 1047 452.666666667 1055 424 1071 400 c 1
 1226 400 l 1
 1226 370 l 1
 1144 370 l 1
 1144 0 l 1
 1014 0 l 1
 1014 370 l 1
 963 370 l 2
 926.333333333 370 894.666666667 360 868 340 c 1
 900.666666667 310 925.666666667 277.333333333 943 242 c 0
 961 206.666666667 970 171.666666667 970 137 c 0
 970 96.3333333333 956.333333333 61.3333333333 929 32 c 0
 902.333333333 3.33333333333 869.666666667 -11 831 -11 c 0
 793 -11 760.333333333 3.33333333333 733 32 c 0
 706.333333333 61.3333333333 693 96.3333333333 693 137 c 0
 693 167 699.333333333 197.333333333 712 228 c 256
 724.666666667 258.666666667 743 287.666666667 767 315 c 1
 751 332.333333333 733.333333333 346 714 356 c 0
 694 365.333333333 673.666666667 370 653 370 c 0
 638.333333333 370 623.333333333 367 608 361 c 256
 592.666666667 355 578 346.333333333 564 335 c 1
 596.666666667 306.333333333 622 275 640 241 c 0
 658 206.333333333 667 171.666666667 667 137 c 0
 667 96.3333333333 653 61.3333333333 625 32 c 0
 597 3.33333333333 563.333333333 -11 524 -11 c 256
 484.666666667 -11 451 3.33333333333 423 32 c 0
 395 61.3333333333 381 96.3333333333 381 137 c 0
 381 170.333333333 387 202 399 232 c 0
 411 262.666666667 428 289.333333333 450 312 c 1
 428.666666667 330.666666667 403.666666667 345 375 355 c 0
 347 365 317.333333333 370 286 370 c 0
 222 370 167.666666667 351 123 313 c 0
 77.6666666667 275 55 229 55 175 c 0
 55 141.666666667 61 112.333333333 73 87 c 0
 85 62.3333333333 101 46.3333333333 121 39 c 1
 112.333333333 48.3333333333 106 60 102 74 c 0
 97.3333333333 87.3333333333 95 102 95 118 c 0
 95 159.333333333 107.333333333 192.333333333 132 217 c 256
 156.666666667 241.666666667 189.333333333 254 230 254 c 0
 267.333333333 254 299.333333333 241 326 215 c 256
 352.666666667 189 366 157.333333333 366 120 c 0
 366 80.6666666667 350 49 318 25 c 0
 285.333333333 1 242.333333333 -11 189 -11 c 0
 142.333333333 -11 102.333333333 7 69 43 c 0
 36.3333333333 79 20 122.333333333 20 173 c 0
 20 243 46 299.333333333 98 342 c 0
 150 384 219.333333333 405 306 405 c 0
 360 405 406 401 444 393 c 0
 482 385.666666667 510 374.666666667 528 360 c 1
 546 374.666666667 566.333333333 385.666666667 589 393 c 0
 611.666666667 401 635.333333333 405 660 405 c 0
 696 405 729 401 759 393 c 0
 788.333333333 384.333333333 813 372.333333333 833 357 c 1
 872.333333333 385.666666667 914.666666667 400 960 400 c 2
 1036 400 l 1
 1020 428.666666667 1012 458.666666667 1012 490 c 1
 1012 490 l 1
840 137 m 1
 840 167 835 195 825 221 c 0
 815.666666667 247 802 269.333333333 784 288 c 1
 766 270 752.333333333 248 743 222 c 0
 733 196 728 167.666666667 728 137 c 0
 728 111 733.666666667 89 745 71 c 256
 756.333333333 53 770 44 786 44 c 0
 800.666666667 44 813.333333333 53 824 71 c 256
 834.666666667 89 840 111 840 137 c 1
 840 137 l 1
537 137 m 1
 537 165.666666667 531.666666667 193 521 219 c 0
 510.333333333 245.666666667 495.333333333 269 476 289 c 1
 456.666666667 268.333333333 442 245 432 219 c 0
 421.333333333 192.333333333 416 165 416 137 c 0
 416 111 422 89 434 71 c 0
 445.333333333 53 459.333333333 44 476 44 c 256
 492.666666667 44 507 53 519 71 c 256
 531 89 537 111 537 137 c 1
 537 137 l 1
236 118 m 1
 236 137.333333333 230.666666667 154 220 168 c 0
 208.666666667 182 195.333333333 189 180 189 c 0
 166 189 154.333333333 182 145 168 c 0
 135 154 130 137 130 117 c 256
 130 97 135 79.6666666667 145 65 c 0
 154.333333333 51 166 44 180 44 c 0
 195.333333333 44 208.666666667 51.3333333333 220 66 c 0
 230.666666667 80 236 97.3333333333 236 118 c 1
 236 118 l 1
EndSplineSet
Ligature2: "'abvs' Above Base Substitutions in Tamil lookup 2 subtable" uni0BA3 uni0BBF
EndChar

StartChar: uni0BA4_uni0BBF
Encoding: 340 -1 85
Width: 756
GlyphClass: 2
Flags: HW
LayerCount: 2
Back
Fore
SplineSet
620 90 m 1
 620 25.3333333333 599 -22 557 -52 c 0
 515 -82.6666666667 449.333333333 -98 360 -98 c 2
 114 -98 l 2
 91.3333333333 -98 71.6666666667 -102.666666667 55 -112 c 0
 39 -122 31 -133.666666667 31 -147 c 1
 48.3333333333 -139 59.3333333333 -135 64 -135 c 0
 81.3333333333 -135 96 -139.333333333 108 -148 c 0
 120 -156 126 -166 126 -178 c 256
 126 -190 119.333333333 -200.333333333 106 -209 c 256
 92.6666666667 -217.666666667 76.6666666667 -222 58 -222 c 0
 40.6666666667 -222 26 -216.666666667 14 -206 c 0
 2 -196 -4 -183.666666667 -4 -169 c 0
 -4 -139.666666667 8 -114.666666667 32 -94 c 256
 56 -73.3333333333 85 -63 119 -63 c 2
 344 -63 l 2
 384 -63 418.333333333 -48.3333333333 447 -19 c 256
 475.666666667 10.3333333333 490 46 490 88 c 0
 490 114.666666667 484.666666667 137.666666667 474 157 c 0
 463.333333333 175.666666667 450.666666667 185 436 185 c 2
 416 185 l 1
 416 137 l 2
 416 91 396.666666667 56.3333333333 358 33 c 0
 318.666666667 9.66666666667 261 -2 185 -2 c 0
 138.333333333 -2 98.3333333333 11.6666666667 65 39 c 0
 32.3333333333 65.6666666667 16 98.3333333333 16 137 c 0
 16 160.333333333 25 179.333333333 43 194 c 0
 61 208 84.6666666667 215 114 215 c 1
 92.6666666667 234.333333333 76 259 64 289 c 0
 52 319.666666667 46 352.666666667 46 388 c 0
 46 481.333333333 75.6666666667 556 135 612 c 256
 194.333333333 668 273 696 371 696 c 0
 478.333333333 696 562 667.333333333 622 610 c 0
 681.333333333 552.666666667 711 472.333333333 711 369 c 2
 711 0 l 1
 676 0 l 1
 676 375 l 2
 676 432.333333333 645 483 583 527 c 0
 521.666666667 571.666666667 451 594 371 594 c 0
 283 594 212.666666667 574.333333333 160 535 c 256
 107.333333333 495.666666667 81 443.333333333 81 378 c 0
 81 344.666666667 85.6666666667 315 95 289 c 0
 105 262.333333333 118.666666667 242.333333333 136 229 c 1
 136 400 l 1
 526 400 l 1
 526 370 l 1
 416 370 l 1
 416 220 l 1
 487 220 l 2
 523.666666667 220 555 207.333333333 581 182 c 256
 607 156.666666667 620 126 620 90 c 1
 620 90 l 1
286 220 m 1
 286 370 l 1
 171 370 l 1
 171 220 l 1
 286 220 l 1
 286 220 l 1
286 137 m 1
 286 185 l 1
 119 185 l 2
 100.333333333 185 84.3333333333 180.333333333 71 171 c 256
 57.6666666667 161.666666667 51 150.333333333 51 137 c 0
 51 105.666666667 63.3333333333 80.3333333333 88 61 c 0
 112.666666667 42.3333333333 145.333333333 33 186 33 c 0
 213.333333333 33 237 43 257 63 c 0
 276.333333333 83.6666666667 286 108.333333333 286 137 c 1
 286 137 l 1
EndSplineSet
Ligature2: "'abvs' Above Base Substitutions in Tamil lookup 2 subtable" uni0BA4 uni0BBF
EndChar

StartChar: uni0BA8_uni0BBF
Encoding: 341 -1 86
Width: 719
GlyphClass: 2
Flags: HW
LayerCount: 2
Back
Fore
SplineSet
596 103 m 1
 596 39.6666666667 570 -9.66666666667 518 -45 c 256
 466 -80.3333333333 393.333333333 -98 300 -98 c 2
 123 -98 l 2
 103 -98 85.6666666667 -102.333333333 71 -111 c 0
 57 -119.666666667 50 -130 50 -142 c 1
 52.6666666667 -142 56.6666666667 -140.666666667 62 -138 c 0
 66.6666666667 -136 70.3333333333 -135 73 -135 c 0
 90.3333333333 -135 105 -139.333333333 117 -148 c 0
 129 -157.333333333 135 -168.333333333 135 -181 c 0
 135 -191.666666667 128.333333333 -201 115 -209 c 0
 101.666666667 -216.333333333 85.6666666667 -220 67 -220 c 0
 49.6666666667 -220 35 -215 23 -205 c 256
 11 -195 5 -183 5 -169 c 0
 5 -139.666666667 17 -114.666666667 41 -94 c 256
 65 -73.3333333333 94 -63 128 -63 c 2
 304 -63 l 2
 360 -63 401 -49.3333333333 427 -22 c 0
 453 4.66666666667 466 47 466 105 c 0
 466 135.666666667 458.666666667 162 444 184 c 256
 429.333333333 206 411.666666667 217 391 217 c 0
 378.333333333 217 367.666666667 213.333333333 359 206 c 256
 350.333333333 198.666666667 346 189.666666667 346 179 c 2
 346 0 l 1
 216 0 l 1
 216 370 l 1
 80 370 l 1
 80 0 l 1
 45 0 l 1
 45 400 l 1
 261 400 l 1
 247.666666667 420.666666667 241 447.333333333 241 480 c 0
 241 545.333333333 260.666666667 597.666666667 300 637 c 256
 339.333333333 676.333333333 391.666666667 696 457 696 c 0
 531.666666667 696 586.333333333 672 621 624 c 0
 656.333333333 576.666666667 674 502 674 400 c 2
 674 0 l 1
 639 0 l 1
 639 400 l 2
 639 466.666666667 624.333333333 515.666666667 595 547 c 256
 565.666666667 578.333333333 519.666666667 594 457 594 c 0
 407 594 364.333333333 582.666666667 329 560 c 256
 293.666666667 537.333333333 276 510 276 478 c 0
 276 446.666666667 283.333333333 420.666666667 298 400 c 1
 512 400 l 1
 512 370 l 1
 346 370 l 1
 346 230 l 1
 370.666666667 248 401.666666667 257 439 257 c 0
 482.333333333 257 519.333333333 242 550 212 c 256
 580.666666667 182 596 145.666666667 596 103 c 1
 596 103 l 1
EndSplineSet
Ligature2: "'abvs' Above Base Substitutions in Tamil lookup 2 subtable" uni0BA8 uni0BBF
EndChar

StartChar: uni0BA9_uni0BBF
Encoding: 342 -1 87
Width: 1064
GlyphClass: 2
Flags: HW
LayerCount: 2
Back
Fore
SplineSet
1019 0 m 1
 984 0 l 1
 984 477 l 2
 984 509 973 536.666666667 951 560 c 0
 929 582.666666667 902.333333333 594 871 594 c 0
 837 594 808.333333333 583 785 561 c 0
 761 539 749 512.666666667 749 482 c 256
 749 451.333333333 755.333333333 424 768 400 c 1
 922 400 l 1
 922 367 l 1
 840 367 l 1
 840 0 l 1
 710 0 l 1
 710 367 l 1
 659 367 l 2
 640.333333333 367 624 364.666666667 610 360 c 0
 596 356 585.333333333 350 578 342 c 1
 604 320 624.333333333 291 639 255 c 256
 653.666666667 219 661 179.666666667 661 137 c 256
 661 94.3333333333 648.333333333 60 623 34 c 0
 598.333333333 8 565 -5 523 -5 c 256
 481 -5 447.666666667 8 423 34 c 0
 397.666666667 60 385 94.3333333333 385 137 c 0
 385 175.666666667 391 210.666666667 403 242 c 256
 415 273.333333333 431.666666667 298.333333333 453 317 c 1
 429 336.333333333 403 351.333333333 375 362 c 0
 347 372 318.333333333 377 289 377 c 0
 218.333333333 377 162 358.333333333 120 321 c 0
 77.3333333333 283.666666667 56 234 56 172 c 0
 56 138 63 108.333333333 77 83 c 256
 91 57.6666666667 109 41.6666666667 131 35 c 1
 120.333333333 42.3333333333 111.666666667 54 105 70 c 0
 99 86.6666666667 96 105.666666667 96 127 c 0
 96 165.666666667 108.333333333 196.333333333 133 219 c 0
 157.666666667 242.333333333 190.333333333 254 231 254 c 0
 272.333333333 254 305.333333333 242.333333333 330 219 c 256
 354.666666667 195.666666667 367 164.333333333 367 125 c 0
 367 84.3333333333 353.333333333 51.6666666667 326 27 c 256
 298.666666667 2.33333333333 262.333333333 -10 217 -10 c 0
 157.666666667 -10 110.333333333 6.33333333333 75 39 c 0
 39 71.6666666667 21 115.333333333 21 170 c 0
 21 243.333333333 46.6666666667 302 98 346 c 0
 148.666666667 390 216.666666667 412 302 412 c 0
 355.333333333 412 402 407.333333333 442 398 c 256
 482 388.666666667 513.333333333 375.333333333 536 358 c 1
 547.333333333 371.333333333 564 381.666666667 586 389 c 0
 607.333333333 396.333333333 632 400 660 400 c 2
 737 400 l 1
 721.666666667 431.333333333 714 465 714 501 c 0
 714 559.666666667 727.666666667 607 755 643 c 0
 782.333333333 678.333333333 818.666666667 696 864 696 c 0
 910.666666667 696 948.333333333 676 977 636 c 0
 1005 595.333333333 1019 541.666666667 1019 475 c 2
 1019 0 l 1
 1019 0 l 1
531 137 m 1
 531 169.666666667 526 199.333333333 516 226 c 256
 506 252.666666667 491.666666667 273.666666667 473 289 c 1
 456.333333333 276.333333333 443.333333333 256.666666667 434 230 c 256
 424.666666667 203.333333333 420 172.333333333 420 137 c 0
 420 111 425.333333333 88.6666666667 436 70 c 0
 446 51.3333333333 458.333333333 42 473 42 c 0
 489 42 502.666666667 51.3333333333 514 70 c 256
 525.333333333 88.6666666667 531 111 531 137 c 1
 531 137 l 1
237 120 m 1
 237 142 231.666666667 160.666666667 221 176 c 0
 209.666666667 191.333333333 196.333333333 199 181 199 c 0
 167 199 155.333333333 191.333333333 146 176 c 0
 136 161.333333333 131 143.333333333 131 122 c 0
 131 100 136 81 146 65 c 0
 155.333333333 49.6666666667 167 42 181 42 c 0
 196.333333333 42 209.666666667 49.6666666667 221 65 c 0
 231.666666667 80.3333333333 237 98.6666666667 237 120 c 1
 237 120 l 1
EndSplineSet
Ligature2: "'abvs' Above Base Substitutions in Tamil lookup 2 subtable" uni0BA9 uni0BBF
EndChar

StartChar: uni0BAA_uni0BBF
Encoding: 343 -1 88
Width: 804
GlyphClass: 2
Flags: HW
LayerCount: 2
Back
Fore
SplineSet
759 0 m 1
 724 0 l 1
 724 434 l 2
 724 478 709.333333333 515.666666667 680 547 c 256
 650.666666667 578.333333333 615.333333333 594 574 594 c 0
 534 594 500 580.666666667 472 554 c 0
 444 528 430 496.333333333 430 459 c 0
 430 425.666666667 438.333333333 397.333333333 455 374 c 256
 471.666666667 350.666666667 492 339 516 339 c 1
 516 400 l 1
 646 400 l 1
 646 0 l 1
 45 0 l 1
 45 400 l 1
 175 400 l 1
 175 30 l 1
 516 30 l 1
 516 308 l 1
 482.666666667 308 454 323.333333333 430 354 c 0
 406.666666667 385.333333333 395 422.666666667 395 466 c 0
 395 535.333333333 411.333333333 591 444 633 c 256
 476.666666667 675 520 696 574 696 c 0
 635.333333333 696 681.333333333 674 712 630 c 0
 743.333333333 586 759 521 759 435 c 2
 759 0 l 1
 759 0 l 1
EndSplineSet
Ligature2: "'abvs' Above Base Substitutions in Tamil lookup 2 subtable" uni0BAA uni0BBF
EndChar

StartChar: uni0BAE_uni0BBF
Encoding: 344 -1 89
Width: 846
GlyphClass: 2
Flags: HW
LayerCount: 2
Back
Fore
SplineSet
439 500 m 1
 439 559.333333333 455.333333333 606.666666667 488 642 c 0
 521.333333333 678 565.333333333 696 620 696 c 0
 680 696 725 673.333333333 755 628 c 0
 785.666666667 583.333333333 801 516.666666667 801 428 c 2
 801 0 l 1
 766 0 l 1
 766 427 l 2
 766 482.333333333 753.666666667 524 729 552 c 256
 704.333333333 580 667.666666667 594 619 594 c 0
 575 594 540 584.333333333 514 565 c 0
 487.333333333 545 474 518.666666667 474 486 c 0
 474 455.333333333 481.666666667 428.333333333 497 405 c 1
 538.333333333 400.333333333 573 376.333333333 601 333 c 256
 629 289.666666667 643 238 643 178 c 0
 643 124 632 81 610 49 c 0
 588 16.3333333333 558.666666667 0 522 0 c 2
 45 0 l 1
 45 400 l 1
 175 400 l 1
 175 30 l 1
 319 30 l 1
 319 272 l 2
 319 307.333333333 333.666666667 338 363 364 c 256
 392.333333333 390 428 404 470 406 c 1
 449.333333333 443.333333333 439 474.666666667 439 500 c 1
 439 500 l 1
449 275 m 1
 449 30 l 1
 512 30 l 2
 541.333333333 30 564.666666667 43.6666666667 582 71 c 256
 599.333333333 98.3333333333 608 134.666666667 608 180 c 0
 608 234.666666667 599 278.666666667 581 312 c 0
 563 344.666666667 539.333333333 361 510 361 c 0
 493.333333333 361 479 352.666666667 467 336 c 256
 455 319.333333333 449 299 449 275 c 1
 449 275 l 1
EndSplineSet
Ligature2: "'abvs' Above Base Substitutions in Tamil lookup 2 subtable" uni0BAE uni0BBF
EndChar

StartChar: uni0BAF_uni0BBF
Encoding: 345 -1 90
Width: 825
GlyphClass: 2
Flags: HW
LayerCount: 2
Back
Fore
SplineSet
780 0 m 1
 745 0 l 1
 745 434 l 2
 745 478 730.666666667 515.666666667 702 547 c 0
 672.666666667 578.333333333 637.666666667 594 597 594 c 0
 557.666666667 594 524 580.666666667 496 554 c 0
 468 528 454 496.333333333 454 459 c 0
 454 426.333333333 462 398.333333333 478 375 c 0
 494.666666667 351.666666667 514.333333333 340 537 340 c 1
 537 400 l 1
 667 400 l 1
 667 0 l 1
 247 0 l 1
 247 66 l 1
 243 44 233 26 217 12 c 0
 200.333333333 -2.66666666667 181.333333333 -10 160 -10 c 0
 126.666666667 -10 98.3333333333 2.66666666667 75 28 c 256
 51.6666666667 53.3333333333 40 83.6666666667 40 119 c 2
 40 400 l 1
 170 400 l 1
 170 113 l 2
 170 95.6666666667 172.666666667 81 178 69 c 256
 183.333333333 57 190 51 198 51 c 0
 206.666666667 51 214 57 220 69 c 256
 226 81 229 95.3333333333 229 112 c 2
 229 400 l 1
 359 400 l 1
 359 30 l 1
 537 30 l 1
 537 308 l 1
 504.333333333 308 476.666666667 325.666666667 454 361 c 0
 430.666666667 397 419 440 419 490 c 0
 419 552 435.333333333 602 468 640 c 0
 500 677.333333333 543 696 597 696 c 0
 652.333333333 696 696.666666667 672.333333333 730 625 c 0
 763.333333333 577 780 513.666666667 780 435 c 2
 780 0 l 1
 780 0 l 1
EndSplineSet
Ligature2: "'abvs' Above Base Substitutions in Tamil lookup 2 subtable" uni0BAF uni0BBF
EndChar

StartChar: uni0BB0_uni0BBF
Encoding: 346 -1 91
Width: 567
GlyphClass: 2
Flags: HW
LayerCount: 2
Back
Fore
SplineSet
354 14 m 1
 57 -165 l 1
 38 -142 l 1
 224 0 l 1
 224 370 l 1
 80 370 l 1
 80 0 l 1
 45 0 l 1
 45 400 l 1
 233 400 l 1
 219 422.666666667 212 451 212 485 c 0
 212 543 227 592.666666667 257 634 c 0
 286.333333333 675.333333333 322 696 364 696 c 0
 412 696 450.333333333 675 479 633 c 0
 507.666666667 590.333333333 522 534 522 464 c 2
 522 0 l 1
 487 0 l 1
 487 462 l 2
 487 498.666666667 475.333333333 529.666666667 452 555 c 0
 428.666666667 581 400.333333333 594 367 594 c 256
 333.666666667 594 305.333333333 583 282 561 c 256
 258.666666667 539 247 512.333333333 247 481 c 0
 247 463.666666667 249 448.333333333 253 435 c 0
 256.333333333 421 261.666666667 409.333333333 269 400 c 1
 451 400 l 1
 451 370 l 1
 354 370 l 1
 354 14 l 1
 354 14 l 1
EndSplineSet
Ligature2: "'abvs' Above Base Substitutions in Tamil lookup 2 subtable" uni0BB0 uni0BBF
EndChar

StartChar: uni0BB1_uni0BBF
Encoding: 347 -1 92
Width: 774
GlyphClass: 2
Flags: HW
LayerCount: 2
Back
Fore
SplineSet
729 0 m 1
 694 0 l 1
 694 477 l 2
 694 509 680 536.666666667 652 560 c 0
 624.666666667 582.666666667 591.333333333 594 552 594 c 0
 512 594 477.666666667 583 449 561 c 256
 420.333333333 539 406 512.666666667 406 482 c 256
 406 451.333333333 410.666666667 427 420 409 c 1
 486.666666667 409 537 389 571 349 c 256
 605 309 622 250 622 172 c 0
 622 97.3333333333 594.666666667 33.6666666667 540 -19 c 0
 484.666666667 -71.6666666667 418.333333333 -98 341 -98 c 2
 128 -98 l 2
 106.666666667 -98 88.3333333333 -102 73 -110 c 0
 57.6666666667 -118.666666667 48.3333333333 -129.333333333 45 -142 c 1
 73 -135 l 1
 87 -135 99 -139.333333333 109 -148 c 0
 119 -157.333333333 124 -168.333333333 124 -181 c 0
 124 -191.666666667 118.666666667 -201 108 -209 c 0
 98 -216.333333333 85.6666666667 -220 71 -220 c 0
 53.6666666667 -220 39 -215 27 -205 c 256
 15 -195 9 -183 9 -169 c 0
 9 -139.666666667 20.6666666667 -114.666666667 44 -94 c 0
 66.6666666667 -73.3333333333 94.3333333333 -63 127 -63 c 2
 337 -63 l 2
 379.666666667 -63 416.333333333 -40 447 6 c 0
 477 52 492 107.333333333 492 172 c 0
 492 228 483.666666667 275.666666667 467 315 c 256
 450.333333333 354.333333333 430.333333333 374 407 374 c 0
 387.666666667 374 371.333333333 363.333333333 358 342 c 0
 344.666666667 321.333333333 338 296 338 266 c 2
 338 0 l 1
 208 0 l 1
 208 305 l 2
 208 324.333333333 201.333333333 340.666666667 188 354 c 256
 174.666666667 367.333333333 158.333333333 374 139 374 c 0
 121.666666667 374 106.666666667 367 94 353 c 0
 82 339.666666667 76 323.333333333 76 304 c 2
 76 0 l 1
 41 0 l 1
 41 307 l 2
 41 335 52.3333333333 359 75 379 c 256
 97.6666666667 399 125 409 157 409 c 0
 190.333333333 409 220 402 246 388 c 0
 271.333333333 373.333333333 288.666666667 354.333333333 298 331 c 1
 307.333333333 352.333333333 319.666666667 369.666666667 335 383 c 0
 351 397 368.333333333 405.333333333 387 408 c 1
 376.333333333 428 371 452.666666667 371 482 c 0
 371 546.666666667 387 598.666666667 419 638 c 0
 451 676.666666667 493.666666667 696 547 696 c 0
 602.333333333 696 646.333333333 676.333333333 679 637 c 0
 712.333333333 597 729 544.333333333 729 479 c 2
 729 0 l 1
 729 0 l 1
EndSplineSet
Ligature2: "'abvs' Above Base Substitutions in Tamil lookup 2 subtable" uni0BB1 uni0BBF
EndChar

StartChar: uni0BB2_uni0BBF
Encoding: 348 -1 93
Width: 883
GlyphClass: 2
Flags: HW
LayerCount: 2
Back
Fore
SplineSet
838 0 m 1
 803 0 l 1
 803 444 l 2
 803 485.333333333 788.333333333 520.666666667 759 550 c 256
 729.666666667 579.333333333 694.333333333 594 653 594 c 0
 611 594 575.333333333 581.666666667 546 557 c 0
 516 532.333333333 501 502.333333333 501 467 c 0
 501 433 512.333333333 403.666666667 535 379 c 0
 557 355 584 343 616 343 c 1
 596 360 l 2
 592 364 588.666666667 368.666666667 586 374 c 0
 584 380 583 386 583 392 c 0
 583 400 586.666666667 407 594 413 c 0
 602 419 611.333333333 422 622 422 c 0
 648.666666667 422 671.333333333 400.666666667 690 358 c 256
 708.666666667 315.333333333 718 264 718 204 c 0
 718 137.333333333 704 86.6666666667 676 52 c 0
 648 18 606.666666667 1 552 1 c 0
 503.333333333 1 464.666666667 11.3333333333 436 32 c 0
 406.666666667 52.6666666667 392 80 392 114 c 2
 392 247 l 2
 392 283.666666667 380 313.333333333 356 336 c 0
 332 358 300.333333333 369 261 369 c 0
 203.666666667 369 155 350.666666667 115 314 c 0
 74.3333333333 277.333333333 54 233.333333333 54 182 c 0
 54 152 59.6666666667 124.666666667 71 100 c 0
 83 76 99 57.3333333333 119 44 c 1
 110.333333333 52.6666666667 103.666666667 63.6666666667 99 77 c 0
 94.3333333333 91 92 106.333333333 92 123 c 0
 92 160.333333333 105 192 131 218 c 0
 157 244.666666667 188.666666667 258 226 258 c 0
 266.666666667 258 299 245.333333333 323 220 c 0
 347.666666667 195.333333333 360 162 360 120 c 0
 360 84 344.333333333 55.3333333333 313 34 c 0
 282.333333333 12 241 1 189 1 c 0
 142.333333333 1 102.333333333 18.3333333333 69 53 c 0
 35.6666666667 88.3333333333 19 130.666666667 19 180 c 0
 19 240.666666667 43 292.666666667 91 336 c 0
 139 378.666666667 196.666666667 400 264 400 c 0
 342 400 404.333333333 386 451 358 c 256
 497.666666667 330 521 292.666666667 521 246 c 2
 521 117 l 2
 521 94.3333333333 527.666666667 75.3333333333 541 60 c 0
 554.333333333 44 570.333333333 36 589 36 c 0
 617.666666667 36 640.333333333 51.3333333333 657 82 c 0
 674.333333333 112.666666667 683 153.333333333 683 204 c 0
 683 241.333333333 670 277.333333333 644 312 c 1
 636 309.333333333 629 308 623 308 c 0
 579.666666667 308 542.666666667 324 512 356 c 256
 481.333333333 388 466 426.666666667 466 472 c 0
 466 540 482.666666667 594.333333333 516 635 c 0
 548.666666667 675.666666667 592.666666667 696 648 696 c 0
 700.666666667 696 745.333333333 671.333333333 782 622 c 0
 819.333333333 573.333333333 838 514.333333333 838 445 c 2
 838 0 l 1
 838 0 l 1
230 119 m 1
 230 141 224.666666667 159.666666667 214 175 c 256
 203.333333333 190.333333333 190.666666667 198 176 198 c 0
 162.666666667 198 151 189.666666667 141 173 c 0
 131.666666667 157 127 137.333333333 127 114 c 0
 127 92.6666666667 131.666666667 74.3333333333 141 59 c 0
 151 43.6666666667 162.666666667 36 176 36 c 0
 190.666666667 36 203.333333333 44 214 60 c 0
 224.666666667 76.6666666667 230 96.3333333333 230 119 c 1
 230 119 l 1
EndSplineSet
Ligature2: "'abvs' Above Base Substitutions in Tamil lookup 2 subtable" uni0BB2 uni0BBF
EndChar

StartChar: uni0BB3_uni0BBF
Encoding: 349 -1 94
Width: 1064
GlyphClass: 2
Flags: HW
LayerCount: 2
Back
Fore
SplineSet
1019 0 m 1
 984 0 l 1
 984 482 l 2
 984 512.666666667 972.666666667 539 950 561 c 0
 928 583 901 594 869 594 c 0
 840.333333333 594 815.666666667 583 795 561 c 0
 774.333333333 539.666666667 764 513.666666667 764 483 c 0
 764 457.666666667 771 430 785 400 c 1
 933 400 l 1
 933 367 l 1
 844 367 l 1
 844 0 l 1
 714 0 l 1
 714 367 l 1
 582 367 l 1
 582 0 l 1
 452 0 l 1
 452 218 l 1
 436 262.666666667 410.666666667 298.666666667 376 326 c 256
 341.333333333 353.333333333 304 367 264 367 c 0
 206 367 156.666666667 350.333333333 116 317 c 0
 74.6666666667 283 54 242.333333333 54 195 c 0
 54 157 61.3333333333 124 76 96 c 0
 90.6666666667 67.3333333333 110 49 134 41 c 1
 125.333333333 50.3333333333 118.666666667 62.3333333333 114 77 c 0
 109.333333333 92.3333333333 107 109 107 127 c 0
 107 167 119.333333333 199.333333333 144 224 c 0
 168.666666667 248 201.666666667 260 243 260 c 256
 284.333333333 260 317.333333333 247.333333333 342 222 c 0
 366.666666667 197.333333333 379 164 379 122 c 0
 379 84.6666666667 363 55 331 33 c 0
 299.666666667 10.3333333333 257.666666667 -1 205 -1 c 0
 153.666666667 -1 109.666666667 18 73 56 c 0
 37 94 19 139.666666667 19 193 c 0
 19 251 43 300.333333333 91 341 c 256
 139 381.666666667 196.666666667 402 264 402 c 0
 306.666666667 402 346.666666667 394 384 378 c 0
 420.666666667 361.333333333 451 338.333333333 475 309 c 1
 475 400 l 1
 750 400 l 1
 736 432.666666667 729 465 729 497 c 0
 729 557 741.666666667 605.333333333 767 642 c 0
 792.333333333 678 826 696 868 696 c 0
 914 696 950.666666667 676.333333333 978 637 c 0
 1005.33333333 597 1019 544.333333333 1019 479 c 2
 1019 0 l 1
 1019 0 l 1
249 119 m 1
 249 139.666666667 243.666666667 157.666666667 233 173 c 0
 221.666666667 187.666666667 208.333333333 195 193 195 c 0
 179 195 167 187.333333333 157 172 c 0
 147 157.333333333 142 139.333333333 142 118 c 0
 142 94.6666666667 147 75 157 59 c 0
 167 42.3333333333 179 34 193 34 c 0
 208.333333333 34 221.666666667 42.3333333333 233 59 c 0
 243.666666667 75.6666666667 249 95.6666666667 249 119 c 1
 249 119 l 1
EndSplineSet
Ligature2: "'abvs' Above Base Substitutions in Tamil lookup 2 subtable" uni0BB3 uni0BBF
EndChar

StartChar: uni0BB4_uni0BBF
Encoding: 350 -1 95
Width: 830
GlyphClass: 2
Flags: HW
LayerCount: 2
Back
Fore
SplineSet
785 0 m 1
 750 0 l 1
 750 462 l 2
 750 498.666666667 736.333333333 529.666666667 709 555 c 0
 681 581 647.666666667 594 609 594 c 0
 571.666666667 594 539.666666667 583 513 561 c 256
 486.333333333 539 473 512.666666667 473 482 c 0
 473 464 474 448.666666667 476 436 c 0
 478 424 480.666666667 415.333333333 484 410 c 1
 528 410 565.333333333 388.666666667 596 346 c 0
 627.333333333 304 643 253 643 193 c 0
 643 134.333333333 632 87.6666666667 610 53 c 0
 587.333333333 17.6666666667 557.666666667 0 521 0 c 2
 448 0 l 1
 448 -17.3333333333 454 -32.3333333333 466 -45 c 0
 477.333333333 -57 491.333333333 -63 508 -63 c 2
 606 -63 l 1
 606 -98 l 1
 498 -98 l 2
 470 -98 446.333333333 -106.333333333 427 -123 c 0
 407 -140.333333333 397 -161 397 -185 c 0
 397 -211 376 -233.333333333 334 -252 c 0
 291.333333333 -270.666666667 240.333333333 -280 181 -280 c 0
 133.666666667 -280 95.6666666667 -270.333333333 67 -251 c 256
 38.3333333333 -231.666666667 24 -205.666666667 24 -173 c 0
 24 -142.333333333 37.3333333333 -116.333333333 64 -95 c 0
 90 -73.6666666667 121.666666667 -63 159 -63 c 0
 185 -63 207 -68.6666666667 225 -80 c 256
 243 -91.3333333333 252 -105 252 -121 c 0
 252 -132.333333333 244 -142.333333333 228 -151 c 0
 212 -159 192.666666667 -163 170 -163 c 0
 156.666666667 -163 145.333333333 -159.333333333 136 -152 c 256
 126.666666667 -144.666666667 122 -136 122 -126 c 0
 120.666666667 -120 121 -114.333333333 123 -109 c 0
 124.333333333 -104.333333333 127 -100.666666667 131 -98 c 1
 111 -98 94 -105.333333333 80 -120 c 0
 66 -135.333333333 59 -153.333333333 59 -174 c 0
 59 -193.333333333 70.6666666667 -210 94 -224 c 0
 118 -238 146.666666667 -245 180 -245 c 0
 204 -245 224.666666667 -236.666666667 242 -220 c 0
 258.666666667 -203.333333333 267 -183.333333333 267 -160 c 0
 267 -133.333333333 276.333333333 -110.333333333 295 -91 c 0
 313 -72.3333333333 335.333333333 -63 362 -63 c 1
 349.333333333 -61 339.333333333 -54.3333333333 332 -43 c 0
 323.333333333 -31 319 -16.6666666667 319 0 c 1
 45 0 l 1
 45 400 l 1
 175 400 l 1
 175 30 l 1
 319 30 l 1
 319 267 l 2
 319 303 331.666666667 334.666666667 357 362 c 0
 383 389.333333333 415 405.333333333 453 410 c 1
 443 437.333333333 438 460.666666667 438 480 c 0
 438 539.333333333 454.666666667 590.333333333 488 633 c 0
 521.333333333 675 561.666666667 696 609 696 c 0
 657.666666667 696 699 673.333333333 733 628 c 0
 767.666666667 582.666666667 785 528 785 464 c 2
 785 0 l 1
448 30 m 1
 522 30 l 2
 546 30 566.333333333 46 583 78 c 0
 599.666666667 110.666666667 608 149.666666667 608 195 c 0
 608 243 597.333333333 284.333333333 576 319 c 0
 555.333333333 353 530 370 500 370 c 0
 485.333333333 370 473 360.333333333 463 341 c 256
 453 321.666666667 448 298.333333333 448 271 c 2
 448 30 l 1
EndSplineSet
Ligature2: "'abvs' Above Base Substitutions in Tamil lookup 2 subtable" uni0BB4 uni0BBF
EndChar

StartChar: uni0BB5_uni0BBF
Encoding: 351 -1 96
Width: 936
GlyphClass: 2
Flags: HW
LayerCount: 2
Back
Fore
SplineSet
891 0 m 1
 856 0 l 1
 856 452 l 2
 856 491.333333333 841.333333333 524.666666667 812 552 c 0
 783.333333333 580 748.333333333 594 707 594 c 0
 667.666666667 594 634 582.333333333 606 559 c 0
 578 535 564 506.333333333 564 473 c 0
 564 437.666666667 571.666666667 407.666666667 587 383 c 0
 602.333333333 357.666666667 621.333333333 344 644 342 c 1
 644 400 l 1
 774 400 l 1
 774 0 l 1
 343 0 l 1
 343 27 l 1
 369.666666667 39.6666666667 390.666666667 61.3333333333 406 92 c 0
 422 122.666666667 430 157.333333333 430 196 c 0
 430 246 411.666666667 288.333333333 375 323 c 0
 338.333333333 358.333333333 294.333333333 376 243 376 c 256
 191.666666667 376 147.666666667 357 111 319 c 256
 74.3333333333 281 56 235.333333333 56 182 c 0
 56 152 61.6666666667 124.666666667 73 100 c 0
 85 76 101 57.3333333333 121 44 c 1
 112.333333333 54 106 65.6666666667 102 79 c 0
 97.3333333333 93 95 107.666666667 95 123 c 0
 95 163.666666667 107.333333333 196.333333333 132 221 c 0
 156 245.666666667 188.333333333 258 229 258 c 256
 269.666666667 258 302 245.666666667 326 221 c 0
 350.666666667 196.333333333 363 163.333333333 363 122 c 0
 363 85.3333333333 348 56 318 34 c 0
 287.333333333 12 247 1 197 1 c 0
 143.666666667 1 101 17.3333333333 69 50 c 0
 37 83.3333333333 21 127.333333333 21 182 c 0
 21 254 45.3333333333 312 94 356 c 0
 143.333333333 399.333333333 208.666666667 421 290 421 c 0
 372 421 437.333333333 400.666666667 486 360 c 0
 535.333333333 319.333333333 560 265.333333333 560 198 c 0
 560 160 554.333333333 126.333333333 543 97 c 0
 531.666666667 67 515.666666667 44.6666666667 495 30 c 1
 644 30 l 1
 644 309 l 1
 611.333333333 311.666666667 584 328.666666667 562 360 c 0
 540 390.666666667 529 427.333333333 529 470 c 0
 529 538.666666667 545.333333333 593.333333333 578 634 c 0
 611.333333333 675.333333333 655.333333333 696 710 696 c 0
 760 696 802.666666667 671.333333333 838 622 c 0
 873.333333333 573.333333333 891 514.333333333 891 445 c 2
 891 0 l 1
 891 0 l 1
233 119 m 1
 233 141 227.666666667 159.666666667 217 175 c 256
 206.333333333 190.333333333 193.666666667 198 179 198 c 0
 165.666666667 198 154 190.333333333 144 175 c 0
 134.666666667 159.666666667 130 141.333333333 130 120 c 0
 130 96.6666666667 134.666666667 77 144 61 c 0
 154 44.3333333333 165.666666667 36 179 36 c 0
 193.666666667 36 206.333333333 44 217 60 c 0
 227.666666667 76.6666666667 233 96.3333333333 233 119 c 1
 233 119 l 1
EndSplineSet
Ligature2: "'abvs' Above Base Substitutions in Tamil lookup 2 subtable" uni0BB5 uni0BBF
EndChar

StartChar: uni0BB7_uni0BBF
Encoding: 352 -1 97
Width: 1171
GlyphClass: 2
Flags: HW
LayerCount: 2
Back
Fore
SplineSet
1126 0 m 1
 1091 0 l 1
 1091 462 l 2
 1091 498.666666667 1071.66666667 529.666666667 1033 555 c 0
 993.666666667 581 946.666666667 594 892 594 c 0
 839.333333333 594 794.666666667 582.666666667 758 560 c 0
 720.666666667 537.333333333 702 510 702 478 c 0
 702 450 707.333333333 423.333333333 718 398 c 1
 752 395.333333333 780.333333333 385 803 367 c 0
 825.666666667 348.333333333 837 327.333333333 837 304 c 2
 837 193 l 1
 859 193 881.333333333 203 904 223 c 0
 927.333333333 243 947.666666667 270 965 304 c 1
 1026 304 l 1
 1026 0 l 1
 837 0 l 1
 837 -242 l 1
 707 -242 l 1
 707 0 l 1
 347 0 l 1
 347 27 l 1
 373.666666667 41.6666666667 395 64.3333333333 411 95 c 0
 426.333333333 125 434 158.666666667 434 196 c 0
 434 244 415.333333333 284.666666667 378 318 c 0
 341.333333333 352 296.666666667 369 244 369 c 0
 186.666666667 369 141 352 107 318 c 0
 72.3333333333 284 55 238.666666667 55 182 c 0
 55 153.333333333 61.3333333333 126.666666667 74 102 c 0
 86 77.3333333333 103 58 125 44 c 1
 116.333333333 54 110 65.3333333333 106 78 c 0
 101.333333333 90.6666666667 99 104 99 118 c 0
 99 156 111.333333333 186.333333333 136 209 c 0
 160 231.666666667 192.333333333 243 233 243 c 256
 273.666666667 243 306 232 330 210 c 0
 354.666666667 188 367 158.666666667 367 122 c 0
 367 82.6666666667 352.333333333 51 323 27 c 256
 293.666666667 3 254.666666667 -9 206 -9 c 0
 154.666666667 -9 110.666666667 10 74 48 c 0
 38 86 20 131.666666667 20 185 c 0
 20 254.333333333 44.6666666667 309.666666667 94 351 c 0
 144 393 210 414 292 414 c 256
 374 414 440 394 490 354 c 0
 539.333333333 314 564 261 564 195 c 0
 564 159.666666667 557.666666667 127.666666667 545 99 c 0
 531.666666667 69.6666666667 513.666666667 46.6666666667 491 30 c 1
 707 30 l 1
 707 164 l 1
 670.333333333 164 639 175.333333333 613 198 c 0
 587 221.333333333 574 249 574 281 c 0
 574 311.666666667 584.666666667 338 606 360 c 0
 627.333333333 382.666666667 653.666666667 395.333333333 685 398 c 1
 673 424 667 451.333333333 667 480 c 0
 667 545.333333333 687.333333333 597.666666667 728 637 c 0
 769.333333333 676.333333333 824 696 892 696 c 0
 962.666666667 696 1019.33333333 675 1062 633 c 0
 1104.66666667 590.333333333 1126 534 1126 464 c 2
 1126 0 l 1
 1126 0 l 1
707 192 m 1
 707 302 l 2
 707 316.666666667 702.666666667 329 694 339 c 0
 686 349 676 354 664 354 c 0
 648.666666667 354 635.666666667 347 625 333 c 0
 614.333333333 318.333333333 609 301 609 281 c 0
 609 256.333333333 618.666666667 235.333333333 638 218 c 0
 656.666666667 200.666666667 679.666666667 192 707 192 c 1
 707 192 l 1
237 119 m 1
 237 139.666666667 231.666666667 157 221 171 c 0
 210.333333333 185.666666667 197.666666667 193 183 193 c 0
 169.666666667 193 158 186 148 172 c 0
 138.666666667 157.333333333 134 140 134 120 c 0
 134 99.3333333333 138.666666667 82 148 68 c 0
 158 53.3333333333 169.666666667 46 183 46 c 0
 197.666666667 46 210.333333333 53 221 67 c 0
 231.666666667 81.6666666667 237 99 237 119 c 1
 237 119 l 1
896 30 m 1
 896 179 l 1
 889.333333333 174.333333333 880.666666667 170.666666667 870 168 c 0
 860 165.333333333 849 164 837 164 c 1
 837 30 l 1
 896 30 l 1
 896 30 l 1
EndSplineSet
Ligature2: "'abvs' Above Base Substitutions in Tamil lookup 2 subtable" uni0BB7 uni0BBF
EndChar

StartChar: uni0BB8_uni0BBF
Encoding: 353 -1 98
Width: 1176
GlyphClass: 2
Flags: HW
LayerCount: 2
Back
Fore
SplineSet
1131 0 m 1
 1096 0 l 1
 1096 459 l 2
 1096 496.333333333 1082.33333333 528 1055 554 c 0
 1027.66666667 580.666666667 994.666666667 594 956 594 c 256
 917.333333333 594 884.333333333 583.666666667 857 563 c 0
 829.666666667 541.666666667 816 516.333333333 816 487 c 0
 816 443 827 406 849 376 c 0
 871.666666667 346 897.333333333 333.333333333 926 338 c 1
 901 360 l 2
 898.333333333 362.666666667 896.333333333 366 895 370 c 0
 893.666666667 373.333333333 893 377.333333333 893 382 c 0
 893 393.333333333 896.333333333 402.666666667 903 410 c 0
 910.333333333 418 918.666666667 422 928 422 c 0
 954 422 976.333333333 400.666666667 995 358 c 256
 1013.66666667 315.333333333 1023 264 1023 204 c 0
 1023 138.666666667 1008 86.6666666667 978 48 c 0
 948 8.66666666667 908 -11 858 -11 c 0
 811.333333333 -11 773.666666667 0.333333333333 745 23 c 0
 717 45.6666666667 703 76 703 114 c 2
 703 257 l 2
 703 289.666666667 696.333333333 317.666666667 683 341 c 256
 669.666666667 364.333333333 653.666666667 376 635 376 c 0
 614.333333333 376 596.333333333 365.666666667 581 345 c 0
 566.333333333 323.666666667 559 298.333333333 559 269 c 2
 559 0 l 1
 429 0 l 1
 429 235 l 2
 429 273.666666667 413.333333333 307 382 335 c 0
 351.333333333 362.333333333 314 376 270 376 c 0
 205.333333333 376 153.333333333 359 114 325 c 0
 75.3333333333 291 56 246 56 190 c 0
 56 153.333333333 63 121.333333333 77 94 c 0
 90.3333333333 66.6666666667 108.333333333 49 131 41 c 1
 121.666666667 51.6666666667 114.666666667 64 110 78 c 256
 105.333333333 92 103 107.333333333 103 124 c 0
 103 163.333333333 115.666666667 195 141 219 c 256
 166.333333333 243 200 255 242 255 c 256
 284 255 317.666666667 243 343 219 c 0
 368.333333333 194.333333333 381 162 381 122 c 0
 381 85.3333333333 365.333333333 54 334 28 c 0
 303.333333333 2 266 -11 222 -11 c 0
 161.333333333 -11 112.666666667 7 76 43 c 0
 39.3333333333 79.6666666667 21 128 21 188 c 0
 21 255.333333333 43.6666666667 309.333333333 89 350 c 0
 135 390.666666667 195.666666667 411 271 411 c 0
 330.333333333 411 382 401.333333333 426 382 c 0
 470.666666667 363.333333333 501.333333333 337.666666667 518 305 c 1
 526.666666667 336.333333333 544.666666667 361.666666667 572 381 c 0
 599.333333333 401 630.333333333 411 665 411 c 0
 711.666666667 411 751.333333333 396 784 366 c 0
 816.666666667 335.333333333 833 298.666666667 833 256 c 2
 833 117 l 2
 833 97 839 79.6666666667 851 65 c 0
 862.333333333 51 876.333333333 44 893 44 c 0
 921.666666667 44 944.666666667 58.6666666667 962 88 c 0
 979.333333333 116.666666667 988 155.333333333 988 204 c 0
 988 225.333333333 985 245.333333333 979 264 c 0
 973 282 964.666666667 297.666666667 954 311 c 1
 944 307.666666667 930.666666667 306 914 306 c 0
 877.333333333 306 846 323.666666667 820 359 c 256
 794 394.333333333 781 437 781 487 c 0
 781 550.333333333 796.666666667 601 828 639 c 256
 859.333333333 677 901 696 953 696 c 0
 1007 696 1050 674 1082 630 c 0
 1114.66666667 586.666666667 1131 528.666666667 1131 456 c 2
 1131 0 l 1
 1131 0 l 1
251 119 m 1
 251 139.666666667 245.333333333 157.666666667 234 173 c 0
 222 187.666666667 208 195 192 195 c 0
 177.333333333 195 164.666666667 188 154 174 c 0
 143.333333333 159.333333333 138 142 138 122 c 0
 138 100.666666667 143.333333333 82.3333333333 154 67 c 256
 164.666666667 51.6666666667 177.333333333 44 192 44 c 0
 208 44 222 51.3333333333 234 66 c 0
 245.333333333 80.6666666667 251 98.3333333333 251 119 c 1
 251 119 l 1
EndSplineSet
Ligature2: "'abvs' Above Base Substitutions in Tamil lookup 2 subtable" uni0BB8 uni0BBF
EndChar

StartChar: uni0BB9_uni0BBF
Encoding: 354 -1 99
Width: 1349
GlyphClass: 2
Flags: HW
LayerCount: 2
Back
Fore
SplineSet
1304 0 m 1
 1269 0 l 1
 1269 467 l 2
 1269 502.333333333 1256 532.333333333 1230 557 c 256
 1204 581.666666667 1172.33333333 594 1135 594 c 0
 1098.33333333 594 1067 583 1041 561 c 256
 1015 539 1002 512.666666667 1002 482 c 0
 1002 449.333333333 1009.33333333 422 1024 400 c 1
 1083.33333333 396.666666667 1128 376 1158 338 c 0
 1188 299.333333333 1203 244 1203 172 c 0
 1203 79.3333333333 1179 11 1131 -33 c 0
 1083 -76.3333333333 1008 -98 906 -98 c 2
 139 -98 l 2
 115.666666667 -98 96 -102.333333333 80 -111 c 0
 63.3333333333 -120.333333333 55 -131.333333333 55 -144 c 1
 88 -135 l 1
 99.3333333333 -135 109.333333333 -139.333333333 118 -148 c 0
 126 -157.333333333 130 -168.333333333 130 -181 c 0
 130 -191.666666667 125.333333333 -201 116 -209 c 0
 106.666666667 -216.333333333 95.3333333333 -220 82 -220 c 0
 64.6666666667 -220 50 -214.666666667 38 -204 c 0
 26 -192.666666667 20 -179.333333333 20 -164 c 0
 20 -136 31.6666666667 -112.333333333 55 -93 c 0
 77.6666666667 -73 105.333333333 -63 138 -63 c 2
 906 -63 l 2
 952 -63 991.333333333 -40.3333333333 1024 5 c 256
 1056.66666667 50.3333333333 1073 105.333333333 1073 170 c 0
 1073 230.666666667 1065.33333333 279 1050 315 c 0
 1034 351.666666667 1013 370 987 370 c 0
 970.333333333 370 956 362.666666667 944 348 c 0
 932 332.666666667 926 314.666666667 926 294 c 2
 926 0 l 1
 796 0 l 1
 796 295 l 2
 796 315.666666667 790.333333333 333.333333333 779 348 c 0
 767 362.666666667 753 370 737 370 c 0
 722.333333333 370 710 362.666666667 700 348 c 0
 689.333333333 332.666666667 684 314.666666667 684 294 c 2
 684 0 l 1
 343 0 l 1
 343 30 l 1
 369.666666667 44.6666666667 391 66.6666666667 407 96 c 0
 422.333333333 124.666666667 430 156.333333333 430 191 c 0
 430 245 413 288.333333333 379 321 c 0
 344.333333333 353.666666667 298.666666667 370 242 370 c 256
 185.333333333 370 140 353 106 319 c 0
 72 284.333333333 55 238.666666667 55 182 c 0
 55 152 61 125 73 101 c 0
 84.3333333333 76.3333333333 100.333333333 57.3333333333 121 44 c 1
 113 52 106.666666667 63 102 77 c 0
 97.3333333333 90.3333333333 95 105.333333333 95 122 c 0
 95 160 107.333333333 190.666666667 132 214 c 0
 156 236.666666667 188.333333333 248 229 248 c 256
 269.666666667 248 302 236.666666667 326 214 c 0
 350.666666667 190.666666667 363 160 363 122 c 0
 363 85.3333333333 348.666666667 55.6666666667 320 33 c 0
 292 11 254.333333333 0 207 0 c 0
 155.666666667 0 111.666666667 17.6666666667 75 53 c 0
 38.3333333333 87.6666666667 20 130 20 180 c 0
 20 252 44.6666666667 310 94 354 c 0
 142.666666667 397.333333333 208 419 290 419 c 256
 372 419 437.333333333 398 486 356 c 0
 535.333333333 314.666666667 560 259.333333333 560 190 c 0
 560 154 554.333333333 122 543 94 c 0
 532.333333333 66 517 44.6666666667 497 30 c 1
 649 30 l 1
 649 292 l 2
 649 324.666666667 659.666666667 351 681 371 c 0
 702.333333333 390.333333333 730.666666667 400 766 400 c 0
 794.666666667 400 820 393.666666667 842 381 c 256
 864 368.333333333 878.666666667 351.666666667 886 331 c 1
 892 348.333333333 904 363.333333333 922 376 c 0
 940 388 961.333333333 396 986 400 c 1
 973.333333333 422 967 457.666666667 967 507 c 0
 967 564.333333333 982.333333333 610 1013 644 c 0
 1043.66666667 678.666666667 1084.33333333 696 1135 696 c 0
 1186.33333333 696 1227.33333333 675.333333333 1258 634 c 256
 1288.66666667 592.666666667 1304 537.666666667 1304 469 c 2
 1304 0 l 1
 1304 0 l 1
233 122 m 1
 233 140 227.666666667 155.666666667 217 169 c 0
 206.333333333 181.666666667 193.666666667 188 179 188 c 0
 165.666666667 188 154 181.666666667 144 169 c 0
 134.666666667 155.666666667 130 140 130 122 c 0
 130 101.333333333 134.666666667 83.3333333333 144 68 c 0
 154 53.3333333333 165.666666667 46 179 46 c 0
 193.666666667 46 206.333333333 53.3333333333 217 68 c 0
 227.666666667 83.3333333333 233 101.333333333 233 122 c 1
 233 122 l 1
EndSplineSet
Ligature2: "'abvs' Above Base Substitutions in Tamil lookup 2 subtable" uni0BB9 uni0BBF
EndChar

StartChar: uni0B95_uni0BC0
Encoding: 355 -1 100
Width: 627
GlyphClass: 2
Flags: HW
LayerCount: 2
Back
Fore
SplineSet
453 535 m 1
 453 554.333333333 448.333333333 570.666666667 439 584 c 256
 429.666666667 597.333333333 418.666666667 604 406 604 c 0
 394.666666667 604 385 597.333333333 377 584 c 256
 369 570.666666667 365 554.333333333 365 535 c 0
 365 519 369 505.333333333 377 494 c 256
 385 482.666666667 394.666666667 477 406 477 c 0
 418.666666667 477 429.666666667 482.666666667 439 494 c 256
 448.333333333 505.333333333 453 519 453 535 c 1
 453 535 l 1
16 134 m 1
 16 158.666666667 25.6666666667 178.333333333 45 193 c 256
 64.3333333333 207.666666667 90.3333333333 215 123 215 c 1
 99 233.666666667 80 257.666666667 66 287 c 0
 52.6666666667 316.333333333 46 348 46 382 c 0
 46 466 76 535.333333333 136 590 c 0
 195.333333333 644.666666667 270.666666667 672 362 672 c 0
 432 672 486.333333333 660.333333333 525 637 c 0
 563.666666667 614.333333333 583 582 583 540 c 0
 583 504 570 475.333333333 544 454 c 256
 518 432.666666667 483.666666667 422 441 422 c 0
 407.666666667 422 380.666666667 432.333333333 360 453 c 0
 340 473.666666667 330 501 330 535 c 0
 330 550.333333333 332 564 336 576 c 0
 339.333333333 588 344.666666667 597.333333333 352 604 c 1
 266 604 199.333333333 584.333333333 152 545 c 0
 104.666666667 505 81 449.333333333 81 378 c 0
 81 348.666666667 86.3333333333 322 97 298 c 256
 107.666666667 274 122.333333333 256 141 244 c 1
 141 400 l 1
 526 400 l 1
 526 370 l 1
 416 370 l 1
 416 220 l 1
 488 220 l 2
 526 220 556.333333333 210.333333333 579 191 c 256
 601.666666667 171.666666667 613 146 613 114 c 0
 613 73.3333333333 596.333333333 44 563 26 c 0
 529 8.66666666667 473.333333333 0 396 0 c 1
 396 30 l 1
 428 30 450.666666667 36 464 48 c 0
 476.666666667 60.6666666667 483 82.3333333333 483 113 c 0
 483 137 478.333333333 155 469 167 c 256
 459.666666667 179 446 185 428 185 c 2
 416 185 l 1
 416 131 l 2
 416 87 395.333333333 54 354 32 c 0
 312.666666667 9.33333333333 251.333333333 -2 170 -2 c 0
 127.333333333 -2 91 11.3333333333 61 38 c 256
 31 64.6666666667 16 96.6666666667 16 134 c 1
 16 134 l 1
286 220 m 1
 286 370 l 1
 176 370 l 1
 176 220 l 1
 286 220 l 1
 286 220 l 1
286 138 m 1
 286 185 l 1
 119 185 l 2
 98.3333333333 185 82 180.333333333 70 171 c 0
 57.3333333333 162.333333333 51 150.333333333 51 135 c 0
 51 104.333333333 62 79.6666666667 84 61 c 256
 106 42.3333333333 135 33 171 33 c 0
 203 33 230 43.3333333333 252 64 c 0
 274.666666667 84.6666666667 286 109.333333333 286 138 c 1
 286 138 l 1
EndSplineSet
Ligature2: "'abvs' Above Base Substitutions in Tamil lookup 2 subtable" uni0B95 uni0BC0
EndChar

StartChar: uni0B99_uni0BC0
Encoding: 356 -1 101
Width: 790
GlyphClass: 2
Flags: HW
LayerCount: 2
Back
Fore
SplineSet
796 535 m 1
 796 554.333333333 791.333333333 570.666666667 782 584 c 256
 772.666666667 597.333333333 761.333333333 604 748 604 c 0
 736 604 726 597.333333333 718 584 c 0
 709.333333333 570.666666667 705 554.333333333 705 535 c 0
 705 517.666666667 709.333333333 503 718 491 c 0
 726 479 736 473 748 473 c 0
 761.333333333 473 772.666666667 479 782 491 c 256
 791.333333333 503 796 517.666666667 796 535 c 1
 796 535 l 1
745 0 m 1
 218 0 l 1
 218 30 l 1
 384 30 l 1
 402.666666667 40 417.333333333 56.6666666667 428 80 c 0
 438.666666667 102.666666667 444 128.333333333 444 157 c 0
 444 179.666666667 438 199.333333333 426 216 c 0
 414 232 399.666666667 240 383 240 c 0
 373.666666667 240 365.333333333 235.666666667 358 227 c 0
 351.333333333 219 348 209 348 197 c 2
 348 110 l 1
 218 110 l 1
 218 370 l 1
 80 370 l 1
 80 0 l 1
 45 0 l 1
 45 400 l 1
 464 400 l 1
 464 370 l 1
 348 370 l 1
 348 257 l 1
 376 275.666666667 407.333333333 285 442 285 c 0
 482 285 514 272.333333333 538 247 c 0
 562 222.333333333 574 189 574 147 c 0
 574 121.666666667 566.333333333 98.3333333333 551 77 c 256
 535.666666667 55.6666666667 515.333333333 40 490 30 c 1
 615 30 l 1
 615 307 l 1
 580.333333333 313 552 331 530 361 c 0
 507.333333333 391.666666667 496 427 496 467 c 0
 496 530.333333333 515.666666667 581.333333333 555 620 c 0
 594.333333333 658 646.666666667 677 712 677 c 0
 780 677 832.666666667 665 870 641 c 256
 907.333333333 617 926 583.333333333 926 540 c 0
 926 504.666666667 913 476.333333333 887 455 c 256
 861 433.666666667 826.333333333 423 783 423 c 0
 749 423 721.666666667 433 701 453 c 0
 680.333333333 473.666666667 670 500.666666667 670 534 c 0
 670 550 672.666666667 564.666666667 678 578 c 0
 684 592 692 603 702 611 c 1
 650 611 608.666666667 597.333333333 578 570 c 0
 546.666666667 542.666666667 531 506 531 460 c 0
 531 429.333333333 539 402.666666667 555 380 c 0
 570.333333333 357.333333333 590.333333333 343.333333333 615 338 c 1
 615 400 l 1
 745 400 l 1
 745 0 l 1
 745 0 l 1
EndSplineSet
Ligature2: "'abvs' Above Base Substitutions in Tamil lookup 2 subtable" uni0B99 uni0BC0
EndChar

StartChar: uni0B9A_uni0BC0
Encoding: 357 -1 102
Width: 516
GlyphClass: 2
Flags: HW
LayerCount: 2
Back
Fore
SplineSet
446 535 m 1
 446 554.333333333 441.333333333 570.666666667 432 584 c 256
 422.666666667 597.333333333 411.333333333 604 398 604 c 0
 386 604 376 597.333333333 368 584 c 0
 359.333333333 570.666666667 355 554.333333333 355 535 c 0
 355 517.666666667 359.333333333 502.666666667 368 490 c 0
 376 478 386 472 398 472 c 0
 411.333333333 472 422.666666667 478 432 490 c 0
 441.333333333 502.666666667 446 517.666666667 446 535 c 1
 446 535 l 1
508 185 m 1
 419 185 l 1
 419 137 l 2
 419 91 400.333333333 56.3333333333 363 33 c 256
 325.666666667 9.66666666667 270.333333333 -2 197 -2 c 0
 143 -2 100 10.6666666667 68 36 c 0
 35.3333333333 61.3333333333 19 95 19 137 c 0
 19 160.333333333 26.6666666667 179.333333333 42 194 c 0
 57.3333333333 208 78 215 104 215 c 1
 84 233.666666667 68.3333333333 257.666666667 57 287 c 0
 46.3333333333 315.666666667 41 347.333333333 41 382 c 0
 41 466 70.3333333333 535.333333333 129 590 c 0
 188.333333333 644.666666667 263 672 353 672 c 0
 420.333333333 672 474.333333333 659 515 633 c 256
 555.666666667 607 576 572.666666667 576 530 c 0
 576 497.333333333 563 471 537 451 c 0
 511 431.666666667 476.333333333 422 433 422 c 0
 397 422 369.333333333 431.666666667 350 451 c 0
 330 471 320 498.666666667 320 534 c 0
 320 548 322.333333333 561 327 573 c 0
 332.333333333 585 339.333333333 595.333333333 348 604 c 1
 266 604 200 583.333333333 150 542 c 0
 100.666666667 501.333333333 76 446.666666667 76 378 c 0
 76 344 81 314.333333333 91 289 c 256
 101 263.666666667 115 245.333333333 133 234 c 1
 133 400 l 1
 508 400 l 1
 508 370 l 1
 419 370 l 1
 419 220 l 1
 508 220 l 1
 508 185 l 1
 508 185 l 1
289 220 m 1
 289 370 l 1
 168 370 l 1
 168 220 l 1
 289 220 l 1
 289 220 l 1
289 137 m 1
 289 185 l 1
 121 185 l 2
 101 185 84.6666666667 180.666666667 72 172 c 0
 60 163.333333333 54 151.666666667 54 137 c 0
 54 105.666666667 67 80.3333333333 93 61 c 0
 119.666666667 42.3333333333 154.666666667 33 198 33 c 0
 225.333333333 33 247.333333333 42.3333333333 264 61 c 0
 280.666666667 80.3333333333 289 105.666666667 289 137 c 1
 289 137 l 1
EndSplineSet
Ligature2: "'abvs' Above Base Substitutions in Tamil lookup 2 subtable" uni0B9A uni0BC0
EndChar

StartChar: uni0B9C_uni0BC0
Encoding: 358 -1 103
Width: 769
GlyphClass: 2
Flags: HW
LayerCount: 2
Back
Fore
SplineSet
919 535 m 1
 919 502.333333333 907.666666667 476 885 456 c 0
 861.666666667 436 831 426 793 426 c 256
 755 426 724.666666667 436 702 456 c 256
 679.333333333 476 668 502.333333333 668 535 c 0
 668 551 670.666666667 565.666666667 676 579 c 256
 681.333333333 592.333333333 689 602.666666667 699 610 c 1
 659.666666667 610 626.333333333 597.666666667 599 573 c 0
 571 549 557 519.666666667 557 485 c 0
 557 455 562 429.333333333 572 408 c 1
 622 406 664.333333333 387.666666667 699 353 c 256
 733.666666667 318.333333333 751 276.666666667 751 228 c 0
 751 169.333333333 729.333333333 125 686 95 c 256
 642.666666667 65 578.333333333 50 493 50 c 2
 237 50 l 2
 203.666666667 50 175.333333333 39 152 17 c 0
 128.666666667 -5.66666666667 117 -32.6666666667 117 -64 c 0
 117 -96.6666666667 125.666666667 -124.666666667 143 -148 c 0
 161 -171.333333333 182.333333333 -183 207 -183 c 0
 227 -183 250.333333333 -174.666666667 277 -158 c 0
 303.666666667 -142 331.666666667 -118.666666667 361 -88 c 0
 391 -57.3333333333 423.333333333 -33.3333333333 458 -16 c 0
 492.666666667 0.666666666667 526.666666667 9 560 9 c 0
 618 9 664.333333333 -2.33333333333 699 -25 c 0
 733.666666667 -47 751 -76.6666666667 751 -114 c 0
 751 -148.666666667 733.333333333 -176.333333333 698 -197 c 0
 663.333333333 -217.666666667 616.666666667 -228 558 -228 c 0
 532 -228 508 -224 486 -216 c 256
 464 -208 445.666666667 -196.333333333 431 -181 c 1
 446 -157 l 1
 460 -168.333333333 476.666666667 -177.333333333 496 -184 c 0
 515.333333333 -190 536 -193 558 -193 c 0
 575.333333333 -193 590.333333333 -185.333333333 603 -170 c 0
 615 -154 621 -135 621 -113 c 0
 621 -89 614 -68.3333333333 600 -51 c 0
 586 -34.3333333333 569 -26 549 -26 c 0
 502.333333333 -26 444.666666667 -58 376 -122 c 256
 307.333333333 -186 249.666666667 -218 203 -218 c 0
 144.333333333 -218 97 -204 61 -176 c 0
 25.6666666667 -148 8 -110.666666667 8 -64 c 0
 8 -22.6666666667 28 12.3333333333 68 41 c 0
 108 70.3333333333 156 85 212 85 c 2
 494 85 l 2
 529.333333333 85 559.333333333 99.3333333333 584 128 c 256
 608.666666667 156.666666667 621 191 621 231 c 0
 621 270.333333333 614 303.666666667 600 331 c 0
 585.333333333 359 568 373 548 373 c 0
 528.666666667 373 512 363 498 343 c 256
 484 323 477 299 477 271 c 2
 477 138 l 1
 347 138 l 1
 347 259 l 2
 347 290.333333333 331.666666667 317.333333333 301 340 c 0
 270.333333333 362 233.333333333 373 190 373 c 0
 152 373 119.333333333 361.666666667 92 339 c 0
 65.3333333333 316.333333333 52 289 52 257 c 0
 52 229.666666667 58.6666666667 206 72 186 c 0
 85.3333333333 166.666666667 101.666666667 156 121 154 c 1
 109.666666667 158 100.333333333 166.666666667 93 180 c 0
 85.6666666667 194 82 210.333333333 82 229 c 0
 82 259.666666667 91.6666666667 284 111 302 c 0
 130.333333333 320.666666667 156.333333333 330 189 330 c 256
 221.666666667 330 247.666666667 320.333333333 267 301 c 0
 286.333333333 282.333333333 296 257 296 225 c 0
 296 195.666666667 284.333333333 172 261 154 c 256
 237.666666667 136 206.666666667 127 168 127 c 0
 122 127 85.3333333333 139 58 163 c 256
 30.6666666667 187 17 218.666666667 17 258 c 0
 17 299.333333333 35.6666666667 334.666666667 73 364 c 256
 110.333333333 393.333333333 155.666666667 408 209 408 c 0
 253 408 292.666666667 400.333333333 328 385 c 0
 362.666666667 369 389 347.333333333 407 320 c 1
 416.333333333 343.333333333 432.666666667 363 456 379 c 0
 479.333333333 394.333333333 506.333333333 403.666666667 537 407 c 1
 527 429.666666667 522 455.333333333 522 484 c 0
 522 536.666666667 541 581.333333333 579 618 c 0
 616.333333333 655.333333333 661.666666667 674 715 674 c 0
 782.333333333 674 833 662.333333333 867 639 c 0
 901.666666667 615.666666667 919 581 919 535 c 1
 919 535 l 1
789 538 m 1
 789 556.666666667 784.666666667 572.333333333 776 585 c 0
 768 598.333333333 758 605 746 605 c 256
 734 605 724 598.333333333 716 585 c 0
 707.333333333 572.333333333 703 556.666666667 703 538 c 256
 703 519.333333333 707.333333333 503.666666667 716 491 c 0
 724 477.666666667 734 471 746 471 c 256
 758 471 768 477.666666667 776 491 c 0
 784.666666667 503.666666667 789 519.333333333 789 538 c 1
 789 538 l 1
210 225 m 1
 210 244.333333333 205.333333333 260.666666667 196 274 c 0
 186 288 174.333333333 295 161 295 c 0
 149 295 138.666666667 288.666666667 130 276 c 0
 121.333333333 262.666666667 117 247 117 229 c 0
 117 210.333333333 121.333333333 194.666666667 130 182 c 0
 138.666666667 168.666666667 149 162 161 162 c 0
 174.333333333 162 186 168 196 180 c 0
 205.333333333 192.666666667 210 207.666666667 210 225 c 1
 210 225 l 1
EndSplineSet
Ligature2: "'abvs' Above Base Substitutions in Tamil lookup 2 subtable" uni0B9C uni0BC0
EndChar

